happy-times.ufo
<glyph name="exclam" format="1">
  <advance width="408"/>
  <unicode hex="0021"/>
  <outline>
    <contour>
      <point x="242" y="375" type="line"/>
      <point x="242" y="695"/>
      <point x="307" y="939"/>
      <point x="307" y="1375" type="curve"/>
      <point x="307" y="1375"/>
      <point x="102" y="1375"/>
      <point x="102" y="1375" type="curve"/>
      <point x="102" y="939"/>
      <point x="167" y="695"/>
      <point x="167" y="375" type="curve"/>
    </contour>
    <contour>
      <point x="100" y="0" type="line"/>
      <point x="308" y="0" type="line"/>
      <point x="308" y="20" type="line"/>
      <point x="308" y="188" type="line"/>
      <point x="308" y="208" type="line"/>
      <point x="100" y="208" type="line"/>
      <point x="100" y="188" type="line"/>
      <point x="100" y="20" type="line"/>
    </contour>
  </outline>
</glyph>
<glyph name="quotedbl" format="1">
  <advance width="385"/>
  <unicode hex="0022"/>
  <outline>
    <contour>
      <point x="330" y="1375" type="line"/>
      <point x="255" y="1375" type="line"/>
      <point x="255" y="1003" type="line"/>
      <point x="330" y="1003" type="line"/>
    </contour>
    <contour>
      <point x="130" y="1375" type="line"/>
      <point x="55" y="1375" type="line"/>
      <point x="55" y="1003" type="line"/>
      <point x="130" y="1003" type="line"/>
    </contour>
  </outline>
</glyph>
<glyph name="numbersign" format="1">
  <advance width="1001"/>
  <unicode hex="0023"/>
  <outline>
    <contour>
      <point x="981" y="849" type="line"/>
      <point x="1001" y="919" type="line"/>
      <point x="120" y="919" type="line"/>
      <point x="100" y="849" type="line"/>
    </contour>
    <contour>
      <point x="876" y="420" type="line"/>
      <point x="896" y="490" type="line"/>
      <point x="15" y="490" type="line"/>
      <point x="-5" y="420" type="line"/>
    </contour>
    <contour>
      <point x="446" y="-20" type="line"/>
      <point x="522" y="-20" type="line"/>
      <point x="902" y="1375" type="line"/>
      <point x="826" y="1375" type="line"/>
    </contour>
    <contour>
      <point x="100" y="-20" type="line"/>
      <point x="176" y="-20" type="line"/>
      <point x="556" y="1375" type="line"/>
      <point x="480" y="1375" type="line"/>
    </contour>
    <contour>
      <point x="417" y="919" type="line"/>
      <point x="437" y="919" type="line"/>
      <point x="437" y="939" type="line"/>
      <point x="417" y="939" type="line"/>
    </contour>
    <contour>
      <point x="763" y="919" type="line"/>
      <point x="783" y="919" type="line"/>
      <point x="783" y="939" type="line"/>
      <point x="763" y="939" type="line"/>
    </contour>
    <contour>
      <point x="215" y="400" type="line"/>
      <point x="235" y="400" type="line"/>
      <point x="235" y="420" type="line"/>
      <point x="215" y="420" type="line"/>
    </contour>
    <contour>
      <point x="561" y="400" type="line"/>
      <point x="581" y="400" type="line"/>
      <point x="581" y="420" type="line"/>
      <point x="561" y="420" type="line"/>
    </contour>
    <contour>
      <point x="300" y="490" type="line"/>
      <point x="320" y="490" type="line"/>
      <point x="320" y="510" type="line"/>
      <point x="300" y="510" type="line"/>
    </contour>
    <contour>
      <point x="646" y="490" type="line"/>
      <point x="666" y="490" type="line"/>
      <point x="666" y="510" type="line"/>
      <point x="646" y="510" type="line"/>
    </contour>
    <contour>
      <point x="332" y="829" type="line"/>
      <point x="352" y="829" type="line"/>
      <point x="352" y="849" type="line"/>
      <point x="332" y="849" type="line"/>
    </contour>
    <contour>
      <point x="678" y="829" type="line"/>
      <point x="698" y="829" type="line"/>
      <point x="698" y="849" type="line"/>
      <point x="678" y="849" type="line"/>
    </contour>
  </outline>
</glyph>
<glyph name="dollar" format="2">
  <advance width="1036"/>
  <unicode hex="0024"/>
  <outline>
    <contour>
      <point x="461" y="1575" type="line"/>
      <point x="461" y="883" type="line"/>
      <point x="441" y="883" type="line"/>
      <point x="461" y="776" type="line"/>
      <point x="461" y="-200" type="line"/>
      <point x="531" y="-200" type="line"/>
      <point x="531" y="548" type="line"/>
      <point x="551" y="548" type="line"/>
      <point x="531" y="719" type="line"/>
      <point x="531" y="1575" type="line"/>
    </contour>
    <contour>
      <point x="104" y="1036" type="curve"/>
      <point x="104" y="870"/>
      <point x="207" y="779"/>
      <point x="327" y="698" type="curve" smooth="yes"/>
      <point x="544" y="552" type="line" smooth="yes"/>
      <point x="705" y="444"/>
      <point x="752" y="381"/>
      <point x="752" y="262" type="curve"/>
      <point x="752" y="134"/>
      <point x="660" y="60"/>
      <point x="508" y="60" type="curve"/>
      <point x="270" y="60"/>
      <point x="140" y="250"/>
      <point x="140" y="415" type="curve" smooth="yes"/>
      <point x="140" y="475" type="line"/>
      <point x="70" y="475" type="line"/>
      <point x="70" y="-1" type="line"/>
      <point x="70" y="-1"/>
      <point x="140" y="-1"/>
      <point x="140" y="-1" type="curve"/>
      <point x="140" y="79" type="line"/>
      <point x="160" y="79" type="line"/>
      <point x="214" y="52"/>
      <point x="350" y="-20"/>
      <point x="530" y="-20" type="curve"/>
      <point x="780" y="-20"/>
      <point x="956" y="110"/>
      <point x="956" y="314" type="curve"/>
      <point x="956" y="490"/>
      <point x="880" y="600"/>
      <point x="740" y="690" type="curve" smooth="yes"/>
      <point x="492" y="850" type="line" smooth="yes"/>
      <point x="377" y="924"/>
      <point x="284" y="978"/>
      <point x="284" y="1114" type="curve"/>
      <point x="284" y="1228"/>
      <point x="362" y="1295"/>
      <point x="486" y="1295" type="curve"/>
      <point x="713" y="1295"/>
      <point x="825" y="1103"/>
      <point x="825" y="939" type="curve" smooth="yes"/>
      <point x="825" y="879" type="line"/>
      <point x="895" y="879" type="line"/>
      <point x="895" y="1355" type="line"/>
      <point x="895" y="1355"/>
      <point x="825" y="1355"/>
      <point x="825" y="1355" type="curve"/>
      <point x="825" y="1275" type="line"/>
      <point x="805" y="1275" type="line"/>
      <point x="746" y="1310"/>
      <point x="630" y="1375"/>
      <point x="476" y="1375" type="curve"/>
      <point x="290" y="1375"/>
      <point x="104" y="1278"/>
    </contour>
  </outline>
</glyph>
<glyph name="percent" format="1">
  <advance width="1104"/>
  <unicode hex="0025"/>
  <outline>
    <contour>
      <point x="181.0" y="-20.0" type="line"/>
      <point x="259.0" y="-20.0" type="line"/>
      <point x="907" y="1355" type="line"/>
      <point x="887" y="1375" type="line"/>
      <point x="838.0" y="1375.0" type="line"/>
    </contour>
    <contour>
      <point x="39" y="967" type="curve"/>
      <point x="39" y="776"/>
      <point x="131" y="678"/>
      <point x="239" y="678" type="curve"/>
      <point x="396" y="678"/>
      <point x="534" y="873"/>
      <point x="534" y="1087" type="curve"/>
      <point x="534" y="1178"/>
      <point x="508" y="1250"/>
      <point x="472" y="1295" type="curve"/>
      <point x="492" y="1315" type="line"/>
      <point x="780" y="1315" type="line"/>
      <point x="800" y="1295" type="line"/>
      <point x="838" y="1295" type="line"/>
      <point x="838" y="1375" type="line"/>
      <point x="373" y="1375" type="line" smooth="yes"/>
      <point x="166" y="1375"/>
      <point x="39" y="1152"/>
    </contour>
    <contour>
      <point x="366" y="1305" type="curve"/>
      <point x="433" y="1305"/>
      <point x="464" y="1242"/>
      <point x="464" y="1112" type="curve"/>
      <point x="464" y="898"/>
      <point x="362" y="733"/>
      <point x="270" y="733" type="curve"/>
      <point x="196" y="733"/>
      <point x="161" y="803"/>
      <point x="161" y="942" type="curve" smooth="yes"/>
      <point x="161" y="1117"/>
      <point x="247" y="1305"/>
    </contour>
    <contour>
      <point x="844" y="678" type="curve"/>
      <point x="666" y="678"/>
      <point x="539" y="455"/>
      <point x="539" y="270" type="curve"/>
      <point x="539" y="79"/>
      <point x="631" y="-19"/>
      <point x="739" y="-19" type="curve"/>
      <point x="896" y="-19"/>
      <point x="1034" y="176"/>
      <point x="1034" y="410" type="curve"/>
      <point x="1034" y="562"/>
      <point x="970" y="678"/>
    </contour>
    <contour>
      <point x="864" y="608" type="curve"/>
      <point x="923" y="608"/>
      <point x="964" y="545"/>
      <point x="964" y="415" type="curve"/>
      <point x="964" y="201"/>
      <point x="862" y="36"/>
      <point x="770" y="36" type="curve"/>
      <point x="698" y="36"/>
      <point x="661" y="106"/>
      <point x="661" y="245" type="curve" smooth="yes"/>
      <point x="661" y="420"/>
      <point x="747" y="608"/>
    </contour>
    <contour>
      <point x="302.0" y="1375.0" type="move" name="top"/>
    </contour>
    <contour>
      <point x="302.0" y="678.0" type="move" name="bottom"/>
    </contour>
  </outline>
</glyph>
<glyph name="ampersand" format="2">
  <advance width="1412"/>
  <unicode hex="0026"/>
  <outline>
    <contour>
      <point x="445" y="675" type="line"/>
      <point x="465" y="675" type="line"/>
      <point x="465" y="695" type="line"/>
      <point x="445" y="695" type="line"/>
    </contour>
    <contour>
      <point x="588" y="831" type="line"/>
      <point x="608" y="831" type="line"/>
      <point x="608" y="851" type="line"/>
      <point x="588" y="851" type="line"/>
    </contour>
    <contour>
      <point x="897" y="376" type="line"/>
      <point x="917" y="376" type="line"/>
      <point x="917" y="396" type="line"/>
      <point x="897" y="396" type="line"/>
    </contour>
    <contour>
      <point x="874" y="112" type="line" smooth="yes"/>
      <point x="945" y="17"/>
      <point x="1012" y="-20"/>
      <point x="1105" y="-20" type="curve"/>
      <point x="1263" y="-20"/>
      <point x="1331" y="79"/>
      <point x="1390" y="164" type="curve"/>
      <point x="1366" y="220" type="line"/>
      <point x="1318" y="145"/>
      <point x="1276" y="95"/>
      <point x="1210" y="95" type="curve"/>
      <point x="1140" y="95"/>
      <point x="1096" y="131"/>
      <point x="1040" y="206" type="curve" smooth="yes"/>
      <point x="784" y="549" type="line" smooth="yes"/>
      <point x="631" y="754"/>
      <point x="542" y="880"/>
      <point x="542" y="1070" type="curve"/>
      <point x="542" y="1220"/>
      <point x="610" y="1295"/>
      <point x="706" y="1295" type="curve"/>
      <point x="794" y="1295"/>
      <point x="844" y="1234"/>
      <point x="844" y="1138" type="curve"/>
      <point x="844" y="932"/>
      <point x="557" y="831"/>
      <point x="396" y="740" type="curve" smooth="yes"/>
      <point x="304" y="688"/>
      <point x="50" y="568"/>
      <point x="50" y="308" type="curve"/>
      <point x="50" y="88"/>
      <point x="200" y="-20"/>
      <point x="396" y="-20" type="curve"/>
      <point x="870" y="-20"/>
      <point x="1072" y="476"/>
      <point x="1210" y="745" type="curve"/>
      <point x="1240" y="765" type="line"/>
      <point x="1412" y="765" type="line"/>
      <point x="1412" y="835" type="line"/>
      <point x="942" y="835" type="line"/>
      <point x="942" y="765" type="line"/>
      <point x="1092" y="765" type="line"/>
      <point x="1112" y="745" type="line"/>
      <point x="1024" y="547"/>
      <point x="814" y="130"/>
      <point x="512" y="130" type="curve"/>
      <point x="360" y="130"/>
      <point x="264" y="244"/>
      <point x="264" y="400" type="curve"/>
      <point x="264" y="557"/>
      <point x="360" y="634"/>
      <point x="512" y="711" type="curve" smooth="yes"/>
      <point x="587" y="749"/>
      <point x="954" y="922"/>
      <point x="954" y="1150" type="curve"/>
      <point x="954" y="1314"/>
      <point x="826" y="1375"/>
      <point x="702" y="1375" type="curve"/>
      <point x="486" y="1375"/>
      <point x="354" y="1204"/>
      <point x="354" y="1032" type="curve"/>
      <point x="354" y="849"/>
      <point x="423" y="718"/>
      <point x="588" y="496" type="curve" smooth="yes"/>
    </contour>
  </outline>
</glyph>
<glyph name="quotesingle" format="1">
  <advance width="185"/>
  <unicode hex="0027"/>
  <outline>
    <contour>
      <point x="130" y="1375" type="line"/>
      <point x="55" y="1375" type="line"/>
      <point x="55" y="1003" type="line"/>
      <point x="130" y="1003" type="line"/>
    </contour>
  </outline>
</glyph>
<glyph name="parenleft" format="1">
  <advance width="670"/>
  <unicode hex="0028"/>
  <outline>
    <contour>
      <point x="573" y="1262" type="line"/>
      <point x="376" y="1179"/>
      <point x="90" y="889"/>
      <point x="90" y="459" type="curve"/>
      <point x="90" y="29"/>
      <point x="376" y="-261"/>
      <point x="573" y="-344" type="curve"/>
      <point x="614" y="-289" type="line"/>
      <point x="450" y="-212"/>
      <point x="240" y="29"/>
      <point x="240" y="459" type="curve"/>
      <point x="240" y="889"/>
      <point x="450" y="1130"/>
      <point x="614" y="1207" type="curve"/>
    </contour>
  </outline>
</glyph>
<glyph name="parenright" format="1">
  <advance width="670"/>
  <unicode hex="0029"/>
  <outline>
    <contour>
      <point x="97" y="-344" type="line"/>
      <point x="294" y="-261"/>
      <point x="580" y="29"/>
      <point x="580" y="459" type="curve"/>
      <point x="580" y="889"/>
      <point x="294" y="1179"/>
      <point x="97" y="1262" type="curve"/>
      <point x="56" y="1207" type="line"/>
      <point x="220" y="1130"/>
      <point x="430" y="889"/>
      <point x="430" y="459" type="curve"/>
      <point x="430" y="29"/>
      <point x="220" y="-212"/>
      <point x="56" y="-289" type="curve"/>
    </contour>
  </outline>
</glyph>
<glyph name="asterisk" format="2">
  <advance width="641"/>
  <unicode hex="002A"/>
  <outline>
    <contour>
      <point x="550" y="1152" type="line"/>
      <point x="585" y="1213" type="line"/>
      <point x="408" y="1315" type="line"/>
      <point x="408" y="1335" type="line"/>
      <point x="584" y="1437" type="line"/>
      <point x="549" y="1498" type="line"/>
      <point x="372" y="1395" type="line"/>
      <point x="355" y="1408" type="line"/>
      <point x="355" y="1610" type="line"/>
      <point x="285" y="1610" type="line"/>
      <point x="285" y="1408" type="line"/>
      <point x="268" y="1395" type="line"/>
      <point x="90" y="1498" type="line"/>
      <point x="55" y="1437" type="line"/>
      <point x="233" y="1335" type="line"/>
      <point x="233" y="1315" type="line"/>
      <point x="56" y="1213" type="line"/>
      <point x="91" y="1152" type="line"/>
      <point x="268" y="1255" type="line"/>
      <point x="285" y="1242" type="line"/>
      <point x="285" y="1040" type="line"/>
      <point x="355" y="1040" type="line"/>
      <point x="355" y="1242" type="line"/>
      <point x="372" y="1255" type="line"/>
    </contour>
  </outline>
</glyph>
<glyph name="plus" format="1">
  <advance width="1040"/>
  <unicode hex="002B"/>
  <outline>
    <contour>
      <point x="980" y="713" type="line"/>
      <point x="575" y="713" type="line"/>
      <point x="555" y="733" type="line"/>
      <point x="555" y="1137" type="line"/>
      <point x="485" y="1137" type="line"/>
      <point x="485" y="733" type="line"/>
      <point x="465" y="713" type="line"/>
      <point x="60" y="713" type="line"/>
      <point x="60" y="643" type="line"/>
      <point x="465" y="643" type="line"/>
      <point x="485" y="623" type="line"/>
      <point x="485" y="218" type="line"/>
      <point x="555" y="218" type="line"/>
      <point x="555" y="623" type="line"/>
      <point x="575" y="643" type="line"/>
      <point x="980" y="643" type="line"/>
    </contour>
  </outline>
</glyph>
<glyph name="comma" format="2">
  <advance width="508"/>
  <unicode hex="002C"/>
  <outline>
    <contour>
      <point x="319" y="37" type="curve"/>
      <point x="319" y="208" type="line"/>
      <point x="101" y="208" type="line"/>
      <point x="101" y="0" type="line"/>
      <point x="210" y="0" type="line"/>
      <point x="225" y="-20" type="line"/>
      <point x="225" y="-104"/>
      <point x="188" y="-176"/>
      <point x="91" y="-254" type="curve"/>
      <point x="122" y="-306" type="line"/>
      <point x="246" y="-216"/>
      <point x="319" y="-100"/>
    </contour>
  </outline>
</glyph>
<glyph name="hyphen" format="1">
  <advance width="620"/>
  <unicode hex="002D"/>
  <outline>
    <contour>
      <point x="80" y="409" type="line"/>
      <point x="540" y="409" type="line"/>
      <point x="540" y="509" type="line"/>
      <point x="80" y="509" type="line"/>
    </contour>
  </outline>
</glyph>
<glyph name="period" format="1">
  <advance width="508"/>
  <unicode hex="002E"/>
  <outline>
    <contour>
      <point x="100" y="0" type="line"/>
      <point x="308" y="0" type="line"/>
      <point x="308" y="208" type="line"/>
      <point x="100" y="208" type="line"/>
    </contour>
  </outline>
</glyph>
<glyph name="slash" format="1">
  <advance width="475"/>
  <unicode hex="002F"/>
  <outline>
    <contour>
      <point x="10" y="0" type="line"/>
      <point x="85" y="0" type="line"/>
      <point x="465" y="1375" type="line"/>
      <point x="390" y="1375" type="line"/>
    </contour>
  </outline>
</glyph>
<glyph name="zero" format="2">
  <advance width="1070"/>
  <unicode hex="0030"/>
  <guideline x="725" y="692" angle="90" identifier="bAlQ6DSBep"/>
  <guideline x="675" y="675" angle="0" identifier="5wROAw8fEM"/>
  <guideline x="1838.9319431538" y="1482.06961841" angle="0" identifier="LhZLRqVbFx"/>
  <anchor x="535" y="1375" name="top"/>
  <anchor x="535" y="-20" name="bottom"/>
  <outline>
    <contour>
      <point x="546" y="50" type="curve"/>
      <point x="356" y="50"/>
      <point x="275" y="335"/>
      <point x="275" y="725" type="curve" smooth="yes"/>
      <point x="275" y="1065"/>
      <point x="340" y="1305"/>
      <point x="524" y="1305" type="curve"/>
      <point x="726" y="1305"/>
      <point x="795" y="1015"/>
      <point x="795" y="625" type="curve" smooth="yes"/>
      <point x="795" y="265"/>
      <point x="720" y="50"/>
    </contour>
    <contour>
      <point x="532" y="-20" type="curve"/>
      <point x="835" y="-20"/>
      <point x="1000" y="295"/>
      <point x="1000" y="695" type="curve" smooth="yes"/>
      <point x="1000" y="1030"/>
      <point x="865" y="1375"/>
      <point x="538" y="1375" type="curve"/>
      <point x="235" y="1375"/>
      <point x="70" y="1080"/>
      <point x="70" y="655" type="curve" smooth="yes"/>
      <point x="70" y="345"/>
      <point x="205" y="-20"/>
    </contour>
  </outline>
</glyph>
<glyph name="one" format="1">
  <advance width="705"/>
  <unicode hex="0031"/>
  <outline>
    <contour>
      <point x="127" y="1136" type="line"/>
      <point x="287" y="1215" type="line"/>
      <point x="307" y="1195" type="line"/>
      <point x="307" y="0" type="line"/>
      <point x="482" y="0" type="line"/>
      <point x="482" y="1355" type="line"/>
      <point x="462" y="1375" type="line"/>
      <point x="100" y="1191" type="line"/>
    </contour>
    <contour>
      <point x="307" y="80" type="line"/>
      <point x="287" y="60" type="line"/>
      <point x="124" y="60" type="line"/>
      <point x="124" y="0" type="line"/>
      <point x="665" y="0" type="line"/>
      <point x="665" y="60" type="line"/>
      <point x="502" y="60" type="line"/>
      <point x="482" y="80" type="line"/>
    </contour>
  </outline>
</glyph>
<glyph name="two" format="2">
  <advance width="919"/>
  <unicode hex="0032"/>
  <anchor x="447" y="397" name="top"/>
  <anchor x="447" y="1376" name="bottom"/>
  <outline>
    <contour>
      <point x="117" y="20" type="line"/>
      <point x="380" y="273"/>
      <point x="833" y="635"/>
      <point x="833" y="1013" type="curve"/>
      <point x="833" y="1204"/>
      <point x="716" y="1376"/>
      <point x="479" y="1376" type="curve"/>
      <point x="178" y="1376"/>
      <point x="65" y="1104"/>
      <point x="51" y="990" type="curve"/>
      <point x="92" y="960" type="line"/>
      <point x="128" y="1066"/>
      <point x="220" y="1206"/>
      <point x="417" y="1206" type="curve"/>
      <point x="591" y="1206"/>
      <point x="688" y="1094"/>
      <point x="688" y="922" type="curve"/>
      <point x="688" y="652"/>
      <point x="418" y="406"/>
      <point x="40" y="20" type="curve"/>
    </contour>
    <contour>
      <point x="40" y="0" type="line"/>
      <point x="839" y="0" type="line"/>
      <point x="839" y="154" type="line"/>
      <point x="302" y="154" type="line"/>
      <point x="282" y="174" type="line"/>
      <point x="240" y="174" type="line"/>
      <point x="40" y="20" type="line"/>
    </contour>
    <contour>
      <point x="589" y="154" type="curve"/>
      <point x="839" y="154" type="line"/>
      <point x="839" y="383" type="line"/>
      <point x="779" y="383" type="line"/>
      <point x="779" y="348" type="line"/>
      <point x="779" y="188"/>
      <point x="729" y="154"/>
    </contour>
  </outline>
</glyph>
<glyph name="three" format="2">
  <advance width="933"/>
  <unicode hex="0033"/>
  <anchor x="437" y="397" name="top"/>
  <anchor x="437" y="1376" name="bottom"/>
  <outline>
    <contour>
      <point x="303" y="660" type="line"/>
      <point x="586" y="790" type="line"/>
      <point x="586" y="810" type="line"/>
      <point x="676" y="876"/>
      <point x="783" y="962"/>
      <point x="783" y="1103" type="curve"/>
      <point x="783" y="1274"/>
      <point x="666" y="1375"/>
      <point x="489" y="1375" type="curve"/>
      <point x="224" y="1375"/>
      <point x="108" y="1144"/>
      <point x="80" y="1030" type="curve"/>
      <point x="121" y="1000" type="line"/>
      <point x="162" y="1104"/>
      <point x="238" y="1225"/>
      <point x="402" y="1225" type="curve"/>
      <point x="552" y="1225"/>
      <point x="618" y="1132"/>
      <point x="618" y="1014" type="curve"/>
      <point x="618" y="826"/>
      <point x="387" y="738"/>
      <point x="303" y="720" type="curve"/>
    </contour>
    <contour>
      <point x="852" y="426" type="curve"/>
      <point x="852" y="686"/>
      <point x="668" y="764"/>
      <point x="586" y="790" type="curve"/>
      <point x="303" y="660" type="line"/>
      <point x="484" y="650"/>
      <point x="703" y="578"/>
      <point x="703" y="332" type="curve"/>
      <point x="703" y="164"/>
      <point x="587" y="58"/>
      <point x="450" y="58" type="curve"/>
      <point x="362" y="58"/>
      <point x="318" y="108"/>
      <point x="248" y="176" type="curve" smooth="yes"/>
      <point x="163" y="258" type="line"/>
      <point x="41" y="138" type="line"/>
      <point x="41" y="108" type="line"/>
      <point x="99" y="52"/>
      <point x="182" y="-20"/>
      <point x="380" y="-20" type="curve"/>
      <point x="647" y="-20"/>
      <point x="852" y="154"/>
    </contour>
  </outline>
</glyph>
<glyph name="four" format="2">
  <advance width="996"/>
  <unicode hex="0034"/>
  <outline>
    <contour>
      <point x="120" y="468" type="line"/>
      <point x="120" y="488" type="line"/>
      <point x="543" y="1042" type="line" smooth="yes"/>
      <point x="563" y="1042" type="line"/>
      <point x="563" y="0" type="line"/>
      <point x="728" y="0" type="line"/>
      <point x="728" y="1355" type="line"/>
      <point x="708" y="1375" type="line"/>
      <point x="0" y="468" type="line"/>
    </contour>
    <contour>
      <point x="0" y="328" type="line"/>
      <point x="956" y="328" type="line"/>
      <point x="956" y="468" type="line"/>
      <point x="0" y="468" type="line"/>
    </contour>
  </outline>
</glyph>
<glyph name="five" format="1">
  <advance width="938"/>
  <unicode hex="0035"/>
  <outline>
    <contour>
      <point x="422" y="58" type="curve"/>
      <point x="352" y="58"/>
      <point x="306" y="90"/>
      <point x="246" y="148" type="curve" smooth="yes"/>
      <point x="133" y="258" type="line"/>
      <point x="11" y="138" type="line"/>
      <point x="11" y="108" type="line"/>
      <point x="69" y="52"/>
      <point x="152" y="-20"/>
      <point x="350" y="-20" type="curve"/>
      <point x="617" y="-20"/>
      <point x="822" y="174"/>
      <point x="822" y="466" type="curve"/>
      <point x="822" y="848"/>
      <point x="500" y="960"/>
      <point x="257" y="1001" type="curve"/>
      <point x="85" y="827" type="line"/>
      <point x="370" y="800"/>
      <point x="673" y="710"/>
      <point x="673" y="362" type="curve"/>
      <point x="673" y="184"/>
      <point x="555" y="58"/>
    </contour>
    <contour>
      <point x="299" y="1355" type="line"/>
      <point x="65" y="847" type="line"/>
      <point x="85" y="827" type="line"/>
      <point x="257" y="1001" type="line"/>
      <point x="237" y="1021" type="line"/>
      <point x="322" y="1201" type="line"/>
      <point x="878" y="1201" type="line"/>
      <point x="878" y="1355" type="line"/>
    </contour>
  </outline>
</glyph>
<glyph name="six" format="2">
  <advance width="1008"/>
  <unicode hex="0036"/>
  <outline>
    <contour>
      <point x="507" y="-20" type="curve"/>
      <point x="774" y="-20"/>
      <point x="948" y="191"/>
      <point x="948" y="452" type="curve"/>
      <point x="948" y="744"/>
      <point x="771" y="888"/>
      <point x="574" y="888" type="curve"/>
      <point x="451" y="888"/>
      <point x="380" y="838"/>
      <point x="318" y="774" type="curve"/>
      <point x="298" y="774" type="line"/>
      <point x="258" y="774" type="line"/>
      <point x="258" y="612" type="line"/>
      <point x="288" y="708"/>
      <point x="381" y="782"/>
      <point x="480" y="782" type="curve"/>
      <point x="658" y="782"/>
      <point x="748" y="654"/>
      <point x="748" y="409" type="curve" smooth="yes"/>
      <point x="748" y="213"/>
      <point x="688" y="50"/>
      <point x="524" y="50" type="curve"/>
      <point x="370" y="50"/>
      <point x="264" y="218"/>
      <point x="264" y="506" type="curve"/>
      <point x="264" y="626"/>
      <point x="286" y="700"/>
      <point x="308" y="746" type="curve"/>
      <point x="298" y="774" type="line"/>
      <point x="344" y="1038"/>
      <point x="584" y="1297"/>
      <point x="931" y="1342" type="curve"/>
      <point x="904" y="1398" type="line"/>
      <point x="462" y="1353"/>
      <point x="60" y="1037"/>
      <point x="60" y="525" type="curve"/>
      <point x="60" y="165"/>
      <point x="277" y="-20"/>
    </contour>
  </outline>
</glyph>
<glyph name="seven" format="2">
  <advance width="882"/>
  <unicode hex="0037"/>
  <outline>
    <contour>
      <point x="862" y="1355" type="line"/>
      <point x="355" y="1355" type="line"/>
      <point x="355" y="1201" type="line"/>
      <point x="733" y="1201" type="line"/>
      <point x="753" y="1181" type="line"/>
      <point x="270" y="0" type="line"/>
      <point x="453" y="0" type="line"/>
      <point x="882" y="1335" type="line"/>
    </contour>
    <contour>
      <point x="355" y="1201" type="curve"/>
      <point x="355" y="1355" type="line"/>
      <point x="40" y="1355" type="line"/>
      <point x="40" y="970" type="line"/>
      <point x="110" y="970" type="line"/>
      <point x="110" y="1022" type="line"/>
      <point x="110" y="1192"/>
      <point x="163" y="1201"/>
    </contour>
  </outline>
</glyph>
<glyph name="eight" format="2">
  <advance width="940"/>
  <unicode hex="0038"/>
  <outline>
    <contour>
      <point x="480" y="50" type="curve"/>
      <point x="382" y="50"/>
      <point x="220" y="97"/>
      <point x="220" y="331" type="curve"/>
      <point x="220" y="498"/>
      <point x="304" y="580"/>
      <point x="393" y="642" type="curve"/>
      <point x="570" y="764" type="line"/>
      <point x="708" y="848"/>
      <point x="840" y="926"/>
      <point x="840" y="1100" type="curve"/>
      <point x="840" y="1286"/>
      <point x="678" y="1375"/>
      <point x="474" y="1375" type="curve"/>
      <point x="279" y="1375"/>
      <point x="75" y="1280"/>
      <point x="75" y="1050" type="curve"/>
      <point x="75" y="875"/>
      <point x="247" y="754"/>
      <point x="332" y="693" type="curve"/>
      <point x="332" y="673" type="line"/>
      <point x="508" y="796" type="line"/>
      <point x="306" y="923"/>
      <point x="249" y="1005"/>
      <point x="249" y="1114" type="curve"/>
      <point x="249" y="1232"/>
      <point x="336" y="1305"/>
      <point x="466" y="1305" type="curve"/>
      <point x="618" y="1305"/>
      <point x="699" y="1206"/>
      <point x="699" y="1090" type="curve"/>
      <point x="699" y="938"/>
      <point x="600" y="854"/>
      <point x="508" y="796" type="curve"/>
      <point x="332" y="673" type="line"/>
      <point x="193" y="586"/>
      <point x="60" y="494"/>
      <point x="60" y="295" type="curve"/>
      <point x="60" y="99"/>
      <point x="234" y="-20"/>
      <point x="452" y="-20" type="curve"/>
      <point x="749" y="-20"/>
      <point x="880" y="144"/>
      <point x="880" y="326" type="curve"/>
      <point x="880" y="525"/>
      <point x="736" y="630"/>
      <point x="570" y="744" type="curve"/>
      <point x="570" y="764" type="line"/>
      <point x="393" y="642" type="line"/>
      <point x="594" y="500"/>
      <point x="705" y="420"/>
      <point x="705" y="262" type="curve"/>
      <point x="705" y="124"/>
      <point x="619" y="50"/>
    </contour>
  </outline>
</glyph>
<glyph name="nine" format="1">
  <advance width="1008"/>
  <unicode hex="0039"/>
  <outline>
    <contour>
      <point x="501" y="1375" type="curve"/>
      <point x="234" y="1375"/>
      <point x="60" y="1164"/>
      <point x="60" y="903" type="curve"/>
      <point x="60" y="611"/>
      <point x="237" y="467"/>
      <point x="434" y="467" type="curve"/>
      <point x="557" y="467"/>
      <point x="628" y="517"/>
      <point x="690" y="581" type="curve"/>
      <point x="710" y="581" type="line"/>
      <point x="750" y="581" type="line"/>
      <point x="750" y="743" type="line"/>
      <point x="720" y="647"/>
      <point x="627" y="573"/>
      <point x="528" y="573" type="curve"/>
      <point x="350" y="573"/>
      <point x="260" y="701"/>
      <point x="260" y="946" type="curve" smooth="yes"/>
      <point x="260" y="1142"/>
      <point x="320" y="1305"/>
      <point x="484" y="1305" type="curve"/>
      <point x="638" y="1305"/>
      <point x="744" y="1137"/>
      <point x="744" y="849" type="curve"/>
      <point x="744" y="729"/>
      <point x="722" y="655"/>
      <point x="700" y="609" type="curve"/>
      <point x="710" y="581" type="line"/>
      <point x="664" y="317"/>
      <point x="424" y="68"/>
      <point x="77" y="13" type="curve"/>
      <point x="104" y="-43" type="line"/>
      <point x="546" y="12"/>
      <point x="948" y="328"/>
      <point x="948" y="830" type="curve"/>
      <point x="948" y="1190"/>
      <point x="731" y="1375"/>
    </contour>
  </outline>
</glyph>
<glyph name="colon" format="2">
  <advance width="508"/>
  <unicode hex="003A"/>
  <outline>
    <contour>
      <point x="100" y="711" type="line"/>
      <point x="308" y="711" type="line"/>
      <point x="308" y="731" type="line"/>
      <point x="308" y="899" type="line"/>
      <point x="308" y="919" type="line"/>
      <point x="100" y="919" type="line"/>
      <point x="100" y="899" type="line"/>
      <point x="100" y="731" type="line"/>
    </contour>
    <contour>
      <point x="100" y="0" type="line"/>
      <point x="308" y="0" type="line"/>
      <point x="308" y="20" type="line"/>
      <point x="308" y="188" type="line"/>
      <point x="308" y="208" type="line"/>
      <point x="100" y="208" type="line"/>
      <point x="100" y="188" type="line"/>
      <point x="100" y="20" type="line"/>
    </contour>
  </outline>
</glyph>
<glyph name="semicolon" format="2">
  <advance width="508"/>
  <unicode hex="003B"/>
  <guideline x="101" y="466" angle="90" identifier="koTlsMeDNr"/>
  <outline>
    <contour>
      <point x="319" y="37" type="curve"/>
      <point x="319" y="208" type="line"/>
      <point x="101" y="208" type="line"/>
      <point x="101" y="0" type="line"/>
      <point x="210" y="0" type="line"/>
      <point x="225" y="-20" type="line"/>
      <point x="225" y="-104"/>
      <point x="188" y="-176"/>
      <point x="91" y="-254" type="curve"/>
      <point x="122" y="-306" type="line"/>
      <point x="246" y="-216"/>
      <point x="319" y="-100"/>
    </contour>
    <contour>
      <point x="101" y="711" type="line"/>
      <point x="309" y="711" type="line"/>
      <point x="309" y="731" type="line"/>
      <point x="309" y="899" type="line"/>
      <point x="309" y="919" type="line"/>
      <point x="101" y="919" type="line"/>
      <point x="101" y="899" type="line"/>
      <point x="101" y="731" type="line"/>
    </contour>
  </outline>
</glyph>
<glyph name="equal" format="1">
  <advance width="1041"/>
  <unicode hex="003D"/>
  <outline>
    <contour>
      <point x="911" y="506" type="line"/>
      <point x="130" y="506" type="line"/>
      <point x="130" y="436" type="line"/>
      <point x="911" y="436" type="line"/>
    </contour>
    <contour>
      <point x="911" y="919" type="line"/>
      <point x="130" y="919" type="line"/>
      <point x="130" y="849" type="line"/>
      <point x="911" y="849" type="line"/>
    </contour>
  </outline>
</glyph>
<glyph name="greater" format="1">
  <advance width="1041"/>
  <unicode hex="003E"/>
  <outline>
    <contour>
      <point x="148" y="225" type="line"/>
      <point x="1001" y="668" type="line"/>
      <point x="1001" y="678" type="line"/>
      <point x="1001" y="688" type="line"/>
      <point x="148" y="1131" type="line"/>
      <point x="148" y="1051" type="line"/>
      <point x="839" y="688" type="line"/>
      <point x="839" y="668" type="line"/>
      <point x="148" y="305" type="line"/>
    </contour>
  </outline>
</glyph>
<glyph name="question" format="2">
  <advance width="865"/>
  <unicode hex="003F"/>
  <outline>
    <contour>
      <point x="476" y="1398" type="curve"/>
      <point x="689" y="1398"/>
      <point x="864" y="1282"/>
      <point x="864" y="1040" type="curve"/>
      <point x="864" y="767"/>
      <point x="607" y="638"/>
      <point x="466" y="566" type="curve"/>
      <point x="466" y="375" type="line"/>
      <point x="390" y="375" type="line"/>
      <point x="390" y="585" type="line"/>
      <point x="402" y="609" type="line"/>
      <point x="500" y="663"/>
      <point x="664" y="785"/>
      <point x="664" y="1024" type="curve"/>
      <point x="664" y="1202"/>
      <point x="551" y="1332"/>
      <point x="416" y="1332" type="curve"/>
      <point x="320" y="1332"/>
      <point x="265" y="1301"/>
      <point x="242" y="1204" type="curve" smooth="yes"/>
      <point x="196" y="1013" type="line"/>
      <point x="20" y="993" type="line"/>
      <point x="8" y="1019" type="line"/>
      <point x="28" y="1198"/>
      <point x="167" y="1398"/>
    </contour>
    <contour>
      <point x="327" y="0" type="line"/>
      <point x="535" y="0" type="line"/>
      <point x="535" y="20" type="line"/>
      <point x="535" y="188" type="line"/>
      <point x="535" y="208" type="line"/>
      <point x="327" y="208" type="line"/>
      <point x="327" y="188" type="line"/>
      <point x="327" y="20" type="line"/>
    </contour>
  </outline>
</glyph>
<glyph name="A" format="2">
  <advance width="1459"/>
  <unicode hex="0041"/>
  <anchor x="729.5" y="1395" name="top"/>
  <outline>
    <contour>
      <point x="977" y="530" type="line"/>
      <point x="888" y="550" type="line"/>
      <point x="888" y="530" type="line"/>
      <point x="450" y="530" type="line"/>
      <point x="450" y="550" type="line"/>
      <point x="378" y="530" type="line"/>
      <point x="378" y="430" type="line"/>
      <point x="977" y="430" type="line"/>
    </contour>
    <contour>
      <point x="150" y="90" type="curve"/>
      <point x="258" y="90" type="line"/>
      <point x="450" y="546"/>
      <point x="506" y="680"/>
      <point x="652" y="1068" type="curve"/>
      <point x="672" y="1068" type="line"/>
      <point x="1079" y="90" type="line"/>
      <point x="1299" y="90" type="line"/>
      <point x="740" y="1375" type="line"/>
      <point x="690" y="1375" type="line"/>
      <point x="402" y="716"/>
      <point x="374" y="650"/>
    </contour>
    <contour>
      <point x="258" y="90" type="line"/>
      <point x="150" y="90" type="line"/>
      <point x="130" y="70" type="line"/>
      <point x="20" y="70" type="line"/>
      <point x="20" y="0" type="line"/>
      <point x="20" y="0"/>
      <point x="433" y="0"/>
      <point x="433" y="0" type="curve"/>
      <point x="433" y="70" type="line"/>
      <point x="278" y="70" type="line"/>
    </contour>
    <contour>
      <point x="1299" y="90" type="line"/>
      <point x="1079" y="90" type="line"/>
      <point x="1059" y="70" type="line"/>
      <point x="904" y="70" type="line"/>
      <point x="904" y="0" type="line"/>
      <point x="904" y="0"/>
      <point x="1429" y="0"/>
      <point x="1429" y="0" type="curve"/>
      <point x="1429" y="70" type="line"/>
      <point x="1319" y="70" type="line"/>
    </contour>
  </outline>
</glyph>
<glyph name="B" format="1">
  <advance width="1315.0"/>
  <unicode hex="0042"/>
  <outline>
    <contour>
      <point x="470" y="705" type="line"/>
      <point x="909" y="705" type="line"/>
      <point x="909" y="725" type="line"/>
      <point x="1030" y="748"/>
      <point x="1175" y="834"/>
      <point x="1175" y="1005" type="curve"/>
      <point x="1175" y="1240"/>
      <point x="970" y="1355"/>
      <point x="670" y="1355" type="curve" smooth="yes"/>
      <point x="470" y="1355" type="line"/>
      <point x="470" y="1255" type="line"/>
      <point x="640" y="1255" type="line" smooth="yes"/>
      <point x="820" y="1255"/>
      <point x="940" y="1195"/>
      <point x="940" y="1005" type="curve"/>
      <point x="940" y="815"/>
      <point x="820" y="750"/>
      <point x="640" y="750" type="curve" smooth="yes"/>
      <point x="470" y="750" type="line"/>
    </contour>
    <contour>
      <point x="470" y="1355" type="line"/>
      <point x="90" y="1355" type="line"/>
      <point x="90" y="1285" type="line"/>
      <point x="245" y="1285" type="line"/>
      <point x="265" y="1265" type="line"/>
      <point x="265" y="90" type="line"/>
      <point x="245" y="70" type="line"/>
      <point x="90" y="70" type="line"/>
      <point x="90" y="0" type="line"/>
      <point x="470" y="0" type="line"/>
    </contour>
    <contour>
      <point x="470" y="0" type="line"/>
      <point x="710" y="0" type="line" smooth="yes"/>
      <point x="1010" y="0"/>
      <point x="1215" y="140"/>
      <point x="1215" y="374" type="curve"/>
      <point x="1215" y="574"/>
      <point x="1068" y="660"/>
      <point x="909" y="705" type="curve"/>
      <point x="470" y="705" type="line"/>
      <point x="470" y="650" type="line"/>
      <point x="680" y="650" type="line"/>
      <point x="860" y="650"/>
      <point x="980" y="564"/>
      <point x="980" y="374" type="curve"/>
      <point x="980" y="184"/>
      <point x="860" y="100"/>
      <point x="680" y="100" type="curve" smooth="yes"/>
      <point x="470" y="100" type="line"/>
    </contour>
  </outline>
</glyph>
<glyph name="C" format="2">
  <advance width="1338"/>
  <unicode hex="0043"/>
  <guideline x="1145" y="1166" angle="90" identifier="oI0ym9ZBCL"/>
  <anchor x="669" y="1395" name="top"/>
  <anchor x="669" y="-20" name="bottom"/>
  <outline>
    <contour>
      <point x="1298" y="284" type="curve"/>
      <point x="1252" y="336" type="line"/>
      <point x="1208" y="262"/>
      <point x="1104" y="80"/>
      <point x="802" y="80" type="curve" smooth="yes"/>
      <point x="450" y="80"/>
      <point x="295" y="375"/>
      <point x="295" y="695" type="curve" smooth="yes"/>
      <point x="295" y="1020"/>
      <point x="465" y="1295"/>
      <point x="778" y="1295" type="curve" smooth="yes"/>
      <point x="1018" y="1295"/>
      <point x="1165" y="1134"/>
      <point x="1165" y="939" type="curve" smooth="yes"/>
      <point x="1165" y="879" type="line"/>
      <point x="1235" y="879" type="line"/>
      <point x="1235" y="1355" type="line"/>
      <point x="1235" y="1355"/>
      <point x="1165" y="1355"/>
      <point x="1165" y="1355" type="curve"/>
      <point x="1165" y="1275" type="line"/>
      <point x="1145" y="1275" type="line"/>
      <point x="1134" y="1282"/>
      <point x="1005" y="1375"/>
      <point x="760" y="1375" type="curve" smooth="yes"/>
      <point x="370" y="1375"/>
      <point x="60" y="1095"/>
      <point x="60" y="685" type="curve" smooth="yes"/>
      <point x="60" y="270"/>
      <point x="360" y="-20"/>
      <point x="740" y="-20" type="curve" smooth="yes"/>
      <point x="1106" y="-20"/>
      <point x="1244" y="206"/>
    </contour>
  </outline>
</glyph>
<glyph name="D" format="1">
  <advance width="1515"/>
  <unicode hex="0044"/>
  <outline>
    <contour>
      <point x="470" y="1355" type="line"/>
      <point x="630" y="1355" type="line" smooth="yes"/>
      <point x="1110" y="1355"/>
      <point x="1455" y="1193"/>
      <point x="1455" y="678" type="curve"/>
      <point x="1455" y="163"/>
      <point x="1060" y="0"/>
      <point x="670" y="0" type="curve" smooth="yes"/>
      <point x="470" y="0" type="line"/>
      <point x="470" y="100" type="line"/>
      <point x="640" y="100" type="line" smooth="yes"/>
      <point x="1020" y="100"/>
      <point x="1217" y="278"/>
      <point x="1220" y="678" type="curve"/>
      <point x="1220" y="1078"/>
      <point x="1020" y="1255"/>
      <point x="620" y="1255" type="curve" smooth="yes"/>
      <point x="470" y="1255" type="line"/>
    </contour>
    <contour>
      <point x="470" y="0" type="line"/>
      <point x="90" y="0" type="line"/>
      <point x="90" y="70" type="line"/>
      <point x="245" y="70" type="line"/>
      <point x="265" y="90" type="line"/>
      <point x="265" y="1265" type="line"/>
      <point x="245" y="1285" type="line"/>
      <point x="90" y="1285" type="line"/>
      <point x="90" y="1355" type="line"/>
      <point x="470" y="1355" type="line"/>
    </contour>
  </outline>
</glyph>
<glyph name="E" format="2">
  <advance width="1310"/>
  <unicode hex="0045"/>
  <guideline x="1100" y="1038" angle="90" identifier="EtGKwgdNko"/>
  <anchor x="670" y="1395" name="top"/>
  <outline>
    <contour>
      <point x="470" y="660" type="line"/>
      <point x="865" y="660" type="line"/>
      <point x="885" y="640" type="line"/>
      <point x="885" y="510" type="line"/>
      <point x="955" y="510" type="line"/>
      <point x="955" y="910" type="line"/>
      <point x="885" y="910" type="line"/>
      <point x="885" y="780" type="line"/>
      <point x="865" y="760" type="line"/>
      <point x="470" y="760" type="line"/>
      <point x="470" y="1239" type="line"/>
      <point x="845" y="1239" type="line" smooth="yes"/>
      <point x="1037" y="1239"/>
      <point x="1090" y="1230"/>
      <point x="1090" y="1060" type="curve"/>
      <point x="1090" y="970" type="line"/>
      <point x="1160" y="970" type="line"/>
      <point x="1160" y="1355" type="line"/>
      <point x="90" y="1355" type="line"/>
      <point x="90" y="1285" type="line"/>
      <point x="245" y="1285" type="line"/>
      <point x="265" y="1265" type="line"/>
      <point x="265" y="90" type="line"/>
      <point x="245" y="70" type="line"/>
      <point x="90" y="70" type="line"/>
      <point x="90" y="0" type="line"/>
      <point x="1210" y="0" type="line"/>
      <point x="1210" y="405" type="line"/>
      <point x="1140" y="405" type="line"/>
      <point x="1140" y="310" type="line"/>
      <point x="1140" y="150"/>
      <point x="1080" y="116"/>
      <point x="940" y="116" type="curve"/>
      <point x="470" y="116" type="line"/>
    </contour>
  </outline>
</glyph>
<glyph name="F" format="1">
  <advance width="1240"/>
  <unicode hex="0046"/>
  <outline>
    <contour>
      <point x="90" y="1355" type="line"/>
      <point x="90" y="1285" type="line"/>
      <point x="245" y="1285" type="line"/>
      <point x="265" y="1265" type="line"/>
      <point x="265" y="0" type="line"/>
      <point x="470" y="0" type="line"/>
      <point x="470" y="660" type="line"/>
      <point x="865" y="660" type="line"/>
      <point x="885" y="640" type="line"/>
      <point x="885" y="510" type="line"/>
      <point x="955" y="510" type="line"/>
      <point x="955" y="910" type="line"/>
      <point x="885" y="910" type="line"/>
      <point x="885" y="780" type="line"/>
      <point x="865" y="760" type="line"/>
      <point x="470" y="760" type="line"/>
      <point x="470" y="1239" type="line"/>
      <point x="845" y="1239" type="line" smooth="yes"/>
      <point x="1037" y="1239"/>
      <point x="1090" y="1220"/>
      <point x="1090" y="1050" type="curve"/>
      <point x="1090" y="970" type="line"/>
      <point x="1160" y="970" type="line"/>
      <point x="1160" y="1355" type="line"/>
    </contour>
    <contour>
      <point x="470" y="90" type="line"/>
      <point x="265" y="90" type="line"/>
      <point x="245" y="70" type="line"/>
      <point x="90" y="70" type="line"/>
      <point x="90" y="0" type="line"/>
      <point x="90" y="0"/>
      <point x="665" y="0"/>
      <point x="665" y="0" type="curve"/>
      <point x="665" y="70" type="line"/>
      <point x="490" y="70" type="line"/>
    </contour>
  </outline>
</glyph>
<glyph name="G" format="2">
  <advance width="1465"/>
  <unicode hex="0047"/>
  <guideline x="1215" y="556" angle="90" identifier="2CqpXrMQ8n"/>
  <outline>
    <contour>
      <point x="1185" y="114" type="line"/>
      <point x="1185" y="0" type="line"/>
      <point x="1265" y="0" type="line"/>
      <point x="1265" y="570" type="line"/>
      <point x="1285" y="590" type="line"/>
      <point x="1400" y="590" type="line"/>
      <point x="1400" y="660" type="line"/>
      <point x="935" y="660" type="line"/>
      <point x="935" y="590" type="line"/>
      <point x="1090" y="590" type="line"/>
      <point x="1110" y="570" type="line"/>
      <point x="1110" y="435" type="line"/>
      <point x="1110" y="229"/>
      <point x="1010" y="60"/>
      <point x="780" y="60" type="curve"/>
      <point x="470" y="60"/>
      <point x="295" y="345"/>
      <point x="295" y="695" type="curve"/>
      <point x="295" y="1030"/>
      <point x="475" y="1295"/>
      <point x="778" y="1295" type="curve"/>
      <point x="1032" y="1295"/>
      <point x="1165" y="1120"/>
      <point x="1165" y="939" type="curve"/>
      <point x="1165" y="879" type="line"/>
      <point x="1235" y="879" type="line"/>
      <point x="1235" y="1355" type="line"/>
      <point x="1165" y="1355" type="line"/>
      <point x="1165" y="1275" type="line"/>
      <point x="1145" y="1275" type="line"/>
      <point x="1128" y="1286"/>
      <point x="1005" y="1375"/>
      <point x="760" y="1375" type="curve"/>
      <point x="400" y="1375"/>
      <point x="60" y="1125"/>
      <point x="60" y="685" type="curve"/>
      <point x="60" y="280"/>
      <point x="350" y="-20"/>
      <point x="745" y="-20" type="curve" smooth="yes"/>
      <point x="995" y="-20"/>
      <point x="1110" y="80"/>
      <point x="1165" y="114" type="curve"/>
    </contour>
  </outline>
</glyph>
<glyph name="H" format="1">
  <advance width="1555"/>
  <unicode hex="0048"/>
  <outline>
    <contour>
      <point x="1155" y="740" type="line"/>
      <point x="355" y="740" type="line"/>
      <point x="355" y="640" type="line"/>
      <point x="1155" y="640" type="line"/>
    </contour>
    <contour>
      <point x="470" y="90" type="line"/>
      <point x="470" y="1265" type="line"/>
      <point x="470" y="1265"/>
      <point x="265" y="1265"/>
      <point x="265" y="1265" type="curve"/>
      <point x="265" y="90" type="line"/>
    </contour>
    <contour>
      <point x="470" y="90" type="line"/>
      <point x="265" y="90" type="line"/>
      <point x="245" y="70" type="line"/>
      <point x="90" y="70" type="line"/>
      <point x="90" y="0" type="line"/>
      <point x="90" y="0"/>
      <point x="645" y="0"/>
      <point x="645" y="0" type="curve"/>
      <point x="645" y="70" type="line"/>
      <point x="490" y="70" type="line"/>
    </contour>
    <contour>
      <point x="470" y="1265" type="line"/>
      <point x="490" y="1285" type="line"/>
      <point x="645" y="1285" type="line"/>
      <point x="645" y="1355" type="line"/>
      <point x="645" y="1355"/>
      <point x="90" y="1355"/>
      <point x="90" y="1355" type="curve"/>
      <point x="90" y="1285" type="line"/>
      <point x="245" y="1285" type="line"/>
      <point x="265" y="1265" type="line"/>
    </contour>
    <contour>
      <point x="1290" y="90" type="line"/>
      <point x="1290" y="1265" type="line"/>
      <point x="1290" y="1265"/>
      <point x="1085" y="1265"/>
      <point x="1085" y="1265" type="curve"/>
      <point x="1085" y="90" type="line"/>
    </contour>
    <contour>
      <point x="1290" y="90" type="line"/>
      <point x="1085" y="90" type="line"/>
      <point x="1065" y="70" type="line"/>
      <point x="910" y="70" type="line"/>
      <point x="910" y="0" type="line"/>
      <point x="910" y="0"/>
      <point x="1465" y="0"/>
      <point x="1465" y="0" type="curve"/>
      <point x="1465" y="70" type="line"/>
      <point x="1310" y="70" type="line"/>
    </contour>
    <contour>
      <point x="1290" y="1265" type="line"/>
      <point x="1310" y="1285" type="line"/>
      <point x="1465" y="1285" type="line"/>
      <point x="1465" y="1355" type="line"/>
      <point x="1465" y="1355"/>
      <point x="910" y="1355"/>
      <point x="910" y="1355" type="curve"/>
      <point x="910" y="1285" type="line"/>
      <point x="1065" y="1285" type="line"/>
      <point x="1085" y="1265" type="line"/>
    </contour>
  </outline>
</glyph>
<glyph name="I" format="2">
  <advance width="735"/>
  <unicode hex="0049"/>
  <anchor x="368" y="1395" name="top"/>
  <outline>
    <contour>
      <point x="470" y="90" type="line"/>
      <point x="470" y="1265" type="line"/>
      <point x="470" y="1265"/>
      <point x="265" y="1265"/>
      <point x="265" y="1265" type="curve"/>
      <point x="265" y="90" type="line"/>
    </contour>
    <contour>
      <point x="470" y="90" type="line"/>
      <point x="265" y="90" type="line"/>
      <point x="245" y="70" type="line"/>
      <point x="90" y="70" type="line"/>
      <point x="90" y="0" type="line"/>
      <point x="90" y="0"/>
      <point x="645" y="0"/>
      <point x="645" y="0" type="curve"/>
      <point x="645" y="70" type="line"/>
      <point x="490" y="70" type="line"/>
    </contour>
    <contour>
      <point x="470" y="1265" type="line"/>
      <point x="490" y="1285" type="line"/>
      <point x="645" y="1285" type="line"/>
      <point x="645" y="1355" type="line"/>
      <point x="645" y="1355"/>
      <point x="90" y="1355"/>
      <point x="90" y="1355" type="curve"/>
      <point x="90" y="1285" type="line"/>
      <point x="245" y="1285" type="line"/>
      <point x="265" y="1265" type="line"/>
    </contour>
  </outline>
</glyph>
<glyph name="J" format="2">
  <advance width="644"/>
  <unicode hex="004A"/>
  <outline>
    <contour>
      <point x="449" y="286" type="curve"/>
      <point x="449" y="1265" type="line"/>
      <point x="449" y="1265"/>
      <point x="244" y="1265"/>
      <point x="244" y="1265" type="curve"/>
      <point x="244" y="170" type="line"/>
      <point x="244" y="-30"/>
      <point x="154" y="-101"/>
      <point x="0" y="-130" type="curve" smooth="yes"/>
      <point x="-63" y="-142" type="line"/>
      <point x="-36" y="-198" type="line"/>
      <point x="18" y="-192" type="line" smooth="yes"/>
      <point x="320" y="-158"/>
      <point x="449" y="-36"/>
    </contour>
    <contour>
      <point x="449" y="1265" type="line"/>
      <point x="469" y="1285" type="line"/>
      <point x="604" y="1285" type="line"/>
      <point x="604" y="1355" type="line"/>
      <point x="604" y="1355"/>
      <point x="69" y="1355"/>
      <point x="69" y="1355" type="curve"/>
      <point x="69" y="1285" type="line"/>
      <point x="224" y="1285" type="line"/>
      <point x="244" y="1265" type="line"/>
    </contour>
  </outline>
</glyph>
<glyph name="K" format="1">
  <advance width="1388"/>
  <unicode hex="004B"/>
  <outline>
    <contour>
      <point x="470" y="635" type="line"/>
      <point x="490" y="635" type="line"/>
      <point x="1050" y="0" type="line"/>
      <point x="1368" y="0" type="line"/>
      <point x="1368" y="70" type="line"/>
      <point x="1262" y="70" type="line"/>
      <point x="632" y="772" type="line"/>
      <point x="880" y="1010"/>
      <point x="914" y="1042"/>
      <point x="1137" y="1265" type="curve"/>
      <point x="1157" y="1285" type="line"/>
      <point x="1292" y="1285" type="line"/>
      <point x="1292" y="1355" type="line"/>
      <point x="853" y="1355" type="line"/>
      <point x="853" y="1285" type="line"/>
      <point x="988" y="1285" type="line"/>
      <point x="1008" y="1265" type="line"/>
      <point x="808" y="1078"/>
      <point x="772" y="1034"/>
      <point x="490" y="752" type="curve"/>
      <point x="470" y="752" type="line"/>
    </contour>
    <contour>
      <point x="470" y="90" type="line"/>
      <point x="470" y="1265" type="line"/>
      <point x="470" y="1265"/>
      <point x="265" y="1265"/>
      <point x="265" y="1265" type="curve"/>
      <point x="265" y="90" type="line"/>
    </contour>
    <contour>
      <point x="470" y="90" type="line"/>
      <point x="265" y="90" type="line"/>
      <point x="245" y="70" type="line"/>
      <point x="90" y="70" type="line"/>
      <point x="90" y="0" type="line"/>
      <point x="90" y="0"/>
      <point x="665" y="0"/>
      <point x="665" y="0" type="curve"/>
      <point x="665" y="70" type="line"/>
      <point x="490" y="70" type="line"/>
    </contour>
    <contour>
      <point x="470" y="1265" type="line"/>
      <point x="490" y="1285" type="line"/>
      <point x="645" y="1285" type="line"/>
      <point x="645" y="1355" type="line"/>
      <point x="645" y="1355"/>
      <point x="90" y="1355"/>
      <point x="90" y="1355" type="curve"/>
      <point x="90" y="1285" type="line"/>
      <point x="245" y="1285" type="line"/>
      <point x="265" y="1265" type="line"/>
    </contour>
  </outline>
</glyph>
<glyph name="L" format="2">
  <advance width="1270"/>
  <unicode hex="004C"/>
  <outline>
    <contour>
      <point x="470" y="1265" type="line"/>
      <point x="490" y="1285" type="line"/>
      <point x="665" y="1285" type="line"/>
      <point x="665" y="1355" type="line"/>
      <point x="665" y="1355"/>
      <point x="90" y="1355"/>
      <point x="90" y="1355" type="curve"/>
      <point x="90" y="1285" type="line"/>
      <point x="245" y="1285" type="line"/>
      <point x="265" y="1265" type="line"/>
    </contour>
    <contour>
      <point x="1210" y="0" type="line"/>
      <point x="1210" y="405" type="line"/>
      <point x="1140" y="405" type="line"/>
      <point x="1140" y="330" type="line"/>
      <point x="1140" y="152"/>
      <point x="1080" y="116"/>
      <point x="930" y="116" type="curve"/>
      <point x="470" y="116" type="line"/>
      <point x="470" y="1355" type="line"/>
      <point x="265" y="1355" type="line"/>
      <point x="265" y="90" type="line"/>
      <point x="245" y="70" type="line"/>
      <point x="90" y="70" type="line"/>
      <point x="90" y="0" type="line"/>
    </contour>
  </outline>
</glyph>
<glyph name="M" format="1">
  <advance width="1885"/>
  <unicode hex="004D"/>
  <outline>
    <contour>
      <point x="1415" y="1355" type="line"/>
      <point x="1415" y="1118" type="line"/>
      <point x="1395" y="1118" type="line"/>
      <point x="1246" y="750"/>
      <point x="1212" y="668"/>
      <point x="915" y="-20" type="curve"/>
      <point x="875" y="-20" type="line"/>
      <point x="380" y="1072" type="line"/>
      <point x="360" y="1072" type="line"/>
      <point x="360" y="1355" type="line"/>
      <point x="480" y="1355" type="line"/>
      <point x="945" y="304" type="line"/>
      <point x="965" y="304" type="line"/>
      <point x="1142" y="760"/>
      <point x="1184" y="864"/>
      <point x="1397" y="1355" type="curve"/>
    </contour>
    <contour>
      <point x="360" y="1355" type="line"/>
      <point x="372" y="664"/>
      <point x="370" y="560"/>
      <point x="360" y="90" type="curve"/>
      <point x="380" y="70" type="line"/>
      <point x="555" y="70" type="line"/>
      <point x="555" y="0" type="line"/>
      <point x="80" y="0" type="line"/>
      <point x="80" y="70" type="line"/>
      <point x="235" y="70" type="line"/>
      <point x="255" y="90" type="line"/>
      <point x="246" y="562"/>
      <point x="246" y="664"/>
      <point x="255" y="1265" type="curve"/>
      <point x="235" y="1285" type="line"/>
      <point x="90" y="1285" type="line"/>
      <point x="90" y="1355" type="line"/>
    </contour>
    <contour>
      <point x="1415" y="1355" type="line"/>
      <point x="1795" y="1355" type="line"/>
      <point x="1795" y="1285" type="line"/>
      <point x="1640" y="1285" type="line"/>
      <point x="1620" y="1265" type="line"/>
      <point x="1620" y="90" type="line"/>
      <point x="1640" y="70" type="line"/>
      <point x="1795" y="70" type="line"/>
      <point x="1795" y="0" type="line"/>
      <point x="1220" y="0" type="line"/>
      <point x="1220" y="70" type="line"/>
      <point x="1395" y="70" type="line"/>
      <point x="1415" y="90" type="line"/>
    </contour>
  </outline>
</glyph>
<glyph name="N" format="2">
  <advance width="1590"/>
  <unicode hex="004E"/>
  <guideline x="1266" y="839" angle="0" identifier="ghrQgDPBr5"/>
  <anchor x="790" y="1395" name="top"/>
  <outline>
    <contour>
      <point x="360" y="1103" type="line"/>
      <point x="360" y="1355" type="line"/>
      <point x="440" y="1355" type="line"/>
      <point x="1220" y="386" type="line"/>
      <point x="1345" y="386" type="line"/>
      <point x="1345" y="0" type="line"/>
      <point x="1265" y="0" type="line"/>
      <point x="380" y="1103" type="line"/>
    </contour>
    <contour>
      <point x="1345" y="386" type="curve"/>
      <point x="1240" y="386" type="line"/>
      <point x="1231" y="818"/>
      <point x="1230" y="858"/>
      <point x="1240" y="1265" type="curve"/>
      <point x="1220" y="1285" type="line"/>
      <point x="1045" y="1285" type="line"/>
      <point x="1045" y="1355" type="line"/>
      <point x="1520" y="1355" type="line"/>
      <point x="1520" y="1285" type="line"/>
      <point x="1365" y="1285" type="line"/>
      <point x="1345" y="1265" type="line"/>
      <point x="1354" y="847"/>
      <point x="1353" y="777"/>
    </contour>
    <contour>
      <point x="360" y="1355" type="line"/>
      <point x="372" y="664"/>
      <point x="370" y="560"/>
      <point x="360" y="90" type="curve"/>
      <point x="380" y="70" type="line"/>
      <point x="555" y="70" type="line"/>
      <point x="555" y="0" type="line"/>
      <point x="80" y="0" type="line"/>
      <point x="80" y="70" type="line"/>
      <point x="235" y="70" type="line"/>
      <point x="255" y="90" type="line"/>
      <point x="246" y="562"/>
      <point x="246" y="664"/>
      <point x="255" y="1265" type="curve"/>
      <point x="235" y="1285" type="line"/>
      <point x="90" y="1285" type="line"/>
      <point x="90" y="1355" type="line"/>
    </contour>
  </outline>
</glyph>
<glyph name="O" format="2">
  <advance width="1450"/>
  <unicode hex="004F"/>
  <guideline x="725" y="692" angle="90" identifier="F1Ec0Fvo4J"/>
  <guideline x="675" y="675" angle="0" identifier="2X4f6bQ4T4"/>
  <guideline x="1838.9319431538" y="1482.06961841" angle="0" identifier="wipP2VRdqV"/>
  <anchor x="725" y="1395" name="top"/>
  <outline>
    <contour>
      <point x="770" y="60" type="curve"/>
      <point x="470" y="60"/>
      <point x="295" y="375"/>
      <point x="295" y="725" type="curve" smooth="yes"/>
      <point x="295" y="1045"/>
      <point x="410" y="1295"/>
      <point x="680" y="1295" type="curve"/>
      <point x="980" y="1295"/>
      <point x="1155" y="975"/>
      <point x="1155" y="625" type="curve" smooth="yes"/>
      <point x="1155" y="285"/>
      <point x="1030" y="60"/>
    </contour>
    <contour>
      <point x="705" y="-20" type="curve" smooth="yes"/>
      <point x="1105" y="-20"/>
      <point x="1390" y="295"/>
      <point x="1390" y="695" type="curve" smooth="yes"/>
      <point x="1390" y="1100"/>
      <point x="1125" y="1375"/>
      <point x="745" y="1375" type="curve" smooth="yes"/>
      <point x="345" y="1375"/>
      <point x="60" y="1080"/>
      <point x="60" y="655" type="curve" smooth="yes"/>
      <point x="60" y="275"/>
      <point x="325" y="-20"/>
    </contour>
  </outline>
</glyph>
<glyph name="P" format="1">
  <advance width="1235"/>
  <unicode hex="0050"/>
  <outline>
    <contour>
      <point x="470" y="615" type="line"/>
      <point x="470" y="715" type="line"/>
      <point x="640" y="715" type="line" smooth="yes"/>
      <point x="820" y="715"/>
      <point x="940" y="785"/>
      <point x="940" y="985" type="curve"/>
      <point x="940" y="1185"/>
      <point x="820" y="1255"/>
      <point x="640" y="1255" type="curve" smooth="yes"/>
      <point x="470" y="1255" type="line"/>
      <point x="470" y="1355" type="line"/>
      <point x="670" y="1355" type="line" smooth="yes"/>
      <point x="970" y="1355"/>
      <point x="1175" y="1230"/>
      <point x="1175" y="985" type="curve"/>
      <point x="1175" y="740"/>
      <point x="970" y="615"/>
      <point x="670" y="615" type="curve" smooth="yes"/>
    </contour>
    <contour>
      <point x="470" y="1355" type="line"/>
      <point x="470" y="90" type="line"/>
      <point x="490" y="70" type="line"/>
      <point x="665" y="70" type="line"/>
      <point x="665" y="0" type="line"/>
      <point x="90" y="0" type="line"/>
      <point x="90" y="70" type="line"/>
      <point x="245" y="70" type="line"/>
      <point x="265" y="90" type="line"/>
      <point x="265" y="1265" type="line"/>
      <point x="245" y="1285" type="line"/>
      <point x="90" y="1285" type="line"/>
      <point x="90" y="1355" type="line"/>
    </contour>
  </outline>
</glyph>
<glyph name="Q" format="1">
  <advance width="1455"/>
  <unicode hex="0051"/>
  <outline>
    <contour>
      <point x="770" y="60" type="curve"/>
      <point x="470" y="60"/>
      <point x="295" y="375"/>
      <point x="295" y="725" type="curve" smooth="yes"/>
      <point x="295" y="1045"/>
      <point x="410" y="1295"/>
      <point x="680" y="1295" type="curve"/>
      <point x="980" y="1295"/>
      <point x="1155" y="975"/>
      <point x="1155" y="625" type="curve" smooth="yes"/>
      <point x="1155" y="285"/>
      <point x="1030" y="60"/>
    </contour>
    <contour>
      <point x="705" y="-20" type="curve" smooth="yes"/>
      <point x="1105" y="-20"/>
      <point x="1390" y="295"/>
      <point x="1390" y="695" type="curve" smooth="yes"/>
      <point x="1390" y="1100"/>
      <point x="1125" y="1375"/>
      <point x="745" y="1375" type="curve" smooth="yes"/>
      <point x="345" y="1375"/>
      <point x="60" y="1080"/>
      <point x="60" y="655" type="curve" smooth="yes"/>
      <point x="60" y="275"/>
      <point x="325" y="-20"/>
    </contour>
    <contour>
      <point x="819.0" y="379.0" type="line"/>
      <point x="1259.0" y="-60.0" type="line"/>
      <point x="1322.0" y="3.0" type="line"/>
      <point x="1103.0" y="222.0" type="line"/>
      <point x="1085" y="260" type="line"/>
      <point x="1065" y="260" type="line"/>
      <point x="883.0" y="442.0" type="line"/>
    </contour>
  </outline>
</glyph>
<glyph name="R" format="2">
  <advance width="1397"/>
  <unicode hex="0052"/>
  <guideline x="838" y="995" angle="0" identifier="x4TpfuXQS8"/>
  <outline>
    <contour>
      <point x="480" y="666" type="line"/>
      <point x="480" y="735" type="line"/>
      <point x="650" y="735" type="line" smooth="yes"/>
      <point x="830" y="735"/>
      <point x="950" y="795"/>
      <point x="950" y="995" type="curve"/>
      <point x="950" y="1195"/>
      <point x="830" y="1255"/>
      <point x="650" y="1255" type="curve" smooth="yes"/>
      <point x="480" y="1255" type="line"/>
      <point x="480" y="1355" type="line"/>
      <point x="680" y="1355" type="line" smooth="yes"/>
      <point x="980" y="1355"/>
      <point x="1185" y="1240"/>
      <point x="1185" y="995" type="curve"/>
      <point x="1185" y="756"/>
      <point x="987" y="666"/>
      <point x="726" y="666" type="curve"/>
    </contour>
    <contour>
      <point x="480" y="1355" type="line"/>
      <point x="480" y="90" type="line"/>
      <point x="500" y="70" type="line"/>
      <point x="665" y="70" type="line"/>
      <point x="665" y="0" type="line"/>
      <point x="90" y="0" type="line"/>
      <point x="90" y="70" type="line"/>
      <point x="255" y="70" type="line"/>
      <point x="275" y="90" type="line"/>
      <point x="275" y="1265" type="line"/>
      <point x="255" y="1285" type="line"/>
      <point x="90" y="1285" type="line"/>
      <point x="90" y="1355" type="line"/>
    </contour>
    <contour>
      <point x="1048" y="0" type="line" smooth="yes"/>
      <point x="500" y="638" type="line"/>
      <point x="480" y="638" type="line"/>
      <point x="480" y="666" type="line"/>
      <point x="716" y="666" type="line"/>
      <point x="716" y="646" type="line"/>
      <point x="1252" y="70" type="line"/>
      <point x="1377" y="70" type="line"/>
      <point x="1377" y="0" type="line"/>
    </contour>
  </outline>
</glyph>
<glyph name="S" format="1">
  <advance width="1126"/>
  <unicode hex="0053"/>
  <outline>
    <contour>
      <point x="164" y="1036" type="curve"/>
      <point x="164" y="870"/>
      <point x="267" y="779"/>
      <point x="387" y="698" type="curve" smooth="yes"/>
      <point x="604" y="552" type="line" smooth="yes"/>
      <point x="765" y="444"/>
      <point x="812" y="381"/>
      <point x="812" y="262" type="curve"/>
      <point x="812" y="134"/>
      <point x="720" y="60"/>
      <point x="568" y="60" type="curve"/>
      <point x="330" y="60"/>
      <point x="200" y="250"/>
      <point x="200" y="415" type="curve" smooth="yes"/>
      <point x="200" y="475" type="line"/>
      <point x="130" y="475" type="line"/>
      <point x="130" y="-1" type="line"/>
      <point x="130" y="-1"/>
      <point x="200" y="-1"/>
      <point x="200" y="-1" type="curve"/>
      <point x="200" y="79" type="line"/>
      <point x="220" y="79" type="line"/>
      <point x="274" y="52"/>
      <point x="410" y="-20"/>
      <point x="590" y="-20" type="curve"/>
      <point x="840" y="-20"/>
      <point x="1016" y="110"/>
      <point x="1016" y="314" type="curve"/>
      <point x="1016" y="490"/>
      <point x="940" y="600"/>
      <point x="800" y="690" type="curve" smooth="yes"/>
      <point x="552" y="850" type="line" smooth="yes"/>
      <point x="437" y="924"/>
      <point x="344" y="978"/>
      <point x="344" y="1114" type="curve"/>
      <point x="344" y="1228"/>
      <point x="422" y="1295"/>
      <point x="546" y="1295" type="curve"/>
      <point x="773" y="1295"/>
      <point x="885" y="1103"/>
      <point x="885" y="939" type="curve" smooth="yes"/>
      <point x="885" y="879" type="line"/>
      <point x="955" y="879" type="line"/>
      <point x="955" y="1355" type="line"/>
      <point x="955" y="1355"/>
      <point x="885" y="1355"/>
      <point x="885" y="1355" type="curve"/>
      <point x="885" y="1275" type="line"/>
      <point x="865" y="1275" type="line"/>
      <point x="806" y="1310"/>
      <point x="690" y="1375"/>
      <point x="536" y="1375" type="curve"/>
      <point x="350" y="1375"/>
      <point x="164" y="1278"/>
    </contour>
  </outline>
</glyph>
<glyph name="T" format="2">
  <advance width="1230"/>
  <unicode hex="0054"/>
  <guideline x="533" y="989" angle="0" identifier="DR7lZL6wY0"/>
  <outline>
    <contour>
      <point x="719" y="70" type="line"/>
      <point x="719" y="1255" type="line"/>
      <point x="719" y="1255"/>
      <point x="514" y="1255"/>
      <point x="514" y="1255" type="curve"/>
      <point x="514" y="70" type="line"/>
    </contour>
    <contour>
      <point x="719" y="90" type="line"/>
      <point x="514" y="90" type="line"/>
      <point x="494" y="70" type="line"/>
      <point x="339" y="70" type="line"/>
      <point x="339" y="0" type="line"/>
      <point x="339" y="0"/>
      <point x="894" y="0"/>
      <point x="894" y="0" type="curve"/>
      <point x="894" y="70" type="line"/>
      <point x="739" y="70" type="line"/>
    </contour>
    <contour>
      <point x="110" y="1050" type="line"/>
      <point x="110" y="1220"/>
      <point x="163" y="1239"/>
      <point x="355" y="1239" type="curve"/>
      <point x="875" y="1239" type="line"/>
      <point x="1067" y="1239"/>
      <point x="1120" y="1220"/>
      <point x="1120" y="1050" type="curve"/>
      <point x="1120" y="989" type="line"/>
      <point x="1190" y="989" type="line"/>
      <point x="1190" y="1355" type="line"/>
      <point x="40" y="1355" type="line"/>
      <point x="40" y="989" type="line"/>
      <point x="110" y="989" type="line"/>
    </contour>
  </outline>
</glyph>
<glyph name="U" format="1">
  <advance width="1455"/>
  <unicode hex="0055"/>
  <outline>
    <contour>
      <point x="741" y="-20" type="curve"/>
      <point x="1076" y="-20"/>
      <point x="1257" y="160"/>
      <point x="1260" y="550" type="curve" smooth="yes"/>
      <point x="1262" y="856"/>
      <point x="1262" y="1008"/>
      <point x="1260" y="1265" type="curve"/>
      <point x="1280" y="1285" type="line"/>
      <point x="1415" y="1285" type="line"/>
      <point x="1415" y="1355" type="line"/>
      <point x="980" y="1355" type="line"/>
      <point x="980" y="1285" type="line"/>
      <point x="1130" y="1285" type="line"/>
      <point x="1150" y="1265" type="line"/>
      <point x="1148" y="1050"/>
      <point x="1148" y="990"/>
      <point x="1150" y="520" type="curve" smooth="yes"/>
      <point x="1151" y="199"/>
      <point x="1000" y="90"/>
      <point x="786" y="90" type="curve"/>
      <point x="570" y="90"/>
      <point x="420" y="179"/>
      <point x="420" y="493" type="curve" smooth="yes"/>
      <point x="420" y="1265" type="line"/>
      <point x="420" y="1265"/>
      <point x="215" y="1265"/>
      <point x="215" y="1265" type="curve"/>
      <point x="215" y="510" type="line"/>
      <point x="215" y="99"/>
      <point x="438" y="-20"/>
    </contour>
    <contour>
      <point x="420" y="1265" type="line"/>
      <point x="440" y="1285" type="line"/>
      <point x="595" y="1285" type="line"/>
      <point x="595" y="1355" type="line"/>
      <point x="595" y="1355"/>
      <point x="40" y="1355"/>
      <point x="40" y="1355" type="curve"/>
      <point x="40" y="1285" type="line"/>
      <point x="195" y="1285" type="line"/>
      <point x="215" y="1265" type="line"/>
    </contour>
    <contour>
      <point x="727.5" y="1395.0" type="move" name="top"/>
    </contour>
  </outline>
</glyph>
<glyph name="V" format="2">
  <advance width="1399"/>
  <unicode hex="0056"/>
  <outline>
    <contour>
      <point x="1249" y="1265" type="curve"/>
      <point x="1141" y="1265" type="line"/>
      <point x="958" y="810"/>
      <point x="926" y="716"/>
      <point x="773" y="304" type="curve"/>
      <point x="753" y="304" type="line"/>
      <point x="346" y="1265" type="line"/>
      <point x="120" y="1265" type="line"/>
      <point x="679" y="-20" type="line"/>
      <point x="729" y="-20" type="line"/>
      <point x="1009" y="649"/>
      <point x="1032" y="705"/>
    </contour>
    <contour>
      <point x="1141" y="1265" type="line"/>
      <point x="1249" y="1265" type="line"/>
      <point x="1269" y="1285" type="line"/>
      <point x="1379" y="1285" type="line"/>
      <point x="1379" y="1355" type="line"/>
      <point x="1379" y="1355"/>
      <point x="981" y="1355"/>
      <point x="981" y="1355" type="curve"/>
      <point x="981" y="1285" type="line"/>
      <point x="1121" y="1285" type="line"/>
    </contour>
    <contour>
      <point x="120" y="1265" type="line"/>
      <point x="346" y="1265" type="line"/>
      <point x="366" y="1285" type="line"/>
      <point x="546" y="1285" type="line"/>
      <point x="546" y="1355" type="line"/>
      <point x="546" y="1355"/>
      <point x="0" y="1355"/>
      <point x="0" y="1355" type="curve"/>
      <point x="0" y="1285" type="line"/>
      <point x="100" y="1285" type="line"/>
    </contour>
  </outline>
</glyph>
<glyph name="W" format="2">
  <advance width="1929"/>
  <unicode hex="0057"/>
  <outline>
    <contour>
      <point x="1779" y="1265" type="curve"/>
      <point x="1671" y="1265" type="line"/>
      <point x="1516" y="810"/>
      <point x="1501" y="758"/>
      <point x="1356" y="346" type="curve"/>
      <point x="1336" y="346" type="line"/>
      <point x="1016" y="1265" type="line"/>
      <point x="790" y="1265" type="line"/>
      <point x="1259" y="-20" type="line"/>
      <point x="1309" y="-20" type="line"/>
      <point x="1561" y="649"/>
      <point x="1578" y="705"/>
    </contour>
    <contour>
      <point x="1671" y="1265" type="line"/>
      <point x="1779" y="1265" type="line"/>
      <point x="1799" y="1285" type="line"/>
      <point x="1909" y="1285" type="line"/>
      <point x="1909" y="1355" type="line"/>
      <point x="1909" y="1355"/>
      <point x="1511" y="1355"/>
      <point x="1511" y="1355" type="curve"/>
      <point x="1511" y="1285" type="line"/>
      <point x="1651" y="1285" type="line"/>
    </contour>
    <contour>
      <point x="790" y="1265" type="line"/>
      <point x="1016" y="1265" type="line"/>
      <point x="1036" y="1285" type="line"/>
      <point x="1196" y="1285" type="line"/>
      <point x="1196" y="1355" type="line"/>
      <point x="1196" y="1355"/>
      <point x="670" y="1355"/>
      <point x="670" y="1355" type="curve"/>
      <point x="670" y="1285" type="line"/>
      <point x="770" y="1285" type="line"/>
    </contour>
    <contour>
      <point x="1040" y="1018" type="line"/>
      <point x="932" y="1018" type="line"/>
      <point x="854" y="816"/>
      <point x="831" y="754"/>
      <point x="686" y="346" type="curve"/>
      <point x="666" y="346" type="line"/>
      <point x="346" y="1265" type="line"/>
      <point x="120" y="1265" type="line"/>
      <point x="589" y="-20" type="line"/>
      <point x="639" y="-20" type="line"/>
      <point x="825" y="453"/>
      <point x="885" y="608"/>
      <point x="949" y="775" type="curve"/>
      <point x="969" y="775" type="line"/>
    </contour>
    <contour>
      <point x="120" y="1265" type="line"/>
      <point x="346" y="1265" type="line"/>
      <point x="366" y="1285" type="line"/>
      <point x="526" y="1285" type="line"/>
      <point x="526" y="1355" type="line"/>
      <point x="526" y="1355"/>
      <point x="0" y="1355"/>
      <point x="0" y="1355" type="curve"/>
      <point x="0" y="1285" type="line"/>
      <point x="100" y="1285" type="line"/>
    </contour>
  </outline>
</glyph>
<glyph name="X" format="2">
  <advance width="1425"/>
  <unicode hex="0058"/>
  <outline>
    <contour>
      <point x="1090" y="1265" type="line"/>
      <point x="1218" y="1265" type="line"/>
      <point x="1238" y="1285" type="line"/>
      <point x="1398" y="1285" type="line"/>
      <point x="1398" y="1355" type="line"/>
      <point x="1398" y="1355"/>
      <point x="910" y="1355"/>
      <point x="910" y="1355" type="curve"/>
      <point x="910" y="1285" type="line"/>
      <point x="1070" y="1285" type="line"/>
    </contour>
    <contour>
      <point x="199" y="1265" type="line"/>
      <point x="455" y="1265" type="line"/>
      <point x="475" y="1285" type="line"/>
      <point x="645" y="1285" type="line"/>
      <point x="645" y="1355" type="line"/>
      <point x="645" y="1355"/>
      <point x="19" y="1355"/>
      <point x="19" y="1355" type="curve"/>
      <point x="19" y="1285" type="line"/>
      <point x="179" y="1285" type="line"/>
    </contour>
    <contour>
      <point x="1245" y="90" type="line"/>
      <point x="455" y="1265" type="line"/>
      <point x="199" y="1265" type="line"/>
      <point x="989" y="90" type="line"/>
    </contour>
    <contour>
      <point x="1218" y="1265" type="line"/>
      <point x="1090" y="1265" type="line"/>
      <point x="944" y="1086"/>
      <point x="912" y="1036"/>
      <point x="760" y="838" type="curve"/>
      <point x="740" y="838" type="line"/>
      <point x="664" y="750" type="line"/>
      <point x="140" y="90" type="line"/>
      <point x="268" y="90" type="line"/>
      <point x="412" y="272"/>
      <point x="508" y="400"/>
      <point x="642" y="578" type="curve"/>
      <point x="662" y="578" type="line"/>
      <point x="733" y="660" type="line"/>
    </contour>
    <contour>
      <point x="1245" y="90" type="line"/>
      <point x="989" y="90" type="line"/>
      <point x="969" y="70" type="line"/>
      <point x="799" y="70" type="line"/>
      <point x="799" y="0" type="line"/>
      <point x="799" y="0"/>
      <point x="1425" y="0"/>
      <point x="1425" y="0" type="curve"/>
      <point x="1425" y="70" type="line"/>
      <point x="1265" y="70" type="line"/>
    </contour>
    <contour>
      <point x="268" y="90" type="line"/>
      <point x="140" y="90" type="line"/>
      <point x="120" y="70" type="line"/>
      <point x="0" y="70" type="line"/>
      <point x="0" y="0" type="line"/>
      <point x="0" y="0"/>
      <point x="468" y="0"/>
      <point x="468" y="0" type="curve"/>
      <point x="468" y="70" type="line"/>
      <point x="288" y="70" type="line"/>
    </contour>
  </outline>
</glyph>
<glyph name="Y" format="2">
  <advance width="1425"/>
  <unicode hex="0059"/>
  <anchor x="712.5" y="1395" name="top"/>
  <outline>
    <contour>
      <point x="1130" y="1265" type="line"/>
      <point x="1238" y="1265" type="line"/>
      <point x="1258" y="1285" type="line"/>
      <point x="1398" y="1285" type="line"/>
      <point x="1398" y="1355" type="line"/>
      <point x="1398" y="1355"/>
      <point x="950" y="1355"/>
      <point x="950" y="1355" type="curve"/>
      <point x="950" y="1285" type="line"/>
      <point x="1110" y="1285" type="line"/>
    </contour>
    <contour>
      <point x="169" y="1265" type="line"/>
      <point x="415" y="1265" type="line"/>
      <point x="435" y="1285" type="line"/>
      <point x="585" y="1285" type="line"/>
      <point x="585" y="1355" type="line"/>
      <point x="585" y="1355"/>
      <point x="19" y="1355"/>
      <point x="19" y="1355" type="curve"/>
      <point x="19" y="1285" type="line"/>
      <point x="149" y="1285" type="line"/>
    </contour>
    <contour>
      <point x="169" y="1265" type="line"/>
      <point x="613" y="614" type="line"/>
      <point x="818" y="614" type="line"/>
      <point x="818" y="654" type="line"/>
      <point x="415" y="1265" type="line"/>
    </contour>
    <contour>
      <point x="1238" y="1265" type="line"/>
      <point x="1130" y="1265" type="line"/>
      <point x="1008" y="1092"/>
      <point x="972" y="1024"/>
      <point x="788" y="728" type="curve"/>
      <point x="768" y="728" type="line"/>
      <point x="768" y="614" type="line"/>
      <point x="818" y="614" type="line"/>
    </contour>
    <contour>
      <point x="818" y="90" type="line"/>
      <point x="818" y="614" type="line"/>
      <point x="818" y="614"/>
      <point x="613" y="614"/>
      <point x="613" y="614" type="curve"/>
      <point x="613" y="90" type="line"/>
    </contour>
    <contour>
      <point x="818" y="90" type="line"/>
      <point x="613" y="90" type="line"/>
      <point x="593" y="70" type="line"/>
      <point x="438" y="70" type="line"/>
      <point x="438" y="0" type="line"/>
      <point x="438" y="0"/>
      <point x="993" y="0"/>
      <point x="993" y="0" type="curve"/>
      <point x="993" y="70" type="line"/>
      <point x="838" y="70" type="line"/>
    </contour>
  </outline>
</glyph>
<glyph name="Z" format="2">
  <advance width="1190"/>
  <unicode hex="005A"/>
  <outline>
    <contour>
      <point x="1120" y="1285" type="line"/>
      <point x="840" y="1265" type="line"/>
      <point x="840" y="1245" type="line"/>
      <point x="30" y="70" type="line"/>
      <point x="310" y="90" type="line"/>
      <point x="310" y="110" type="line"/>
    </contour>
    <contour>
      <point x="840" y="1265" type="line"/>
      <point x="1120" y="1285" type="line"/>
      <point x="1120" y="1355" type="line"/>
      <point x="70" y="1355" type="line"/>
      <point x="70" y="970" type="line"/>
      <point x="140" y="970" type="line"/>
      <point x="140" y="1070" type="line"/>
      <point x="140" y="1240"/>
      <point x="193" y="1265"/>
      <point x="385" y="1265" type="curve" smooth="yes"/>
    </contour>
    <contour>
      <point x="310" y="90" type="line"/>
      <point x="30" y="70" type="line"/>
      <point x="30" y="0" type="line"/>
      <point x="1160" y="0" type="line"/>
      <point x="1160" y="415" type="line"/>
      <point x="1090" y="415" type="line"/>
      <point x="1090" y="285" type="line"/>
      <point x="1090" y="115"/>
      <point x="1037" y="90"/>
      <point x="845" y="90" type="curve" smooth="yes"/>
    </contour>
  </outline>
</glyph>
<glyph name="bracketleft" format="2">
  <advance width="560"/>
  <unicode hex="005B"/>
  <guideline x="594" y="-231" angle="0" identifier="9H1ovtX99A"/>
  <outline>
    <contour>
      <point x="132" y="-334" type="line"/>
      <point x="530" y="-334" type="line"/>
      <point x="530" y="-264" type="line"/>
      <point x="281" y="-264" type="line"/>
      <point x="261" y="-244" type="line"/>
      <point x="261" y="1162" type="line"/>
      <point x="281" y="1182" type="line"/>
      <point x="530" y="1182" type="line"/>
      <point x="530" y="1252" type="line"/>
      <point x="132" y="1252" type="line"/>
    </contour>
  </outline>
</glyph>
<glyph name="backslash" format="1">
  <advance width="475"/>
  <unicode hex="005C"/>
  <outline>
    <contour>
      <point x="465" y="-20" type="line"/>
      <point x="85" y="1375" type="line"/>
      <point x="10" y="1375" type="line"/>
      <point x="390" y="-20" type="line"/>
    </contour>
  </outline>
</glyph>
<glyph name="bracketright" format="2">
  <advance width="560"/>
  <unicode hex="005D"/>
  <guideline x="594" y="-231" angle="0" identifier="A3xu9I4I7J"/>
  <outline>
    <contour>
      <point x="428" y="1252" type="line"/>
      <point x="30" y="1252" type="line"/>
      <point x="30" y="1182" type="line"/>
      <point x="279" y="1182" type="line"/>
      <point x="299" y="1162" type="line"/>
      <point x="299" y="-244" type="line"/>
      <point x="279" y="-264" type="line"/>
      <point x="30" y="-264" type="line"/>
      <point x="30" y="-334" type="line"/>
      <point x="428" y="-334" type="line"/>
    </contour>
  </outline>
</glyph>
<glyph name="underscore" format="1">
  <advance width="1031"/>
  <unicode hex="005F"/>
  <outline>
    <contour>
      <point x="80" y="-165" type="line"/>
      <point x="951" y="-165" type="line"/>
      <point x="951" y="-95" type="line"/>
      <point x="80" y="-95" type="line"/>
    </contour>
  </outline>
</glyph>
<glyph name="grave" format="2">
  <advance width="570"/>
  <unicode hex="0060"/>
  <anchor x="285" y="959" name="_top"/>
  <outline>
    <contour>
      <point x="470" y="1016" type="line"/>
      <point x="40" y="1281" type="line"/>
      <point x="150" y="1395" type="line"/>
      <point x="530" y="1016" type="line"/>
    </contour>
  </outline>
</glyph>
<glyph name="a" format="1">
  <advance width="913.0"/>
  <unicode hex="0061"/>
  <outline>
    <contour>
      <point x="496" y="874"/>
      <point x="581" y="830"/>
      <point x="581" y="700" type="curve"/>
      <point x="581" y="590" type="line"/>
      <point x="326" y="485"/>
      <point x="70" y="405"/>
      <point x="70" y="185" type="curve"/>
      <point x="70" y="65"/>
      <point x="158" y="-20"/>
      <point x="294" y="-20" type="curve"/>
      <point x="446" y="-20"/>
      <point x="531" y="100"/>
      <point x="562" y="160" type="curve"/>
      <point x="581" y="160" type="line"/>
      <point x="581" y="116" type="line" smooth="yes"/>
      <point x="581" y="36"/>
      <point x="621" y="-20"/>
      <point x="700" y="-20" type="curve"/>
      <point x="776" y="-20"/>
      <point x="818" y="30"/>
      <point x="913" y="124" type="curve"/>
      <point x="889" y="180" type="line"/>
      <point x="854" y="142"/>
      <point x="829" y="110"/>
      <point x="798" y="110" type="curve"/>
      <point x="750" y="110"/>
      <point x="739" y="140"/>
      <point x="742" y="210" type="curve" smooth="yes"/>
      <point x="764" y="678" type="line" smooth="yes"/>
      <point x="773" y="870"/>
      <point x="642" y="939"/>
      <point x="455" y="939" type="curve"/>
      <point x="240" y="939"/>
      <point x="106" y="840"/>
      <point x="82" y="694" type="curve"/>
      <point x="94" y="668" type="line"/>
      <point x="270" y="688" type="line"/>
      <point x="306" y="810" type="line" smooth="yes"/>
      <point x="320" y="858"/>
      <point x="356" y="874"/>
      <point x="406" y="874" type="curve"/>
    </contour>
    <contour>
      <point x="581" y="495" type="line"/>
      <point x="581" y="256" type="line" smooth="yes"/>
      <point x="581" y="247"/>
      <point x="499" y="134"/>
      <point x="374" y="134" type="curve"/>
      <point x="294" y="134"/>
      <point x="252" y="168"/>
      <point x="252" y="245" type="curve"/>
      <point x="252" y="390"/>
      <point x="426" y="455"/>
      <point x="561" y="515" type="curve"/>
    </contour>
    <contour>
      <point x="447.0" y="959.0" type="move" name="top"/>
    </contour>
  </outline>
</glyph>
<glyph name="b" format="1">
  <advance width="1040"/>
  <unicode hex="0062"/>
  <outline>
    <contour>
      <point x="332" y="780" type="line"/>
      <point x="332" y="780" type="line"/>
      <point x="332" y="1355" type="line"/>
      <point x="312" y="1375" type="line"/>
      <point x="10" y="1241" type="line"/>
      <point x="37" y="1186" type="line"/>
      <point x="137" y="1227" type="line" smooth="yes"/>
      <point x="157" y="1207" type="line"/>
      <point x="157" y="0" type="line"/>
      <point x="232" y="0" type="line"/>
      <point x="232" y="135" type="line"/>
      <point x="332" y="135" type="line"/>
    </contour>
    <contour>
      <point x="252" y="135" type="line"/>
      <point x="326" y="58"/>
      <point x="406" y="-20"/>
      <point x="558" y="-20" type="curve" smooth="yes"/>
      <point x="772" y="-20"/>
      <point x="970" y="180"/>
      <point x="970" y="467" type="curve" smooth="yes"/>
      <point x="970" y="778"/>
      <point x="810" y="939"/>
      <point x="620" y="939" type="curve" smooth="yes"/>
      <point x="492" y="939"/>
      <point x="418" y="866"/>
      <point x="352" y="780" type="curve"/>
      <point x="332" y="780" type="line"/>
      <point x="332" y="682" type="line"/>
      <point x="358" y="726"/>
      <point x="438" y="824"/>
      <point x="532" y="824" type="curve"/>
      <point x="694" y="824"/>
      <point x="779" y="648"/>
      <point x="779" y="390" type="curve" smooth="yes"/>
      <point x="779" y="200"/>
      <point x="715" y="49"/>
      <point x="565" y="49" type="curve" smooth="yes"/>
      <point x="414" y="49"/>
      <point x="332" y="205"/>
      <point x="332" y="365" type="curve"/>
      <point x="252" y="365" type="line"/>
    </contour>
  </outline>
</glyph>
<glyph name="c" format="2">
  <advance width="882"/>
  <unicode hex="0063"/>
  <guideline x="286" y="140" angle="0" identifier="iu2zgl1psB"/>
  <anchor x="424" y="959" name="top"/>
  <anchor x="424" y="-20" name="bottom"/>
  <outline>
    <contour>
      <point x="477" y="939" type="curve"/>
      <point x="175" y="939"/>
      <point x="40" y="675"/>
      <point x="40" y="443" type="curve" smooth="yes"/>
      <point x="40" y="185"/>
      <point x="187" y="-20"/>
      <point x="440" y="-20" type="curve"/>
      <point x="705" y="-20"/>
      <point x="798" y="252"/>
      <point x="812" y="366" type="curve"/>
      <point x="771" y="396" type="line"/>
      <point x="735" y="300"/>
      <point x="689" y="150"/>
      <point x="490" y="150" type="curve"/>
      <point x="300" y="150"/>
      <point x="185" y="310"/>
      <point x="185" y="528" type="curve"/>
      <point x="185" y="734"/>
      <point x="306" y="872"/>
      <point x="451" y="872" type="curve"/>
      <point x="501" y="872"/>
      <point x="532" y="855"/>
      <point x="551" y="808" type="curve" smooth="yes"/>
      <point x="607" y="668" type="line"/>
      <point x="783" y="688" type="line"/>
      <point x="795" y="714" type="line"/>
      <point x="768" y="821"/>
      <point x="674" y="939"/>
    </contour>
  </outline>
</glyph>
<glyph name="d" format="2">
  <advance width="1020"/>
  <unicode hex="0064"/>
  <guideline x="678" y="196" angle="90" identifier="XcE5rWFDpf"/>
  <outline>
    <contour>
      <point x="688" y="0" type="line"/>
      <point x="708" y="-20" type="line"/>
      <point x="1000" y="113" type="line"/>
      <point x="979" y="167" type="line"/>
      <point x="883" y="132" type="line" smooth="yes"/>
      <point x="863" y="152" type="line"/>
      <point x="863" y="1355" type="line"/>
      <point x="843" y="1375" type="line"/>
      <point x="541" y="1241" type="line"/>
      <point x="568" y="1186" type="line"/>
      <point x="668" y="1227" type="line" smooth="yes"/>
      <point x="688" y="1207" type="line"/>
      <point x="688" y="874" type="line"/>
      <point x="688" y="139" type="line"/>
      <point x="698" y="139" type="line"/>
    </contour>
    <contour>
      <point x="710" y="874" type="line"/>
      <point x="668" y="874" type="line"/>
      <point x="630" y="904"/>
      <point x="570" y="939"/>
      <point x="462" y="939" type="curve" smooth="yes"/>
      <point x="248" y="939"/>
      <point x="50" y="739"/>
      <point x="50" y="452" type="curve" smooth="yes"/>
      <point x="50" y="141"/>
      <point x="210" y="-20"/>
      <point x="400" y="-20" type="curve" smooth="yes"/>
      <point x="528" y="-20"/>
      <point x="612" y="53"/>
      <point x="678" y="139" type="curve"/>
      <point x="688" y="139" type="line"/>
      <point x="688" y="227" type="line"/>
      <point x="662" y="183"/>
      <point x="582" y="95"/>
      <point x="488" y="95" type="curve"/>
      <point x="326" y="95"/>
      <point x="241" y="271"/>
      <point x="241" y="529" type="curve" smooth="yes"/>
      <point x="241" y="719"/>
      <point x="305" y="870"/>
      <point x="455" y="870" type="curve" smooth="yes"/>
      <point x="606" y="870"/>
      <point x="688" y="694"/>
      <point x="688" y="554" type="curve"/>
      <point x="710" y="554" type="line"/>
    </contour>
  </outline>
</glyph>
<glyph name="e" format="1">
  <advance width="892"/>
  <unicode hex="0065"/>
  <outline>
    <contour>
      <point x="424" y="862" type="curve"/>
      <point x="541" y="862"/>
      <point x="600" y="780"/>
      <point x="600" y="667" type="curve"/>
      <point x="580" y="647" type="line"/>
      <point x="174" y="637" type="line"/>
      <point x="174" y="572" type="line"/>
      <point x="798" y="572" type="line"/>
      <point x="798" y="860"/>
      <point x="610" y="939"/>
      <point x="450" y="939" type="curve"/>
      <point x="175" y="939"/>
      <point x="40" y="670"/>
      <point x="40" y="443" type="curve" smooth="yes"/>
      <point x="40" y="185"/>
      <point x="187" y="-20"/>
      <point x="440" y="-20" type="curve"/>
      <point x="705" y="-20"/>
      <point x="798" y="252"/>
      <point x="812" y="366" type="curve"/>
      <point x="771" y="396" type="line"/>
      <point x="730" y="281"/>
      <point x="679" y="150"/>
      <point x="492" y="150" type="curve"/>
      <point x="283" y="150"/>
      <point x="185" y="334"/>
      <point x="185" y="536" type="curve"/>
      <point x="185" y="778"/>
      <point x="320" y="862"/>
    </contour>
    <contour>
      <point x="421" y="959" type="move" name="top"/>
    </contour>
  </outline>
</glyph>
<glyph name="f" format="1">
  <advance width="637"/>
  <unicode hex="0066"/>
  <outline>
    <contour>
      <point x="40" y="844" type="line"/>
      <point x="629" y="844" type="line"/>
      <point x="629" y="919" type="line"/>
      <point x="40" y="919" type="line"/>
    </contour>
    <contour>
      <point x="747" y="1214" type="line"/>
      <point x="777" y="1355" type="line"/>
      <point x="757" y="1375" type="line"/>
      <point x="526" y="1362" type="line" smooth="yes"/>
      <point x="329" y="1351"/>
      <point x="276" y="1166"/>
      <point x="198" y="919" type="curve"/>
      <point x="198" y="68" type="line"/>
      <point x="373" y="68" type="line"/>
      <point x="373" y="919" type="line"/>
      <point x="360" y="1100" type="line" smooth="yes"/>
      <point x="355" y="1167"/>
      <point x="376" y="1214"/>
      <point x="468" y="1214" type="curve"/>
    </contour>
    <contour>
      <point x="198" y="80" type="line"/>
      <point x="178" y="60" type="line"/>
      <point x="55" y="60" type="line"/>
      <point x="55" y="0" type="line"/>
      <point x="546" y="0" type="line"/>
      <point x="546" y="60" type="line"/>
      <point x="393" y="60" type="line"/>
      <point x="373" y="80" type="line"/>
    </contour>
  </outline>
</glyph>
<glyph name="g" format="1">
  <advance width="976"/>
  <unicode hex="0067"/>
  <outline>
    <contour>
      <point x="40" y="-210" type="line"/>
      <point x="40" y="-318"/>
      <point x="90" y="-450"/>
      <point x="349" y="-450" type="curve" smooth="yes"/>
      <point x="632" y="-450"/>
      <point x="926" y="-258"/>
      <point x="926" y="-49" type="curve" smooth="yes"/>
      <point x="926" y="101"/>
      <point x="817" y="135"/>
      <point x="699" y="135" type="curve"/>
      <point x="699" y="135"/>
      <point x="437" y="135"/>
      <point x="385" y="135" type="curve"/>
      <point x="321" y="135"/>
      <point x="290" y="150"/>
      <point x="290" y="185" type="curve" smooth="yes"/>
      <point x="290" y="210"/>
      <point x="301" y="227"/>
      <point x="316" y="247" type="curve" smooth="yes"/>
      <point x="370" y="320" type="line"/>
      <point x="370" y="360" type="line"/>
      <point x="300" y="360" type="line"/>
      <point x="300" y="323" type="line"/>
      <point x="133" y="135" type="line"/>
      <point x="123" y="105" type="line"/>
      <point x="123" y="48"/>
      <point x="140" y="20"/>
      <point x="200" y="0" type="curve"/>
      <point x="200" y="-20" type="line"/>
      <point x="50" y="-180" type="line"/>
    </contour>
    <contour>
      <point x="700" y="-20" type="curve"/>
      <point x="783" y="-20"/>
      <point x="850" y="-20"/>
      <point x="850" y="-84" type="curve" smooth="yes"/>
      <point x="850" y="-193"/>
      <point x="691" y="-291"/>
      <point x="430" y="-291" type="curve" smooth="yes"/>
      <point x="263" y="-291"/>
      <point x="196" y="-241"/>
      <point x="196" y="-160" type="curve" smooth="yes"/>
      <point x="196" y="-135"/>
      <point x="206" y="-120"/>
      <point x="225" y="-90" type="curve" smooth="yes"/>
      <point x="269" y="-20" type="line"/>
      <point x="285" y="-20"/>
      <point x="700" y="-20"/>
    </contour>
    <contour>
      <point x="126" y="621" type="curve" smooth="yes"/>
      <point x="126" y="411"/>
      <point x="302" y="302"/>
      <point x="469" y="302" type="curve" smooth="yes"/>
      <point x="636" y="302"/>
      <point x="812" y="421"/>
      <point x="812" y="621" type="curve" smooth="yes"/>
      <point x="812" y="834"/>
      <point x="636" y="939"/>
      <point x="469" y="939" type="curve" smooth="yes"/>
      <point x="302" y="939"/>
      <point x="126" y="834"/>
    </contour>
    <contour>
      <point x="312" y="674" type="curve" smooth="yes"/>
      <point x="312" y="804"/>
      <point x="363" y="874"/>
      <point x="440" y="874" type="curve"/>
      <point x="550" y="874"/>
      <point x="626" y="764"/>
      <point x="626" y="569" type="curve" smooth="yes"/>
      <point x="626" y="451"/>
      <point x="586" y="367"/>
      <point x="496" y="367" type="curve" smooth="yes"/>
      <point x="397" y="367"/>
      <point x="312" y="464"/>
    </contour>
    <contour>
      <point x="561" y="824" type="line"/>
      <point x="740" y="824" type="line"/>
      <point x="740" y="844" type="line"/>
      <point x="923" y="844" type="line"/>
      <point x="923" y="919" type="line"/>
      <point x="561" y="919" type="line"/>
    </contour>
  </outline>
</glyph>
<glyph name="h" format="2">
  <advance width="1035"/>
  <unicode hex="0068"/>
  <outline>
    <contour>
      <point x="47" y="1186" type="line"/>
      <point x="147" y="1227" type="line" smooth="yes"/>
      <point x="167" y="1207" type="line"/>
      <point x="167" y="0" type="line"/>
      <point x="342" y="0" type="line"/>
      <point x="342" y="1355" type="line"/>
      <point x="322" y="1375" type="line"/>
      <point x="20" y="1241" type="line"/>
    </contour>
    <contour>
      <point x="332" y="692" type="line"/>
      <point x="342" y="692" type="line"/>
      <point x="363" y="728"/>
      <point x="442" y="824"/>
      <point x="548" y="824" type="curve" smooth="yes"/>
      <point x="654" y="824"/>
      <point x="697" y="748"/>
      <point x="697" y="651" type="curve" smooth="yes"/>
      <point x="697" y="0" type="line"/>
      <point x="872" y="0" type="line"/>
      <point x="872" y="682" type="line" smooth="yes"/>
      <point x="872" y="858"/>
      <point x="759" y="939"/>
      <point x="635" y="939" type="curve" smooth="yes"/>
      <point x="485" y="939"/>
      <point x="414" y="855"/>
      <point x="362" y="785" type="curve"/>
      <point x="332" y="785" type="line"/>
    </contour>
    <contour>
      <point x="697" y="80" type="line"/>
      <point x="677" y="60" type="line"/>
      <point x="564" y="60" type="line"/>
      <point x="564" y="0" type="line"/>
      <point x="1005" y="0" type="line"/>
      <point x="1005" y="60" type="line"/>
      <point x="892" y="60" type="line"/>
      <point x="872" y="80" type="line"/>
    </contour>
    <contour>
      <point x="167" y="80" type="line"/>
      <point x="147" y="60" type="line"/>
      <point x="24" y="60" type="line"/>
      <point x="24" y="0" type="line"/>
      <point x="475" y="0" type="line"/>
      <point x="475" y="60" type="line"/>
      <point x="362" y="60" type="line"/>
      <point x="342" y="80" type="line"/>
    </contour>
  </outline>
</glyph>
<glyph name="i" format="2">
  <advance width="526"/>
  <unicode hex="0069"/>
  <guideline x="368" y="1045" angle="90" identifier="TdMPu7Idw0"/>
  <guideline x="193" y="891" angle="90" identifier="q7yx0Z7EPm"/>
  <outline>
    <contour>
      <point x="183" y="80" type="line"/>
      <point x="163" y="60" type="line"/>
      <point x="40" y="60" type="line"/>
      <point x="40" y="0" type="line"/>
      <point x="491" y="0" type="line"/>
      <point x="491" y="60" type="line"/>
      <point x="378" y="60" type="line"/>
      <point x="358" y="80" type="line"/>
    </contour>
    <contour>
      <point x="160" y="1157" type="line"/>
      <point x="358" y="1157" type="line"/>
      <point x="358" y="1355" type="line"/>
      <point x="160" y="1355" type="line"/>
    </contour>
    <contour>
      <point x="163" y="788" type="line" smooth="yes"/>
      <point x="183" y="768" type="line"/>
      <point x="183" y="0" type="line"/>
      <point x="358" y="0" type="line"/>
      <point x="358" y="919" type="line"/>
      <point x="338" y="939" type="line"/>
      <point x="43" y="805" type="line"/>
      <point x="70" y="750" type="line"/>
    </contour>
  </outline>
</glyph>
<glyph name="j" format="2">
  <advance width="501"/>
  <unicode hex="006A"/>
  <guideline x="396" y="997" angle="90" identifier="U68u1t3CJI"/>
  <guideline x="220" y="785" angle="90" identifier="oC4gRVj4Nb"/>
  <outline>
    <contour>
      <point x="361" y="919" type="line"/>
      <point x="341" y="939" type="line"/>
      <point x="31" y="799" type="line"/>
      <point x="58" y="744" type="line"/>
      <point x="151" y="782" type="line" smooth="yes"/>
      <point x="171" y="762" type="line"/>
      <point x="183" y="-130" type="line" smooth="yes"/>
      <point x="185" y="-267"/>
      <point x="137" y="-279"/>
      <point x="43" y="-279" type="curve"/>
      <point x="-120" y="-279" type="line"/>
      <point x="-150" y="-420" type="line"/>
      <point x="-129" y="-440" type="line"/>
      <point x="-5" y="-431" type="line" smooth="yes"/>
      <point x="135" y="-421"/>
      <point x="338" y="-198"/>
      <point x="343" y="49" type="curve"/>
    </contour>
    <contour>
      <point x="161" y="1157" type="line"/>
      <point x="359" y="1157" type="line"/>
      <point x="359" y="1355" type="line"/>
      <point x="161" y="1355" type="line"/>
    </contour>
  </outline>
</glyph>
<glyph name="k" format="2">
  <advance width="962"/>
  <unicode hex="006B"/>
  <outline>
    <contour>
      <point x="47" y="1186" type="line"/>
      <point x="147" y="1227" type="line" smooth="yes"/>
      <point x="167" y="1207" type="line"/>
      <point x="167" y="0" type="line"/>
      <point x="342" y="0" type="line"/>
      <point x="342" y="1355" type="line"/>
      <point x="322" y="1375" type="line"/>
      <point x="20" y="1241" type="line"/>
    </contour>
    <contour>
      <point x="167" y="80" type="line"/>
      <point x="147" y="60" type="line"/>
      <point x="24" y="60" type="line"/>
      <point x="24" y="0" type="line"/>
      <point x="475" y="0" type="line"/>
      <point x="475" y="60" type="line"/>
      <point x="362" y="60" type="line"/>
      <point x="342" y="80" type="line"/>
    </contour>
    <contour>
      <point x="962" y="60" type="line"/>
      <point x="906" y="60" type="line"/>
      <point x="876" y="80" type="line"/>
      <point x="496" y="582" type="line"/>
      <point x="638" y="695"/>
      <point x="673" y="724"/>
      <point x="830" y="859" type="curve"/>
      <point x="952" y="859" type="line"/>
      <point x="952" y="919" type="line"/>
      <point x="569" y="919" type="line"/>
      <point x="569" y="859" type="line"/>
      <point x="670" y="859" type="line"/>
      <point x="690" y="839" type="line"/>
      <point x="547" y="725"/>
      <point x="522" y="705"/>
      <point x="362" y="555" type="curve"/>
      <point x="322" y="555" type="line"/>
      <point x="322" y="490" type="line"/>
      <point x="362" y="490" type="line"/>
      <point x="659" y="80" type="line"/>
      <point x="639" y="60" type="line"/>
      <point x="550" y="60" type="line"/>
      <point x="550" y="0" type="line"/>
      <point x="962" y="0" type="line"/>
    </contour>
  </outline>
</glyph>
<glyph name="l" format="2">
  <advance width="485"/>
  <unicode hex="006C"/>
  <outline>
    <contour>
      <point x="167" y="80" type="line"/>
      <point x="147" y="60" type="line"/>
      <point x="24" y="60" type="line"/>
      <point x="24" y="0" type="line"/>
      <point x="475" y="0" type="line"/>
      <point x="475" y="60" type="line"/>
      <point x="362" y="60" type="line"/>
      <point x="342" y="80" type="line"/>
    </contour>
    <contour>
      <point x="47" y="1186" type="line"/>
      <point x="147" y="1227" type="line" smooth="yes"/>
      <point x="167" y="1207" type="line"/>
      <point x="167" y="0" type="line"/>
      <point x="342" y="0" type="line"/>
      <point x="342" y="1355" type="line"/>
      <point x="322" y="1375" type="line"/>
      <point x="20" y="1241" type="line"/>
    </contour>
  </outline>
</glyph>
<glyph name="m" format="1">
  <advance width="1581"/>
  <unicode hex="006D"/>
  <outline>
    <contour>
      <point x="183" y="80" type="line"/>
      <point x="163" y="60" type="line"/>
      <point x="40" y="60" type="line"/>
      <point x="40" y="0" type="line"/>
      <point x="491" y="0" type="line"/>
      <point x="491" y="60" type="line"/>
      <point x="378" y="60" type="line"/>
      <point x="358" y="80" type="line"/>
    </contour>
    <contour>
      <point x="713" y="80" type="line"/>
      <point x="693" y="60" type="line"/>
      <point x="580" y="60" type="line"/>
      <point x="580" y="0" type="line"/>
      <point x="1022" y="0" type="line"/>
      <point x="1022" y="60" type="line"/>
      <point x="909" y="60" type="line"/>
      <point x="889" y="80" type="line"/>
    </contour>
    <contour>
      <point x="358" y="919" type="line"/>
      <point x="338" y="939" type="line"/>
      <point x="43" y="805" type="line"/>
      <point x="70" y="750" type="line"/>
      <point x="163" y="788" type="line" smooth="yes"/>
      <point x="183" y="768" type="line"/>
      <point x="183" y="0" type="line"/>
      <point x="358" y="0" type="line"/>
      <point x="358" y="692" type="line"/>
      <point x="379" y="728"/>
      <point x="458" y="824"/>
      <point x="564" y="824" type="curve" smooth="yes"/>
      <point x="670" y="824"/>
      <point x="713" y="748"/>
      <point x="713" y="651" type="curve" smooth="yes"/>
      <point x="713" y="0" type="line"/>
      <point x="889" y="0" type="line"/>
      <point x="889" y="682" type="line" smooth="yes"/>
      <point x="889" y="858"/>
      <point x="775" y="939"/>
      <point x="651" y="939" type="curve" smooth="yes"/>
      <point x="501" y="939"/>
      <point x="420" y="850"/>
      <point x="368" y="780" type="curve"/>
      <point x="348" y="780" type="line"/>
    </contour>
    <contour>
      <point x="874" y="692" type="line"/>
      <point x="888" y="692" type="line"/>
      <point x="909" y="728"/>
      <point x="988" y="824"/>
      <point x="1094" y="824" type="curve" smooth="yes"/>
      <point x="1200" y="824"/>
      <point x="1243" y="748"/>
      <point x="1243" y="651" type="curve" smooth="yes"/>
      <point x="1243" y="0" type="line"/>
      <point x="1419" y="0" type="line"/>
      <point x="1419" y="682" type="line" smooth="yes"/>
      <point x="1419" y="858"/>
      <point x="1305" y="939"/>
      <point x="1181" y="939" type="curve" smooth="yes"/>
      <point x="1031" y="939"/>
      <point x="947" y="850"/>
      <point x="895" y="780" type="curve"/>
      <point x="874" y="780" type="line"/>
    </contour>
    <contour>
      <point x="1243" y="80" type="line"/>
      <point x="1223" y="60" type="line"/>
      <point x="1110" y="60" type="line"/>
      <point x="1110" y="0" type="line"/>
      <point x="1551" y="0" type="line"/>
      <point x="1551" y="60" type="line"/>
      <point x="1439" y="60" type="line"/>
      <point x="1419" y="80" type="line"/>
    </contour>
  </outline>
</glyph>
<glyph name="n" format="2">
  <advance width="1052"/>
  <unicode hex="006E"/>
  <anchor x="526" y="959" name="top"/>
  <outline>
    <contour>
      <point x="183" y="80" type="line"/>
      <point x="163" y="60" type="line"/>
      <point x="40" y="60" type="line"/>
      <point x="40" y="0" type="line"/>
      <point x="491" y="0" type="line"/>
      <point x="491" y="60" type="line"/>
      <point x="378" y="60" type="line"/>
      <point x="358" y="80" type="line"/>
    </contour>
    <contour>
      <point x="713" y="80" type="line"/>
      <point x="693" y="60" type="line"/>
      <point x="580" y="60" type="line"/>
      <point x="580" y="0" type="line"/>
      <point x="1022" y="0" type="line"/>
      <point x="1022" y="60" type="line"/>
      <point x="909" y="60" type="line"/>
      <point x="889" y="80" type="line"/>
    </contour>
    <contour>
      <point x="361" y="919" type="line"/>
      <point x="341" y="939" type="line"/>
      <point x="43" y="805" type="line"/>
      <point x="70" y="750" type="line"/>
      <point x="163" y="788" type="line" smooth="yes"/>
      <point x="183" y="768" type="line"/>
      <point x="183" y="0" type="line"/>
      <point x="358" y="0" type="line"/>
      <point x="358" y="692" type="line"/>
      <point x="379" y="728"/>
      <point x="458" y="824"/>
      <point x="564" y="824" type="curve" smooth="yes"/>
      <point x="670" y="824"/>
      <point x="713" y="748"/>
      <point x="713" y="651" type="curve" smooth="yes"/>
      <point x="713" y="0" type="line"/>
      <point x="889" y="0" type="line"/>
      <point x="889" y="682" type="line" smooth="yes"/>
      <point x="889" y="858"/>
      <point x="775" y="939"/>
      <point x="651" y="939" type="curve" smooth="yes"/>
      <point x="501" y="939"/>
      <point x="420" y="850"/>
      <point x="368" y="780" type="curve"/>
      <point x="348" y="780" type="line"/>
    </contour>
  </outline>
</glyph>
<glyph name="o" format="2">
  <advance width="996"/>
  <unicode hex="006F"/>
  <guideline x="481" y="835" angle="90" identifier="gfpG149ONF"/>
  <anchor x="493" y="959" name="top"/>
  <outline>
    <contour>
      <point x="50" y="461" type="curve" smooth="yes"/>
      <point x="50" y="181"/>
      <point x="226" y="-20"/>
      <point x="493" y="-20" type="curve" smooth="yes"/>
      <point x="760" y="-20"/>
      <point x="936" y="191"/>
      <point x="936" y="461" type="curve" smooth="yes"/>
      <point x="936" y="744"/>
      <point x="760" y="939"/>
      <point x="493" y="939" type="curve" smooth="yes"/>
      <point x="226" y="939"/>
      <point x="50" y="734"/>
    </contour>
    <contour>
      <point x="251" y="514" type="curve" smooth="yes"/>
      <point x="251" y="724"/>
      <point x="327" y="869"/>
      <point x="472" y="869" type="curve" smooth="yes"/>
      <point x="657" y="869"/>
      <point x="735" y="654"/>
      <point x="735" y="409" type="curve" smooth="yes"/>
      <point x="735" y="213"/>
      <point x="671" y="50"/>
      <point x="513" y="50" type="curve"/>
      <point x="336" y="50"/>
      <point x="251" y="252"/>
    </contour>
  </outline>
</glyph>
<glyph name="p" format="2">
  <advance width="1033"/>
  <unicode hex="0070"/>
  <outline>
    <contour>
      <point x="325" y="780" type="line"/>
      <point x="315" y="780" type="line"/>
      <point x="328" y="919" type="line"/>
      <point x="308" y="939" type="line"/>
      <point x="10" y="805" type="line"/>
      <point x="37" y="750" type="line"/>
      <point x="130" y="788" type="line" smooth="yes"/>
      <point x="150" y="768" type="line"/>
      <point x="150" y="-440" type="line"/>
      <point x="325" y="-440" type="line"/>
    </contour>
    <contour>
      <point x="303" y="45" type="line"/>
      <point x="345" y="45" type="line"/>
      <point x="383" y="15"/>
      <point x="443" y="-20"/>
      <point x="551" y="-20" type="curve" smooth="yes"/>
      <point x="765" y="-20"/>
      <point x="963" y="180"/>
      <point x="963" y="467" type="curve" smooth="yes"/>
      <point x="963" y="778"/>
      <point x="803" y="939"/>
      <point x="613" y="939" type="curve" smooth="yes"/>
      <point x="485" y="939"/>
      <point x="401" y="866"/>
      <point x="335" y="780" type="curve"/>
      <point x="325" y="780" type="line"/>
      <point x="325" y="692" type="line"/>
      <point x="351" y="736"/>
      <point x="431" y="824"/>
      <point x="525" y="824" type="curve"/>
      <point x="687" y="824"/>
      <point x="772" y="648"/>
      <point x="772" y="390" type="curve" smooth="yes"/>
      <point x="772" y="200"/>
      <point x="708" y="49"/>
      <point x="558" y="49" type="curve" smooth="yes"/>
      <point x="407" y="49"/>
      <point x="325" y="225"/>
      <point x="325" y="365" type="curve"/>
      <point x="303" y="365" type="line"/>
    </contour>
    <contour>
      <point x="150" y="-360" type="line"/>
      <point x="130" y="-380" type="line"/>
      <point x="17" y="-380" type="line"/>
      <point x="17" y="-440" type="line"/>
      <point x="488" y="-440" type="line"/>
      <point x="488" y="-380" type="line"/>
      <point x="345" y="-380" type="line"/>
      <point x="325" y="-360" type="line"/>
    </contour>
  </outline>
</glyph>
<glyph name="q" format="2">
  <advance width="1016"/>
  <unicode hex="0071"/>
  <outline>
    <contour>
      <point x="698" y="-360" type="line"/>
      <point x="678" y="-380" type="line"/>
      <point x="535" y="-380" type="line"/>
      <point x="535" y="-440" type="line"/>
      <point x="1006" y="-440" type="line"/>
      <point x="1006" y="-380" type="line"/>
      <point x="893" y="-380" type="line"/>
      <point x="873" y="-360" type="line"/>
    </contour>
    <contour>
      <point x="698" y="139" type="line"/>
      <point x="698" y="-440" type="line"/>
      <point x="873" y="-440" type="line"/>
      <point x="873" y="919" type="line"/>
      <point x="798" y="919" type="line"/>
      <point x="798" y="784" type="line"/>
      <point x="698" y="784" type="line"/>
      <point x="698" y="139" type="line"/>
    </contour>
    <contour>
      <point x="778" y="784" type="line"/>
      <point x="704" y="861"/>
      <point x="624" y="939"/>
      <point x="472" y="939" type="curve" smooth="yes"/>
      <point x="258" y="939"/>
      <point x="60" y="739"/>
      <point x="60" y="452" type="curve" smooth="yes"/>
      <point x="60" y="141"/>
      <point x="220" y="-20"/>
      <point x="410" y="-20" type="curve" smooth="yes"/>
      <point x="538" y="-20"/>
      <point x="612" y="53"/>
      <point x="678" y="139" type="curve"/>
      <point x="698" y="139" type="line"/>
      <point x="698" y="237" type="line"/>
      <point x="672" y="193"/>
      <point x="592" y="95"/>
      <point x="498" y="95" type="curve"/>
      <point x="336" y="95"/>
      <point x="251" y="271"/>
      <point x="251" y="529" type="curve" smooth="yes"/>
      <point x="251" y="719"/>
      <point x="315" y="870"/>
      <point x="465" y="870" type="curve" smooth="yes"/>
      <point x="626" y="870"/>
      <point x="698" y="714"/>
      <point x="698" y="554" type="curve"/>
      <point x="778" y="554" type="line"/>
    </contour>
  </outline>
</glyph>
<glyph name="r" format="2">
  <advance width="695"/>
  <unicode hex="0072"/>
  <guideline x="375" y="883" angle="90" identifier="7CHuzzTjEB"/>
  <outline>
    <contour>
      <point x="358" y="0" type="line"/>
      <point x="358" y="642" type="line"/>
      <point x="380" y="700"/>
      <point x="420" y="778"/>
      <point x="547" y="778" type="curve"/>
      <point x="645" y="778" type="line"/>
      <point x="675" y="919" type="line"/>
      <point x="655" y="939" type="line"/>
      <point x="564" y="931" type="line" smooth="yes"/>
      <point x="454" y="921"/>
      <point x="402" y="830"/>
      <point x="368" y="745" type="curve"/>
      <point x="348" y="745" type="line"/>
      <point x="368" y="919" type="line"/>
      <point x="348" y="939" type="line"/>
      <point x="43" y="805" type="line"/>
      <point x="70" y="750" type="line"/>
      <point x="163" y="788" type="line" smooth="yes"/>
      <point x="183" y="768" type="line"/>
      <point x="183" y="0" type="line"/>
    </contour>
    <contour>
      <point x="183" y="80" type="line"/>
      <point x="163" y="60" type="line"/>
      <point x="40" y="60" type="line"/>
      <point x="40" y="0" type="line"/>
      <point x="511" y="0" type="line"/>
      <point x="511" y="60" type="line"/>
      <point x="378" y="60" type="line"/>
      <point x="358" y="80" type="line"/>
    </contour>
  </outline>
</glyph>
<glyph name="s" format="2">
  <advance width="800"/>
  <unicode hex="0073"/>
  <guideline x="567" y="979" angle="90" identifier="UXOoud2I3w"/>
  <guideline x="135" y="71" angle="90" identifier="FC6iD8Fbyc"/>
  <guideline x="340" y="784" angle="90" identifier="TD1klZO6Fl"/>
  <outline>
    <contour>
      <point x="652" y="643" type="line"/>
      <point x="652" y="939" type="line"/>
      <point x="587" y="939" type="line"/>
      <point x="587" y="900" type="line"/>
      <point x="567" y="900" type="line"/>
      <point x="525" y="915"/>
      <point x="460" y="939"/>
      <point x="381" y="939" type="curve"/>
      <point x="218" y="939"/>
      <point x="105" y="832"/>
      <point x="105" y="691" type="curve" smooth="yes"/>
      <point x="105" y="536"/>
      <point x="199" y="472"/>
      <point x="336" y="394" type="curve" smooth="yes"/>
      <point x="444" y="333"/>
      <point x="560" y="288"/>
      <point x="560" y="175" type="curve"/>
      <point x="560" y="95"/>
      <point x="505" y="50"/>
      <point x="420" y="50" type="curve"/>
      <point x="262" y="50"/>
      <point x="165" y="168"/>
      <point x="165" y="295" type="curve"/>
      <point x="165" y="334" type="line"/>
      <point x="100" y="334" type="line"/>
      <point x="100" y="0" type="line"/>
      <point x="165" y="0" type="line"/>
      <point x="165" y="50" type="line"/>
      <point x="185" y="50" type="line"/>
      <point x="215" y="30"/>
      <point x="290" y="-20"/>
      <point x="420" y="-20" type="curve"/>
      <point x="595" y="-20"/>
      <point x="720" y="60"/>
      <point x="720" y="235" type="curve"/>
      <point x="720" y="400"/>
      <point x="606" y="474"/>
      <point x="410" y="574" type="curve" smooth="yes"/>
      <point x="301" y="630"/>
      <point x="250" y="670"/>
      <point x="250" y="748" type="curve"/>
      <point x="250" y="825"/>
      <point x="300" y="869"/>
      <point x="390" y="869" type="curve"/>
      <point x="504" y="869"/>
      <point x="587" y="795"/>
      <point x="587" y="705" type="curve"/>
      <point x="587" y="643" type="line"/>
    </contour>
  </outline>
</glyph>
<glyph name="t" format="2">
  <advance width="599"/>
  <unicode hex="0074"/>
  <guideline x="320" y="1167" angle="0" identifier="LvtjcGoQDp"/>
  <outline>
    <contour>
      <point x="218" y="844" type="line"/>
      <point x="526" y="844" type="line"/>
      <point x="526" y="919" type="line"/>
      <point x="218" y="919" type="line"/>
    </contour>
    <contour>
      <point x="335" y="1127" type="line"/>
      <point x="315" y="1127" type="line"/>
      <point x="20" y="864" type="line"/>
      <point x="40" y="844" type="line"/>
      <point x="160" y="844" type="line"/>
      <point x="160" y="200" type="line" smooth="yes"/>
      <point x="160" y="48"/>
      <point x="215" y="-20"/>
      <point x="329" y="-20" type="curve"/>
      <point x="445" y="-20"/>
      <point x="523" y="88"/>
      <point x="569" y="144" type="curve"/>
      <point x="545" y="200" type="line"/>
      <point x="509" y="154"/>
      <point x="475" y="110"/>
      <point x="413" y="110" type="curve"/>
      <point x="351" y="110"/>
      <point x="335" y="147"/>
      <point x="335" y="206" type="curve"/>
    </contour>
  </outline>
</glyph>
<glyph name="u" format="1">
  <advance width="1027"/>
  <unicode hex="0075"/>
  <outline>
    <contour>
      <point x="466" y="96" type="curve" smooth="yes"/>
      <point x="370" y="96"/>
      <point x="323" y="166"/>
      <point x="323" y="262" type="curve" smooth="yes"/>
      <point x="323" y="919" type="line"/>
      <point x="20" y="919" type="line"/>
      <point x="20" y="859" type="line"/>
      <point x="128" y="859" type="line"/>
      <point x="148" y="839" type="line"/>
      <point x="148" y="229" type="line" smooth="yes"/>
      <point x="148" y="55"/>
      <point x="273" y="-20"/>
      <point x="389" y="-20" type="curve" smooth="yes"/>
      <point x="518" y="-20"/>
      <point x="603" y="51"/>
      <point x="664" y="139" type="curve"/>
      <point x="684" y="139" type="line"/>
      <point x="671" y="0" type="line"/>
      <point x="691" y="-20" type="line"/>
      <point x="987" y="114" type="line"/>
      <point x="967" y="167" type="line"/>
      <point x="869" y="132" type="line" smooth="yes"/>
      <point x="849" y="152" type="line"/>
      <point x="849" y="919" type="line"/>
      <point x="546" y="919" type="line"/>
      <point x="546" y="859" type="line"/>
      <point x="654" y="859" type="line"/>
      <point x="674" y="839" type="line"/>
      <point x="674" y="229" type="line"/>
      <point x="644" y="176"/>
      <point x="564" y="96"/>
    </contour>
    <contour>
      <point x="505" y="959" type="move" name="top"/>
    </contour>
  </outline>
</glyph>
<glyph name="v" format="2">
  <advance width="921"/>
  <unicode hex="0076"/>
  <guideline x="624" y="278" angle="0" identifier="k2rAReGVem"/>
  <outline>
    <contour>
      <point x="828" y="839" type="line"/>
      <point x="848" y="859" type="line"/>
      <point x="921" y="859" type="line"/>
      <point x="921" y="919" type="line"/>
      <point x="600" y="919" type="line"/>
      <point x="600" y="859" type="line"/>
      <point x="697" y="859" type="line"/>
      <point x="717" y="839" type="line"/>
      <point x="528" y="278" type="line"/>
      <point x="508" y="278" type="line"/>
      <point x="284" y="839" type="line"/>
      <point x="304" y="859" type="line"/>
      <point x="399" y="859" type="line"/>
      <point x="399" y="919" type="line"/>
      <point x="0" y="919" type="line"/>
      <point x="0" y="859" type="line"/>
      <point x="69" y="859" type="line"/>
      <point x="89" y="839" type="line"/>
      <point x="457" y="-20" type="line"/>
      <point x="477" y="-20" type="line"/>
    </contour>
  </outline>
</glyph>
<glyph name="w" format="2">
  <advance width="1421"/>
  <unicode hex="0077"/>
  <outline>
    <contour>
      <point x="795" y="753" type="line"/>
      <point x="689" y="753" type="line"/>
      <point x="525" y="278" type="line"/>
      <point x="505" y="278" type="line"/>
      <point x="288" y="839" type="line"/>
      <point x="308" y="859" type="line"/>
      <point x="399" y="859" type="line"/>
      <point x="399" y="919" type="line"/>
      <point x="0" y="919" type="line"/>
      <point x="0" y="859" type="line"/>
      <point x="72" y="859" type="line"/>
      <point x="92" y="839" type="line"/>
      <point x="454" y="-20" type="line"/>
      <point x="474" y="-20" type="line"/>
    </contour>
    <contour>
      <point x="1324" y="839" type="line"/>
      <point x="1344" y="859" type="line"/>
      <point x="1421" y="859" type="line"/>
      <point x="1421" y="919" type="line"/>
      <point x="1100" y="919" type="line"/>
      <point x="1100" y="859" type="line"/>
      <point x="1193" y="859" type="line"/>
      <point x="1213" y="839" type="line"/>
      <point x="1025" y="278" type="line"/>
      <point x="1005" y="278" type="line"/>
      <point x="788" y="839" type="line"/>
      <point x="808" y="859" type="line"/>
      <point x="899" y="859" type="line"/>
      <point x="899" y="919" type="line"/>
      <point x="500" y="919" type="line"/>
      <point x="500" y="859" type="line"/>
      <point x="572" y="859" type="line"/>
      <point x="592" y="839" type="line"/>
      <point x="954" y="-20" type="line"/>
      <point x="974" y="-20" type="line"/>
    </contour>
  </outline>
</glyph>
<glyph name="x" format="2">
  <advance width="995"/>
  <unicode hex="0078"/>
  <guideline x="30" y="78" angle="90" identifier="Q3AFM4Eo0D"/>
  <guideline x="965" y="88" angle="90" identifier="ryAv1opY8U"/>
  <guideline x="227" y="95" angle="0" identifier="59zgdC3Z1M"/>
  <outline>
    <contour>
      <point x="895" y="60" type="line"/>
      <point x="985" y="60" type="line"/>
      <point x="985" y="0" type="line"/>
      <point x="552" y="0" type="line"/>
      <point x="552" y="60" type="line"/>
      <point x="645" y="60" type="line"/>
      <point x="665" y="80" type="line"/>
      <point x="150" y="839" type="line"/>
      <point x="130" y="859" type="line"/>
      <point x="40" y="859" type="line"/>
      <point x="40" y="919" type="line"/>
      <point x="471" y="919" type="line"/>
      <point x="471" y="859" type="line"/>
      <point x="380" y="859" type="line"/>
      <point x="360" y="839" type="line"/>
      <point x="875" y="80" type="line"/>
    </contour>
    <contour>
      <point x="245" y="80" type="line"/>
      <point x="265" y="60" type="line"/>
      <point x="336" y="60" type="line"/>
      <point x="336" y="0" type="line"/>
      <point x="10" y="0" type="line"/>
      <point x="10" y="60" type="line"/>
      <point x="101" y="60" type="line"/>
      <point x="121" y="80" type="line"/>
      <point x="466" y="517" type="line"/>
      <point x="525" y="593" type="line"/>
      <point x="545" y="593" type="line"/>
      <point x="710" y="839" type="line"/>
      <point x="690" y="859" type="line"/>
      <point x="620" y="859" type="line"/>
      <point x="620" y="919" type="line"/>
      <point x="945" y="919" type="line"/>
      <point x="945" y="859" type="line"/>
      <point x="850" y="859" type="line"/>
      <point x="830" y="839" type="line"/>
      <point x="520" y="453" type="line"/>
      <point x="466" y="378" type="line"/>
      <point x="446" y="378" type="line"/>
    </contour>
  </outline>
</glyph>
<glyph name="y" format="2">
  <advance width="1037"/>
  <unicode hex="0079"/>
  <guideline x="747" y="553" angle="67" identifier="fuyAsztAzZ"/>
  <guideline x="589" y="398" angle="67" identifier="317J3KmAYx"/>
  <guideline x="621" y="11" angle="0" identifier="VI8ELd7YTh"/>
  <anchor x="531" y="959" name="top"/>
  <outline>
    <contour>
      <point x="495" y="-92" type="curve" smooth="yes"/>
      <point x="633" y="245" type="line" smooth="yes"/>
      <point x="687" y="378"/>
      <point x="822" y="671"/>
      <point x="896" y="839" type="curve"/>
      <point x="916" y="859" type="line"/>
      <point x="1037" y="859" type="line"/>
      <point x="1037" y="919" type="line"/>
      <point x="645" y="919" type="line"/>
      <point x="645" y="859" type="line"/>
      <point x="764" y="859" type="line"/>
      <point x="785" y="839" type="line"/>
      <point x="563" y="245" type="line"/>
      <point x="543" y="245" type="line"/>
      <point x="344" y="839" type="line"/>
      <point x="364" y="859" type="line"/>
      <point x="481" y="859" type="line"/>
      <point x="481" y="919" type="line"/>
      <point x="30" y="919" type="line"/>
      <point x="30" y="859" type="line"/>
      <point x="128" y="859" type="line"/>
      <point x="148" y="839" type="line"/>
      <point x="469" y="12" type="line"/>
      <point x="433" y="-70" type="line" smooth="yes"/>
      <point x="354" y="-250"/>
      <point x="336" y="-279"/>
      <point x="176" y="-279" type="curve" smooth="yes"/>
      <point x="95" y="-279" type="line"/>
      <point x="65" y="-420" type="line"/>
      <point x="85" y="-440" type="line"/>
      <point x="129" y="-439" type="line" smooth="yes"/>
      <point x="304" y="-435"/>
      <point x="371" y="-396"/>
    </contour>
  </outline>
</glyph>
<glyph name="z" format="2">
  <advance width="890"/>
  <unicode hex="007A"/>
  <guideline x="180" y="823" angle="90" identifier="Bzbp9NnUMf"/>
  <guideline x="770" y="351" angle="90" identifier="gz5ADCVIeI"/>
  <outline>
    <contour>
      <point x="316" y="60" type="line" smooth="yes"/>
      <point x="296" y="80" type="line"/>
      <point x="822" y="899" type="line"/>
      <point x="822" y="919" type="line"/>
      <point x="220" y="919" type="line"/>
      <point x="130" y="919" type="line"/>
      <point x="130" y="633" type="line"/>
      <point x="190" y="633" type="line"/>
      <point x="200" y="814"/>
      <point x="270" y="859"/>
      <point x="379" y="859" type="curve"/>
      <point x="559" y="859" type="line" smooth="yes"/>
      <point x="579" y="839" type="line"/>
      <point x="50" y="20" type="line"/>
      <point x="50" y="0" type="line"/>
      <point x="720" y="0" type="line"/>
      <point x="820" y="0" type="line"/>
      <point x="840" y="324" type="line"/>
      <point x="780" y="324" type="line"/>
      <point x="760" y="145"/>
      <point x="700" y="60"/>
      <point x="581" y="60" type="curve"/>
    </contour>
  </outline>
</glyph>
<glyph name="braceleft" format="2">
  <advance width="681"/>
  <unicode hex="007B"/>
  <guideline x="594" y="-231" angle="0" identifier="91BrxhEcwT"/>
  <outline>
    <contour>
      <point x="651" y="1264" type="line"/>
      <point x="309" y="1264"/>
      <point x="263" y="1121"/>
      <point x="277" y="857" type="curve" smooth="yes"/>
      <point x="288" y="641"/>
      <point x="256" y="515"/>
      <point x="20" y="495" type="curve"/>
      <point x="20" y="459" type="line"/>
      <point x="140" y="459" type="line"/>
      <point x="140" y="469" type="line"/>
      <point x="364" y="509"/>
      <point x="418" y="564"/>
      <point x="408" y="804" type="curve" smooth="yes"/>
      <point x="398" y="1040"/>
      <point x="430" y="1194"/>
      <point x="651" y="1194" type="curve"/>
    </contour>
    <contour>
      <point x="651" y="-346" type="curve"/>
      <point x="651" y="-276" type="line"/>
      <point x="430" y="-276"/>
      <point x="398" y="-122"/>
      <point x="408" y="114" type="curve" smooth="yes"/>
      <point x="418" y="354"/>
      <point x="364" y="409"/>
      <point x="140" y="449" type="curve"/>
      <point x="140" y="459" type="line"/>
      <point x="20" y="459" type="line"/>
      <point x="20" y="423" type="line"/>
      <point x="256" y="403"/>
      <point x="288" y="277"/>
      <point x="277" y="61" type="curve" smooth="yes"/>
      <point x="263" y="-202"/>
      <point x="309" y="-346"/>
    </contour>
  </outline>
</glyph>
<glyph name="bar" format="1">
  <advance width="230"/>
  <unicode hex="007C"/>
  <outline>
    <contour>
      <point x="80" y="1375" type="line"/>
      <point x="80" y="0" type="line"/>
      <point x="150" y="0" type="line"/>
      <point x="150" y="1375" type="line"/>
    </contour>
  </outline>
</glyph>
<glyph name="braceright" format="2">
  <advance width="681"/>
  <unicode hex="007D"/>
  <guideline x="594" y="-231" angle="0" identifier="ROUchD2Y0T"/>
  <outline>
    <contour>
      <point x="30" y="1264" type="curve"/>
      <point x="30" y="1194" type="line"/>
      <point x="251" y="1194"/>
      <point x="282" y="1040"/>
      <point x="272" y="804" type="curve" smooth="yes"/>
      <point x="262" y="564"/>
      <point x="317" y="509"/>
      <point x="541" y="469" type="curve"/>
      <point x="541" y="459" type="line"/>
      <point x="661" y="459" type="line"/>
      <point x="661" y="495" type="line"/>
      <point x="425" y="515"/>
      <point x="393" y="641"/>
      <point x="404" y="857" type="curve" smooth="yes"/>
      <point x="418" y="1121"/>
      <point x="372" y="1264"/>
    </contour>
    <contour>
      <point x="30" y="-346" type="line"/>
      <point x="372" y="-346"/>
      <point x="418" y="-202"/>
      <point x="404" y="61" type="curve" smooth="yes"/>
      <point x="393" y="277"/>
      <point x="425" y="403"/>
      <point x="661" y="423" type="curve"/>
      <point x="661" y="459" type="line"/>
      <point x="541" y="459" type="line"/>
      <point x="541" y="449" type="line"/>
      <point x="317" y="409"/>
      <point x="262" y="354"/>
      <point x="272" y="114" type="curve" smooth="yes"/>
      <point x="282" y="-122"/>
      <point x="251" y="-276"/>
      <point x="30" y="-276" type="curve"/>
    </contour>
  </outline>
</glyph>
<glyph name="exclamdown" format="1">
  <advance width="408"/>
  <unicode hex="00A1"/>
  <outline>
    <contour>
      <point x="242" y="544" type="curve"/>
      <point x="167" y="544" type="line"/>
      <point x="167" y="224"/>
      <point x="102" y="-20"/>
      <point x="102" y="-456" type="curve"/>
      <point x="102" y="-456"/>
      <point x="307" y="-456"/>
      <point x="307" y="-456" type="curve"/>
      <point x="307" y="-20"/>
      <point x="242" y="224"/>
    </contour>
    <contour>
      <point x="100" y="919" type="line"/>
      <point x="100" y="899" type="line"/>
      <point x="100" y="731" type="line"/>
      <point x="100" y="711" type="line"/>
      <point x="308" y="711" type="line"/>
      <point x="308" y="731" type="line"/>
      <point x="308" y="899" type="line"/>
      <point x="308" y="919" type="line"/>
    </contour>
  </outline>
</glyph>
<glyph name="cent" format="2">
  <advance width="887"/>
  <unicode hex="00A2"/>
  <guideline x="532" y="1575" angle="0" identifier="gRknTqElls"/>
  <outline>
    <contour>
      <point x="197" y="0" type="line"/>
      <point x="272" y="0" type="line"/>
      <point x="553" y="1011" type="line"/>
      <point x="575" y="1011" type="line"/>
      <point x="575" y="1089" type="line"/>
      <point x="652" y="1375" type="line"/>
      <point x="577" y="1375" type="line"/>
      <point x="322" y="454" type="line"/>
      <point x="302" y="454" type="line"/>
      <point x="316" y="433" type="line"/>
    </contour>
    <component base="c" xOffset="10" yOffset="219"/>
  </outline>
</glyph>
<glyph name="sterling" format="2">
  <advance width="999"/>
  <unicode hex="00A3"/>
  <anchor x="560" y="958" name="top"/>
  <anchor x="560" y="-21" name="bottom"/>
  <outline>
    <contour>
      <point x="686" y="644" type="line"/>
      <point x="686" y="714" type="line"/>
      <point x="30" y="714" type="line"/>
      <point x="30" y="644" type="line"/>
    </contour>
    <contour>
      <point x="280" y="76" type="line"/>
      <point x="280" y="136" type="line"/>
      <point x="328" y="186"/>
      <point x="462" y="301"/>
      <point x="462" y="537" type="curve" smooth="yes"/>
      <point x="462" y="758"/>
      <point x="396" y="853"/>
      <point x="396" y="1028" type="curve" smooth="yes"/>
      <point x="396" y="1159"/>
      <point x="427" y="1294"/>
      <point x="606" y="1294" type="curve" smooth="yes"/>
      <point x="786" y="1294"/>
      <point x="899" y="1134"/>
      <point x="899" y="939" type="curve" smooth="yes"/>
      <point x="899" y="879" type="line"/>
      <point x="969" y="879" type="line"/>
      <point x="969" y="1355" type="line"/>
      <point x="969" y="1355"/>
      <point x="899" y="1355"/>
      <point x="899" y="1355" type="curve"/>
      <point x="899" y="1275" type="line"/>
      <point x="879" y="1275" type="line"/>
      <point x="870" y="1284"/>
      <point x="779" y="1375"/>
      <point x="594" y="1375" type="curve" smooth="yes"/>
      <point x="302" y="1375"/>
      <point x="196" y="1154"/>
      <point x="196" y="914" type="curve" smooth="yes"/>
      <point x="196" y="654"/>
      <point x="278" y="494"/>
      <point x="278" y="320" type="curve" smooth="yes"/>
      <point x="278" y="172"/>
      <point x="173" y="116"/>
      <point x="97" y="116" type="curve"/>
      <point x="97" y="76" type="line"/>
    </contour>
    <contour>
      <point x="969" y="0" type="line"/>
      <point x="969" y="405" type="line"/>
      <point x="899" y="405" type="line"/>
      <point x="899" y="342" type="line" smooth="yes"/>
      <point x="899" y="182"/>
      <point x="859" y="116"/>
      <point x="719" y="116" type="curve" smooth="yes"/>
      <point x="30" y="116" type="line"/>
      <point x="30" y="0" type="line"/>
    </contour>
  </outline>
</glyph>
<glyph name="yen" format="2">
  <advance width="1425"/>
  <unicode hex="00A5"/>
  <outline>
    <contour>
      <point x="1126" y="578" type="line"/>
      <point x="305" y="578" type="line"/>
      <point x="305" y="508" type="line"/>
      <point x="1126" y="508" type="line"/>
    </contour>
    <contour>
      <point x="440" y="868" type="line"/>
      <point x="440" y="848" type="line"/>
      <point x="305" y="848" type="line"/>
      <point x="305" y="778" type="line"/>
      <point x="581" y="778" type="line"/>
    </contour>
    <contour>
      <point x="1130" y="1265" type="line"/>
      <point x="1238" y="1265" type="line"/>
      <point x="1258" y="1285" type="line"/>
      <point x="1398" y="1285" type="line"/>
      <point x="1398" y="1355" type="line"/>
      <point x="1398" y="1355"/>
      <point x="950" y="1355"/>
      <point x="950" y="1355" type="curve"/>
      <point x="950" y="1285" type="line"/>
      <point x="1110" y="1285" type="line"/>
    </contour>
    <contour>
      <point x="169" y="1265" type="line"/>
      <point x="415" y="1265" type="line"/>
      <point x="435" y="1285" type="line"/>
      <point x="585" y="1285" type="line"/>
      <point x="585" y="1355" type="line"/>
      <point x="585" y="1355"/>
      <point x="19" y="1355"/>
      <point x="19" y="1355" type="curve"/>
      <point x="19" y="1285" type="line"/>
      <point x="149" y="1285" type="line"/>
    </contour>
    <contour>
      <point x="169" y="1265" type="line"/>
      <point x="613" y="614" type="line"/>
      <point x="818" y="614" type="line"/>
      <point x="818" y="654" type="line"/>
      <point x="415" y="1265" type="line"/>
    </contour>
    <contour>
      <point x="1238" y="1265" type="line"/>
      <point x="1130" y="1265" type="line"/>
      <point x="1008" y="1092"/>
      <point x="972" y="1024"/>
      <point x="788" y="728" type="curve"/>
      <point x="768" y="728" type="line"/>
      <point x="768" y="614" type="line"/>
      <point x="818" y="614" type="line"/>
    </contour>
    <contour>
      <point x="818" y="90" type="line"/>
      <point x="818" y="614" type="line"/>
      <point x="818" y="614"/>
      <point x="613" y="614"/>
      <point x="613" y="614" type="curve"/>
      <point x="613" y="90" type="line"/>
    </contour>
    <contour>
      <point x="818" y="90" type="line"/>
      <point x="613" y="90" type="line"/>
      <point x="593" y="70" type="line"/>
      <point x="438" y="70" type="line"/>
      <point x="438" y="0" type="line"/>
      <point x="438" y="0"/>
      <point x="993" y="0"/>
      <point x="993" y="0" type="curve"/>
      <point x="993" y="70" type="line"/>
      <point x="838" y="70" type="line"/>
    </contour>
    <contour>
      <point x="982" y="868" type="line"/>
      <point x="850" y="778" type="line"/>
      <point x="1126" y="778" type="line"/>
      <point x="1126" y="848" type="line"/>
      <point x="982" y="848" type="line"/>
    </contour>
  </outline>
</glyph>
<glyph name="brokenbar" format="1">
  <advance width="230"/>
  <unicode hex="00A6"/>
  <outline>
    <contour>
      <point x="80" y="571" type="line"/>
      <point x="80" y="0" type="line"/>
      <point x="150" y="0" type="line"/>
      <point x="150" y="571" type="line"/>
    </contour>
    <contour>
      <point x="80" y="1375" type="line"/>
      <point x="80" y="804" type="line"/>
      <point x="150" y="804" type="line"/>
      <point x="150" y="1375" type="line"/>
    </contour>
  </outline>
</glyph>
<glyph name="section" format="2">
  <advance width="800"/>
  <unicode hex="00A7"/>
  <outline>
    <contour>
      <point x="239" y="944" type="line"/>
      <point x="239" y="924" type="line"/>
      <point x="154" y="894"/>
      <point x="55" y="838"/>
      <point x="55" y="696" type="curve"/>
      <point x="55" y="608"/>
      <point x="101" y="534"/>
      <point x="171" y="480" type="curve" smooth="yes"/>
      <point x="403" y="300" type="line" smooth="yes"/>
      <point x="470" y="248"/>
      <point x="504" y="209"/>
      <point x="504" y="140" type="curve"/>
      <point x="504" y="86"/>
      <point x="465" y="50"/>
      <point x="390" y="50" type="curve"/>
      <point x="252" y="50"/>
      <point x="185" y="168"/>
      <point x="185" y="295" type="curve"/>
      <point x="185" y="334" type="line"/>
      <point x="120" y="334" type="line"/>
      <point x="120" y="0" type="line"/>
      <point x="185" y="0" type="line"/>
      <point x="185" y="40" type="line"/>
      <point x="205" y="40" type="line"/>
      <point x="228" y="24"/>
      <point x="280" y="-20"/>
      <point x="380" y="-20" type="curve"/>
      <point x="524" y="-20"/>
      <point x="611" y="59"/>
      <point x="610" y="178" type="curve"/>
      <point x="610" y="297"/>
      <point x="530" y="365"/>
      <point x="476" y="409" type="curve" smooth="yes"/>
      <point x="226" y="614" type="line" smooth="yes"/>
      <point x="179" y="653"/>
      <point x="147" y="688"/>
      <point x="147" y="756" type="curve"/>
      <point x="147" y="833"/>
      <point x="206" y="872"/>
      <point x="266" y="872" type="curve"/>
      <point x="319" y="872"/>
      <point x="347" y="856"/>
      <point x="389" y="821" type="curve"/>
      <point x="389" y="944" type="line"/>
    </contour>
    <contour>
      <point x="476" y="409" type="line"/>
      <point x="476" y="429" type="line"/>
      <point x="561" y="459"/>
      <point x="660" y="515"/>
      <point x="660" y="657" type="curve"/>
      <point x="660" y="745"/>
      <point x="614" y="819"/>
      <point x="544" y="873" type="curve" smooth="yes"/>
      <point x="312" y="1053" type="line" smooth="yes"/>
      <point x="245" y="1105"/>
      <point x="211" y="1144"/>
      <point x="211" y="1202" type="curve"/>
      <point x="211" y="1267"/>
      <point x="244" y="1305"/>
      <point x="318" y="1305" type="curve"/>
      <point x="463" y="1305"/>
      <point x="530" y="1185"/>
      <point x="530" y="1058" type="curve"/>
      <point x="530" y="1019" type="line"/>
      <point x="595" y="1019" type="line"/>
      <point x="595" y="1353" type="line"/>
      <point x="530" y="1353" type="line"/>
      <point x="530" y="1313" type="line"/>
      <point x="510" y="1313" type="line"/>
      <point x="487" y="1329"/>
      <point x="435" y="1375"/>
      <point x="335" y="1375" type="curve"/>
      <point x="191" y="1375"/>
      <point x="104" y="1290"/>
      <point x="105" y="1173" type="curve"/>
      <point x="105" y="1056"/>
      <point x="185" y="988"/>
      <point x="239" y="944" type="curve" smooth="yes"/>
      <point x="489" y="739" type="line" smooth="yes"/>
      <point x="536" y="700"/>
      <point x="568" y="665"/>
      <point x="568" y="597" type="curve"/>
      <point x="568" y="520"/>
      <point x="509" y="481"/>
      <point x="449" y="481" type="curve"/>
      <point x="396" y="481"/>
      <point x="368" y="497"/>
      <point x="326" y="532" type="curve"/>
      <point x="326" y="409" type="line"/>
    </contour>
  </outline>
</glyph>
<glyph name="dieresis" format="2">
  <advance width="590"/>
  <unicode hex="00A8"/>
  <anchor x="295" y="959" name="_top"/>
  <outline>
    <contour>
      <point x="40" y="1177" type="line"/>
      <point x="218" y="1177" type="line"/>
      <point x="218" y="1355" type="line"/>
      <point x="40" y="1355" type="line"/>
    </contour>
    <contour>
      <point x="372" y="1177" type="line"/>
      <point x="550" y="1177" type="line"/>
      <point x="550" y="1355" type="line"/>
      <point x="372" y="1355" type="line"/>
    </contour>
  </outline>
</glyph>
<glyph name="ordfeminine" format="1">
  <advance width="669"/>
  <unicode hex="00AA"/>
  <outline>
    <contour>
      <point x="274" y="1329" type="curve"/>
      <point x="367" y="1329"/>
      <point x="413" y="1291"/>
      <point x="413" y="1201" type="curve"/>
      <point x="413" y="1121" type="line"/>
      <point x="227" y="1045"/>
      <point x="41" y="987"/>
      <point x="41" y="827" type="curve"/>
      <point x="41" y="740"/>
      <point x="105" y="678"/>
      <point x="206" y="678" type="curve"/>
      <point x="314" y="678"/>
      <point x="377" y="765"/>
      <point x="399" y="809" type="curve"/>
      <point x="413" y="809" type="line"/>
      <point x="413" y="777" type="line" smooth="yes"/>
      <point x="413" y="719"/>
      <point x="442" y="678"/>
      <point x="493" y="678" type="curve"/>
      <point x="551" y="678"/>
      <point x="617" y="751"/>
      <point x="649" y="782" type="curve"/>
      <point x="633" y="813" type="line"/>
      <point x="607" y="784"/>
      <point x="578" y="749"/>
      <point x="551" y="749" type="curve"/>
      <point x="512" y="749"/>
      <point x="502" y="796"/>
      <point x="504" y="845" type="curve" smooth="yes"/>
      <point x="521" y="1186" type="line" smooth="yes"/>
      <point x="528" y="1333"/>
      <point x="442" y="1375"/>
      <point x="303" y="1375" type="curve"/>
      <point x="144" y="1375"/>
      <point x="59" y="1302"/>
      <point x="40" y="1207" type="curve"/>
      <point x="49" y="1188" type="line"/>
      <point x="177" y="1204" type="line"/>
      <point x="204" y="1286" type="line" smooth="yes"/>
      <point x="215" y="1318"/>
      <point x="240" y="1329"/>
    </contour>
    <contour>
      <point x="413" y="1053" type="line"/>
      <point x="413" y="878" type="line" smooth="yes"/>
      <point x="413" y="873"/>
      <point x="354" y="770"/>
      <point x="262" y="770" type="curve"/>
      <point x="194" y="770"/>
      <point x="164" y="804"/>
      <point x="164" y="869" type="curve"/>
      <point x="164" y="976"/>
      <point x="300" y="1024"/>
      <point x="399" y="1067" type="curve"/>
    </contour>
  </outline>
</glyph>
<glyph name="registered" format="1">
  <advance width="1516"/>
  <unicode hex="00AE"/>
  <outline>
    <contour>
      <point x="633" y="670" type="line"/>
      <point x="633" y="713" type="line"/>
      <point x="735" y="713" type="line" smooth="yes"/>
      <point x="844" y="713"/>
      <point x="917" y="749"/>
      <point x="917" y="870" type="curve"/>
      <point x="917" y="991"/>
      <point x="844" y="1027"/>
      <point x="735" y="1027" type="curve" smooth="yes"/>
      <point x="633" y="1027" type="line"/>
      <point x="633" y="1088" type="line"/>
      <point x="754" y="1088" type="line" smooth="yes"/>
      <point x="935" y="1088"/>
      <point x="1060" y="1017"/>
      <point x="1060" y="870" type="curve"/>
      <point x="1060" y="725"/>
      <point x="940" y="670"/>
      <point x="781" y="670" type="curve"/>
    </contour>
    <contour>
      <point x="633" y="1088" type="line"/>
      <point x="633" y="322" type="line"/>
      <point x="645" y="310" type="line"/>
      <point x="745" y="310" type="line"/>
      <point x="745" y="267" type="line"/>
      <point x="396" y="267" type="line"/>
      <point x="396" y="310" type="line"/>
      <point x="496" y="310" type="line"/>
      <point x="509" y="322" type="line"/>
      <point x="509" y="1033" type="line"/>
      <point x="496" y="1045" type="line"/>
      <point x="396" y="1045" type="line"/>
      <point x="396" y="1088" type="line"/>
    </contour>
    <contour>
      <point x="976" y="267" type="line" smooth="yes"/>
      <point x="645" y="653" type="line"/>
      <point x="633" y="653" type="line"/>
      <point x="633" y="670" type="line"/>
      <point x="775" y="670" type="line"/>
      <point x="775" y="658" type="line"/>
      <point x="1099" y="310" type="line"/>
      <point x="1175" y="310" type="line"/>
      <point x="1175" y="267" type="line"/>
    </contour>
    <contour>
      <point x="60" y="678" type="curve" smooth="yes"/>
      <point x="60" y="271"/>
      <point x="352" y="-20"/>
      <point x="758" y="-20" type="curve" smooth="yes"/>
      <point x="1162" y="-20"/>
      <point x="1456" y="271"/>
      <point x="1456" y="678" type="curve" smooth="yes"/>
      <point x="1456" y="1081"/>
      <point x="1162" y="1375"/>
      <point x="758" y="1375" type="curve" smooth="yes"/>
      <point x="352" y="1375"/>
      <point x="60" y="1081"/>
    </contour>
    <contour>
      <point x="140" y="678" type="curve" smooth="yes"/>
      <point x="140" y="1044"/>
      <point x="392" y="1305"/>
      <point x="758" y="1305" type="curve" smooth="yes"/>
      <point x="1113" y="1305"/>
      <point x="1376" y="1044"/>
      <point x="1376" y="678" type="curve" smooth="yes"/>
      <point x="1376" y="313"/>
      <point x="1123" y="50"/>
      <point x="758" y="50" type="curve" smooth="yes"/>
      <point x="392" y="50"/>
      <point x="140" y="313"/>
    </contour>
  </outline>
</glyph>
<glyph name="plusminus" format="1">
  <advance width="1041"/>
  <unicode hex="00B1"/>
  <outline>
    <contour>
      <point x="981" y="70" type="line"/>
      <point x="60" y="70" type="line"/>
      <point x="60" y="0" type="line"/>
      <point x="981" y="0" type="line"/>
    </contour>
    <contour>
      <point x="980" y="713" type="line"/>
      <point x="575" y="713" type="line"/>
      <point x="555" y="733" type="line"/>
      <point x="555" y="1137" type="line"/>
      <point x="485" y="1137" type="line"/>
      <point x="485" y="733" type="line" smooth="yes"/>
      <point x="465" y="713" type="line"/>
      <point x="60" y="713" type="line"/>
      <point x="60" y="643" type="line"/>
      <point x="465" y="643" type="line" smooth="yes"/>
      <point x="485" y="623" type="line"/>
      <point x="485" y="218" type="line"/>
      <point x="555" y="218" type="line"/>
      <point x="555" y="623" type="line" smooth="yes"/>
      <point x="575" y="643" type="line"/>
      <point x="980" y="643" type="line"/>
    </contour>
  </outline>
</glyph>
<glyph name="acute" format="1">
  <advance width="570"/>
  <unicode hex="00B4"/>
  <outline>
    <contour>
      <point x="100" y="1016" type="line"/>
      <point x="40" y="1016" type="line"/>
      <point x="420" y="1395" type="line"/>
      <point x="530" y="1281" type="line"/>
    </contour>
    <contour>
      <point x="285.0" y="959" type="move" name="_top"/>
    </contour>
  </outline>
</glyph>
<glyph name="paragraph" format="2">
  <advance width="1007"/>
  <unicode hex="00B6"/>
  <outline>
    <contour>
      <point x="434" y="1355" type="line"/>
      <point x="434" y="0" type="line"/>
      <point x="524" y="0" type="line"/>
      <point x="524" y="1355" type="line"/>
    </contour>
    <contour>
      <point x="662" y="1355" type="line"/>
      <point x="662" y="0" type="line"/>
      <point x="752" y="0" type="line"/>
      <point x="752" y="1355" type="line"/>
    </contour>
    <contour>
      <point x="434" y="1265" type="line"/>
      <point x="524" y="1265" type="line"/>
      <point x="544" y="1285" type="line"/>
      <point x="642" y="1285" type="line"/>
      <point x="662" y="1265" type="line"/>
      <point x="752" y="1265" type="line"/>
      <point x="772" y="1285" type="line"/>
      <point x="927" y="1285" type="line"/>
      <point x="927" y="1355" type="line"/>
      <point x="434" y="1355" type="line"/>
    </contour>
    <contour>
      <point x="434" y="587" type="curve"/>
      <point x="434" y="1355" type="line"/>
      <point x="173" y="1355"/>
      <point x="20" y="1192"/>
      <point x="20" y="971" type="curve" smooth="yes"/>
      <point x="20" y="750"/>
      <point x="173" y="587"/>
    </contour>
    <contour>
      <point x="414" y="70" type="line"/>
      <point x="259" y="70" type="line"/>
      <point x="259" y="0" type="line"/>
      <point x="927" y="0" type="line"/>
      <point x="927" y="70" type="line"/>
      <point x="772" y="70" type="line"/>
      <point x="752" y="90" type="line"/>
      <point x="662" y="90" type="line"/>
      <point x="642" y="70" type="line"/>
      <point x="544" y="70" type="line"/>
      <point x="524" y="90" type="line"/>
      <point x="434" y="90" type="line"/>
    </contour>
  </outline>
</glyph>
<glyph name="cedilla" format="2">
  <advance width="500"/>
  <unicode hex="00B8"/>
  <anchor x="250" y="-20" name="_bottom"/>
  <outline>
    <contour>
      <point x="278" y="-16" type="line"/>
      <point x="208" y="-16" type="line"/>
      <point x="132" y="-196" type="line"/>
      <point x="152" y="-216" type="line"/>
      <point x="166" y="-211"/>
      <point x="181" y="-204"/>
      <point x="220" y="-204" type="curve" smooth="yes"/>
      <point x="272" y="-204"/>
      <point x="309" y="-228"/>
      <point x="309" y="-280" type="curve" smooth="yes"/>
      <point x="309" y="-338"/>
      <point x="269" y="-372"/>
      <point x="188" y="-372" type="curve"/>
      <point x="150" y="-372"/>
      <point x="110" y="-364"/>
      <point x="64" y="-342" type="curve"/>
      <point x="40" y="-397" type="line"/>
      <point x="88" y="-424"/>
      <point x="144" y="-440"/>
      <point x="213" y="-440" type="curve"/>
      <point x="372" y="-440"/>
      <point x="460" y="-366"/>
      <point x="460" y="-266" type="curve" smooth="yes"/>
      <point x="460" y="-184"/>
      <point x="394" y="-126"/>
      <point x="292" y="-126" type="curve" smooth="yes"/>
      <point x="282" y="-126"/>
      <point x="273" y="-127"/>
      <point x="263" y="-128" type="curve"/>
      <point x="243" y="-108" type="line"/>
    </contour>
  </outline>
</glyph>
<glyph name="ordmasculine" format="1">
  <advance width="703"/>
  <unicode hex="00BA"/>
  <outline>
    <contour>
      <point x="30" y="1029" type="curve" smooth="yes"/>
      <point x="30" y="825"/>
      <point x="158" y="678"/>
      <point x="353" y="678" type="curve" smooth="yes"/>
      <point x="545" y="678"/>
      <point x="673" y="832"/>
      <point x="673" y="1029" type="curve" smooth="yes"/>
      <point x="673" y="1233"/>
      <point x="545" y="1375"/>
      <point x="353" y="1375" type="curve" smooth="yes"/>
      <point x="158" y="1375"/>
      <point x="30" y="1225"/>
    </contour>
    <contour>
      <point x="147" y="1065" type="curve" smooth="yes"/>
      <point x="147" y="1218"/>
      <point x="222" y="1324"/>
      <point x="337" y="1324" type="curve" smooth="yes"/>
      <point x="481" y="1324"/>
      <point x="558" y="1167"/>
      <point x="558" y="991" type="curve" smooth="yes"/>
      <point x="558" y="848"/>
      <point x="491" y="729"/>
      <point x="366" y="729" type="curve"/>
      <point x="228" y="729"/>
      <point x="147" y="876"/>
    </contour>
  </outline>
</glyph>
<glyph name="guillemotright" format="2">
  <advance width="1103"/>
  <unicode hex="00BB"/>
  <outline>
    <contour>
      <point x="875" y="459" type="line"/>
      <point x="1083" y="459" type="line"/>
      <point x="1083" y="469" type="line"/>
      <point x="570" y="919" type="line"/>
      <point x="500" y="919" type="line"/>
      <point x="875" y="469" type="line"/>
    </contour>
    <contour>
      <point x="875" y="459" type="line"/>
      <point x="875" y="449" type="line"/>
      <point x="500" y="0" type="line"/>
      <point x="570" y="0" type="line"/>
      <point x="1083" y="449" type="line"/>
      <point x="1083" y="459" type="line"/>
    </contour>
    <contour>
      <point x="425" y="459" type="line"/>
      <point x="633" y="459" type="line"/>
      <point x="633" y="469" type="line"/>
      <point x="120" y="919" type="line"/>
      <point x="50" y="919" type="line"/>
      <point x="425" y="469" type="line"/>
    </contour>
    <contour>
      <point x="425" y="459" type="line"/>
      <point x="425" y="449" type="line"/>
      <point x="50" y="0" type="line"/>
      <point x="120" y="0" type="line"/>
      <point x="633" y="449" type="line"/>
      <point x="633" y="459" type="line"/>
    </contour>
  </outline>
</glyph>
<glyph name="AE" format="1">
  <advance width="1828"/>
  <unicode hex="00C6"/>
  <outline>
    <contour>
      <point x="150" y="90" type="curve"/>
      <point x="258" y="90" type="line"/>
      <point x="494" y="546"/>
      <point x="574" y="714"/>
      <point x="843" y="1285" type="curve"/>
      <point x="843" y="1355" type="line"/>
      <point x="773" y="1355" type="line"/>
      <point x="438" y="698"/>
      <point x="416" y="650"/>
    </contour>
    <contour>
      <point x="258" y="90" type="line"/>
      <point x="150" y="90" type="line"/>
      <point x="130" y="70" type="line"/>
      <point x="20" y="70" type="line"/>
      <point x="20" y="0" type="line"/>
      <point x="20" y="0"/>
      <point x="433" y="0"/>
      <point x="433" y="0" type="curve"/>
      <point x="433" y="70" type="line"/>
      <point x="278" y="70" type="line"/>
    </contour>
    <contour>
      <point x="1068" y="660" type="line"/>
      <point x="1383" y="660" type="line"/>
      <point x="1403" y="640" type="line"/>
      <point x="1403" y="510" type="line"/>
      <point x="1473" y="510" type="line"/>
      <point x="1473" y="910" type="line"/>
      <point x="1403" y="910" type="line"/>
      <point x="1403" y="780" type="line"/>
      <point x="1383" y="760" type="line"/>
      <point x="1068" y="760" type="line"/>
      <point x="1068" y="1239" type="line"/>
      <point x="1363" y="1239" type="line" smooth="yes"/>
      <point x="1555" y="1239"/>
      <point x="1608" y="1230"/>
      <point x="1608" y="1060" type="curve"/>
      <point x="1608" y="970" type="line"/>
      <point x="1678" y="970" type="line"/>
      <point x="1678" y="1355" type="line"/>
      <point x="843" y="1355" type="line"/>
      <point x="843" y="1285" type="line"/>
      <point x="863" y="1285" type="line"/>
      <point x="863" y="0" type="line"/>
      <point x="1728" y="0" type="line"/>
      <point x="1728" y="405" type="line"/>
      <point x="1658" y="405" type="line"/>
      <point x="1658" y="310" type="line"/>
      <point x="1658" y="150"/>
      <point x="1598" y="116"/>
      <point x="1458" y="116" type="curve"/>
      <point x="1068" y="116" type="line"/>
    </contour>
    <contour>
      <point x="863" y="90" type="line"/>
      <point x="843" y="70" type="line"/>
      <point x="688" y="70" type="line"/>
      <point x="688" y="0" type="line"/>
      <point x="688" y="0"/>
      <point x="863" y="0"/>
      <point x="863" y="0" type="curve"/>
    </contour>
    <contour>
      <point x="967.0" y="610.0" type="line"/>
      <point x="531" y="610" type="line"/>
      <point x="531" y="630" type="line"/>
      <point x="438.0" y="510.0" type="line"/>
      <point x="967.0" y="510.0" type="line"/>
    </contour>
    <contour>
      <point x="553" y="1285" type="line"/>
      <point x="708" y="1285" type="line"/>
      <point x="728" y="1265" type="line"/>
      <point x="788" y="1265" type="line"/>
      <point x="788" y="1355" type="line"/>
      <point x="553" y="1355" type="line"/>
    </contour>
  </outline>
</glyph>
<glyph name="multiply" format="1">
  <advance width="1042"/>
  <unicode hex="00D7"/>
  <outline>
    <contour>
      <point x="871" y="377" type="line"/>
      <point x="584" y="664" type="line"/>
      <point x="584" y="692" type="line"/>
      <point x="870" y="978" type="line"/>
      <point x="821" y="1027" type="line"/>
      <point x="535" y="741" type="line" smooth="yes"/>
      <point x="507" y="741" type="line"/>
      <point x="220" y="1028" type="line"/>
      <point x="171" y="978" type="line"/>
      <point x="457" y="692" type="line" smooth="yes"/>
      <point x="457" y="664" type="line"/>
      <point x="171" y="377" type="line"/>
      <point x="220" y="328" type="line"/>
      <point x="507" y="614" type="line" smooth="yes"/>
      <point x="535" y="614" type="line"/>
      <point x="821" y="328" type="line"/>
    </contour>
  </outline>
</glyph>
<glyph name="Oslash" format="1">
  <advance width="1450"/>
  <unicode hex="00D8"/>
  <outline>
    <contour>
      <point x="186" y="-120" type="line"/>
      <point x="270" y="-120" type="line"/>
      <point x="1250" y="1475" type="line"/>
      <point x="1166" y="1475" type="line"/>
    </contour>
    <component base="O"/>
  </outline>
</glyph>
<glyph name="germandbls" format="1">
  <advance width="1020"/>
  <unicode hex="00DF"/>
  <outline>
    <contour>
      <point x="990" y="225" type="curve"/>
      <point x="990" y="385"/>
      <point x="894" y="448"/>
      <point x="734" y="565" type="curve" smooth="yes"/>
      <point x="649" y="627"/>
      <point x="620" y="670"/>
      <point x="620" y="735" type="curve"/>
      <point x="620" y="825"/>
      <point x="710" y="874"/>
      <point x="837" y="874" type="curve"/>
      <point x="837" y="1040" type="line" smooth="yes"/>
      <point x="837" y="1247"/>
      <point x="765" y="1375"/>
      <point x="565" y="1375" type="curve"/>
      <point x="330" y="1375"/>
      <point x="266" y="1175"/>
      <point x="190" y="919" type="curve"/>
      <point x="32" y="919" type="line"/>
      <point x="32" y="844" type="line"/>
      <point x="190" y="844" type="line"/>
      <point x="190" y="80" type="line"/>
      <point x="170" y="60" type="line"/>
      <point x="47" y="60" type="line"/>
      <point x="47" y="0" type="line"/>
      <point x="365" y="0" type="line"/>
      <point x="365" y="1039" type="line"/>
      <point x="365" y="1166"/>
      <point x="417" y="1305"/>
      <point x="567" y="1305" type="curve"/>
      <point x="717" y="1305"/>
      <point x="772" y="1166"/>
      <point x="772" y="1038" type="curve"/>
      <point x="772" y="919" type="line"/>
      <point x="650" y="919"/>
      <point x="475" y="865"/>
      <point x="475" y="660" type="curve"/>
      <point x="475" y="555"/>
      <point x="527" y="484"/>
      <point x="657" y="394" type="curve" smooth="yes"/>
      <point x="745" y="333"/>
      <point x="820" y="280"/>
      <point x="820" y="175" type="curve"/>
      <point x="820" y="95"/>
      <point x="780" y="50"/>
      <point x="710" y="50" type="curve"/>
      <point x="602" y="50"/>
      <point x="535" y="148"/>
      <point x="535" y="275" type="curve"/>
      <point x="535" y="314" type="line"/>
      <point x="470" y="314" type="line"/>
      <point x="470" y="0" type="line"/>
      <point x="535" y="0" type="line"/>
      <point x="535" y="50" type="line"/>
      <point x="555" y="50" type="line"/>
      <point x="573" y="31"/>
      <point x="620" y="-20"/>
      <point x="735" y="-20" type="curve"/>
      <point x="879" y="-20"/>
      <point x="990" y="80"/>
    </contour>
  </outline>
</glyph>
<glyph name="ae" format="2">
  <advance width="1398"/>
  <unicode hex="00E6"/>
  <outline>
    <contour>
      <point x="950" y="862" type="curve"/>
      <point x="1067" y="862"/>
      <point x="1106" y="780"/>
      <point x="1106" y="667" type="curve"/>
      <point x="1086" y="647" type="line"/>
      <point x="739" y="638" type="line"/>
      <point x="766" y="802"/>
      <point x="862" y="862"/>
    </contour>
    <contour>
      <point x="253" y="245" type="curve"/>
      <point x="253" y="390"/>
      <point x="427" y="455"/>
      <point x="562" y="515" type="curve"/>
      <point x="582" y="495" type="line"/>
      <point x="582" y="443" type="line" smooth="yes"/>
      <point x="582" y="384"/>
      <point x="592" y="326"/>
      <point x="606" y="274" type="curve"/>
      <point x="593" y="250"/>
      <point x="499" y="134"/>
      <point x="375" y="134" type="curve"/>
      <point x="295" y="134"/>
      <point x="253" y="168"/>
    </contour>
    <contour>
      <point x="455" y="939" type="curve"/>
      <point x="238" y="939"/>
      <point x="107" y="837"/>
      <point x="83" y="694" type="curve"/>
      <point x="95" y="668" type="line"/>
      <point x="271" y="688" type="line"/>
      <point x="306" y="807" type="line" smooth="yes"/>
      <point x="322" y="862"/>
      <point x="358" y="874"/>
      <point x="414" y="874" type="curve"/>
      <point x="514" y="874"/>
      <point x="582" y="810"/>
      <point x="582" y="700" type="curve" smooth="yes"/>
      <point x="582" y="590" type="line"/>
      <point x="327" y="485"/>
      <point x="71" y="405"/>
      <point x="71" y="185" type="curve"/>
      <point x="71" y="65"/>
      <point x="158" y="-20"/>
      <point x="296" y="-20" type="curve"/>
      <point x="486" y="-20"/>
      <point x="580" y="132"/>
      <point x="612" y="198" type="curve"/>
      <point x="632" y="198" type="line"/>
      <point x="632" y="198" type="line"/>
      <point x="691" y="69"/>
      <point x="803" y="-20"/>
      <point x="966" y="-20" type="curve"/>
      <point x="1231" y="-20"/>
      <point x="1304" y="252"/>
      <point x="1318" y="366" type="curve"/>
      <point x="1277" y="396" type="line"/>
      <point x="1236" y="281"/>
      <point x="1205" y="150"/>
      <point x="1018" y="150" type="curve"/>
      <point x="809" y="150"/>
      <point x="731" y="334"/>
      <point x="731" y="536" type="curve"/>
      <point x="731" y="548"/>
      <point x="731" y="561"/>
      <point x="732" y="572" type="curve"/>
      <point x="1304" y="572" type="line"/>
      <point x="1304" y="860"/>
      <point x="1136" y="939"/>
      <point x="976" y="939" type="curve"/>
      <point x="865" y="939"/>
      <point x="780" y="890"/>
      <point x="719" y="827" type="curve"/>
      <point x="699" y="827" type="line"/>
      <point x="648" y="900"/>
      <point x="564" y="939"/>
    </contour>
  </outline>
</glyph>
<glyph name="oslash" format="1">
  <advance width="996"/>
  <unicode hex="00F8"/>
  <outline>
    <contour>
      <point x="114" y="-100" type="line"/>
      <point x="194" y="-100" type="line"/>
      <point x="878" y="1019" type="line"/>
      <point x="798" y="1019" type="line"/>
    </contour>
    <component base="o"/>
  </outline>
</glyph>
<glyph name="dotlessi" format="2">
  <advance width="526"/>
  <unicode hex="0131"/>
  <guideline x="368" y="1045" angle="90" identifier="GInVaGtEj1"/>
  <guideline x="193" y="891" angle="90" identifier="XfPRHh5JPH"/>
  <anchor x="267" y="959" name="top"/>
  <outline>
    <contour>
      <point x="183" y="80" type="line"/>
      <point x="163" y="60" type="line"/>
      <point x="40" y="60" type="line"/>
      <point x="40" y="0" type="line"/>
      <point x="491" y="0" type="line"/>
      <point x="491" y="60" type="line"/>
      <point x="378" y="60" type="line"/>
      <point x="358" y="80" type="line"/>
    </contour>
    <contour>
      <point x="163" y="788" type="line" smooth="yes"/>
      <point x="183" y="768" type="line"/>
      <point x="183" y="0" type="line"/>
      <point x="358" y="0" type="line"/>
      <point x="358" y="919" type="line"/>
      <point x="338" y="939" type="line"/>
      <point x="43" y="805" type="line"/>
      <point x="70" y="750" type="line"/>
    </contour>
  </outline>
</glyph>
<glyph name="OE" format="1">
  <advance width="1800"/>
  <unicode hex="0152"/>
  <outline>
    <contour>
      <point x="770" y="70" type="line"/>
      <point x="470" y="70"/>
      <point x="295" y="375"/>
      <point x="295" y="725" type="curve" smooth="yes"/>
      <point x="295" y="1045"/>
      <point x="410" y="1285"/>
      <point x="710" y="1285" type="curve"/>
      <point x="786" y="1285" type="line"/>
      <point x="786" y="1355" type="line"/>
      <point x="735" y="1355" type="line"/>
      <point x="345" y="1355"/>
      <point x="60" y="1080"/>
      <point x="60" y="655" type="curve" smooth="yes"/>
      <point x="60" y="275"/>
      <point x="325" y="0"/>
      <point x="705" y="0" type="curve"/>
      <point x="770" y="0" type="line"/>
    </contour>
    <contour>
      <point x="1040" y="660" type="line"/>
      <point x="1355" y="660" type="line"/>
      <point x="1375" y="640" type="line"/>
      <point x="1375" y="510" type="line"/>
      <point x="1445" y="510" type="line"/>
      <point x="1445" y="910" type="line"/>
      <point x="1375" y="910" type="line"/>
      <point x="1375" y="780" type="line"/>
      <point x="1355" y="760" type="line"/>
      <point x="1040" y="760" type="line"/>
      <point x="1040" y="1239" type="line"/>
      <point x="1335" y="1239" type="line" smooth="yes"/>
      <point x="1527" y="1239"/>
      <point x="1580" y="1230"/>
      <point x="1580" y="1060" type="curve"/>
      <point x="1580" y="970" type="line"/>
      <point x="1650" y="970" type="line"/>
      <point x="1650" y="1355" type="line"/>
      <point x="786" y="1355" type="line"/>
      <point x="786" y="1285" type="line"/>
      <point x="815" y="1285" type="line"/>
      <point x="835" y="1265" type="line"/>
      <point x="835" y="90" type="line"/>
      <point x="815" y="70" type="line"/>
      <point x="770" y="70" type="line"/>
      <point x="770" y="0" type="line"/>
      <point x="1700" y="0" type="line"/>
      <point x="1700" y="405" type="line"/>
      <point x="1630" y="405" type="line"/>
      <point x="1630" y="310" type="line"/>
      <point x="1630" y="150"/>
      <point x="1570" y="116"/>
      <point x="1430" y="116" type="curve"/>
      <point x="1040" y="116" type="line"/>
    </contour>
  </outline>
</glyph>
<glyph name="oe" format="2">
  <advance width="1522"/>
  <unicode hex="0153"/>
  <outline>
    <contour>
      <point x="1442" y="366" type="curve"/>
      <point x="1401" y="396" type="line"/>
      <point x="1360" y="281"/>
      <point x="1329" y="150"/>
      <point x="1142" y="150" type="curve"/>
      <point x="933" y="150"/>
      <point x="855" y="334"/>
      <point x="855" y="536" type="curve"/>
      <point x="855" y="548"/>
      <point x="855" y="561"/>
      <point x="856" y="572" type="curve"/>
      <point x="1428" y="572" type="line"/>
      <point x="1428" y="860"/>
      <point x="1260" y="939"/>
      <point x="1100" y="939" type="curve"/>
      <point x="950" y="939"/>
      <point x="858" y="863"/>
      <point x="796" y="765" type="curve"/>
      <point x="776" y="765" type="line"/>
      <point x="706" y="877"/>
      <point x="594" y="939"/>
      <point x="452" y="939" type="curve"/>
      <point x="205" y="939"/>
      <point x="50" y="730"/>
      <point x="50" y="461" type="curve" smooth="yes"/>
      <point x="50" y="181"/>
      <point x="206" y="-20"/>
      <point x="453" y="-20" type="curve" smooth="yes"/>
      <point x="588" y="-20"/>
      <point x="696" y="43"/>
      <point x="765" y="144" type="curve"/>
      <point x="785" y="144" type="line"/>
      <point x="845" y="48"/>
      <point x="942" y="-20"/>
      <point x="1090" y="-20" type="curve"/>
      <point x="1355" y="-20"/>
      <point x="1428" y="252"/>
    </contour>
    <contour>
      <point x="251" y="514" type="curve" smooth="yes"/>
      <point x="251" y="724"/>
      <point x="307" y="869"/>
      <point x="432" y="869" type="curve" smooth="yes"/>
      <point x="597" y="869"/>
      <point x="655" y="654"/>
      <point x="655" y="409" type="curve" smooth="yes"/>
      <point x="655" y="213"/>
      <point x="611" y="50"/>
      <point x="473" y="50" type="curve"/>
      <point x="316" y="50"/>
      <point x="251" y="252"/>
    </contour>
    <contour>
      <point x="1074" y="862" type="curve"/>
      <point x="1191" y="862"/>
      <point x="1230" y="780"/>
      <point x="1230" y="667" type="curve"/>
      <point x="1210" y="647" type="line"/>
      <point x="863" y="638" type="line"/>
      <point x="890" y="802"/>
      <point x="986" y="862"/>
    </contour>
  </outline>
</glyph>
<glyph name="circumflex" format="1">
  <advance width="660"/>
  <unicode hex="02C6"/>
  <outline>
    <contour>
      <point x="560.0" y="1016.0" type="line"/>
      <point x="620.0" y="1016.0" type="line"/>
      <point x="380.0" y="1355.0" type="line"/>
      <point x="280.0" y="1355.0" type="line"/>
      <point x="40.0" y="1016.0" type="line"/>
      <point x="100.0" y="1016.0" type="line"/>
      <point x="282" y="1222" type="line"/>
      <point x="302" y="1222" type="line"/>
    </contour>
    <contour>
      <point x="330.0" y="959" type="move" name="_top"/>
    </contour>
  </outline>
</glyph>
<glyph name="ring" format="1">
  <advance width="491"/>
  <unicode hex="02DA"/>
  <outline>
    <contour>
      <point x="317" y="1098"/>
      <point x="368" y="1153"/>
      <point x="368" y="1223" type="curve" smooth="yes"/>
      <point x="368" y="1293"/>
      <point x="317" y="1346"/>
      <point x="245" y="1346" type="curve" smooth="yes"/>
      <point x="173" y="1346"/>
      <point x="120" y="1293"/>
      <point x="120" y="1223" type="curve" smooth="yes"/>
      <point x="120" y="1153"/>
      <point x="173" y="1098"/>
      <point x="245" y="1098" type="curve" smooth="yes"/>
    </contour>
    <contour>
      <point x="245" y="1428" type="curve" smooth="yes"/>
      <point x="359" y="1428"/>
      <point x="451" y="1335"/>
      <point x="451" y="1223" type="curve" smooth="yes"/>
      <point x="451" y="1111"/>
      <point x="359" y="1018"/>
      <point x="245" y="1018" type="curve" smooth="yes"/>
      <point x="127" y="1018"/>
      <point x="40" y="1111"/>
      <point x="40" y="1223" type="curve" smooth="yes"/>
      <point x="40" y="1335"/>
      <point x="127" y="1428"/>
    </contour>
    <contour>
      <point x="245.5" y="959" type="move" name="_top"/>
    </contour>
  </outline>
</glyph>
<glyph name="tilde" format="2">
  <advance width="698"/>
  <unicode hex="02DC"/>
  <guideline x="296" y="1127" angle="0" identifier="90bzabMw0d"/>
  <anchor x="349" y="959" name="_top"/>
  <outline>
    <contour>
      <point x="658" y="1355" type="curve"/>
      <point x="599" y="1355" type="line"/>
      <point x="599" y="1305"/>
      <point x="568" y="1246"/>
      <point x="498" y="1246" type="curve"/>
      <point x="408" y="1246"/>
      <point x="360" y="1345"/>
      <point x="240" y="1345" type="curve"/>
      <point x="100" y="1345"/>
      <point x="50" y="1217"/>
      <point x="40" y="1127" type="curve"/>
      <point x="99" y="1127" type="line"/>
      <point x="99" y="1177"/>
      <point x="130" y="1237"/>
      <point x="200" y="1237" type="curve"/>
      <point x="290" y="1237"/>
      <point x="339" y="1137"/>
      <point x="459" y="1137" type="curve"/>
      <point x="599" y="1137"/>
      <point x="648" y="1265"/>
    </contour>
  </outline>
</glyph>
<glyph name="endash" format="1">
  <advance width="1031"/>
  <unicode hex="2013"/>
  <outline>
    <contour>
      <point x="80" y="424" type="line"/>
      <point x="951" y="424" type="line"/>
      <point x="951" y="494" type="line"/>
      <point x="80" y="494" type="line"/>
    </contour>
  </outline>
</glyph>
<glyph name="emdash" format="1">
  <advance width="1561"/>
  <unicode hex="2014"/>
  <outline>
    <contour>
      <point x="80" y="424" type="line"/>
      <point x="1481" y="424" type="line"/>
      <point x="1481" y="494" type="line"/>
      <point x="80" y="494" type="line"/>
    </contour>
  </outline>
</glyph>
<glyph name="quoteleft" format="1">
  <advance width="508"/>
  <unicode hex="2018"/>
  <outline>
    <contour>
      <point x="190" y="1032" type="curve"/>
      <point x="190" y="861" type="line"/>
      <point x="408" y="861" type="line"/>
      <point x="408" y="1069" type="line"/>
      <point x="299" y="1069" type="line"/>
      <point x="284" y="1089" type="line"/>
      <point x="284" y="1173"/>
      <point x="321" y="1245"/>
      <point x="418" y="1323" type="curve"/>
      <point x="387" y="1375" type="line"/>
      <point x="263" y="1285"/>
      <point x="190" y="1169"/>
    </contour>
  </outline>
</glyph>
<glyph name="quoteright" format="1">
  <advance width="508"/>
  <unicode hex="2019"/>
  <outline>
    <contour>
      <point x="318" y="1184" type="curve"/>
      <point x="318" y="1355" type="line"/>
      <point x="100" y="1355" type="line"/>
      <point x="100" y="1147" type="line"/>
      <point x="209" y="1147" type="line"/>
      <point x="224" y="1127" type="line"/>
      <point x="224" y="1043"/>
      <point x="187" y="971"/>
      <point x="90" y="893" type="curve"/>
      <point x="121" y="841" type="line"/>
      <point x="245" y="931"/>
      <point x="318" y="1047"/>
    </contour>
  </outline>
</glyph>
<glyph name="quotesinglbase" format="1">
  <advance width="508"/>
  <unicode hex="201A"/>
  <outline>
    <contour>
      <point x="318" y="37" type="curve"/>
      <point x="318" y="208" type="line"/>
      <point x="100" y="208" type="line"/>
      <point x="100" y="0" type="line"/>
      <point x="209" y="0" type="line"/>
      <point x="224" y="-20" type="line"/>
      <point x="224" y="-104"/>
      <point x="187" y="-176"/>
      <point x="90" y="-254" type="curve"/>
      <point x="121" y="-306" type="line"/>
      <point x="245" y="-216"/>
      <point x="318" y="-100"/>
    </contour>
  </outline>
</glyph>
<glyph name="quotedblleft" format="1">
  <advance width="878"/>
  <unicode hex="201C"/>
  <outline>
    <contour>
      <point x="560" y="1012" type="curve"/>
      <point x="560" y="841" type="line"/>
      <point x="778" y="841" type="line"/>
      <point x="778" y="1049" type="line"/>
      <point x="669" y="1049" type="line"/>
      <point x="654" y="1069" type="line"/>
      <point x="654" y="1153"/>
      <point x="691" y="1225"/>
      <point x="788" y="1303" type="curve"/>
      <point x="757" y="1355" type="line"/>
      <point x="633" y="1265"/>
      <point x="560" y="1149"/>
    </contour>
    <contour>
      <point x="190" y="1012" type="curve"/>
      <point x="190" y="841" type="line"/>
      <point x="408" y="841" type="line"/>
      <point x="408" y="1049" type="line"/>
      <point x="299" y="1049" type="line"/>
      <point x="284" y="1069" type="line"/>
      <point x="284" y="1153"/>
      <point x="321" y="1225"/>
      <point x="418" y="1303" type="curve"/>
      <point x="387" y="1355" type="line"/>
      <point x="263" y="1265"/>
      <point x="190" y="1149"/>
    </contour>
  </outline>
</glyph>
<glyph name="quotedblright" format="1">
  <advance width="878"/>
  <unicode hex="201D"/>
  <outline>
    <contour>
      <point x="318" y="1184" type="curve"/>
      <point x="318" y="1355" type="line"/>
      <point x="100" y="1355" type="line"/>
      <point x="100" y="1147" type="line"/>
      <point x="209" y="1147" type="line"/>
      <point x="224" y="1127" type="line"/>
      <point x="224" y="1043"/>
      <point x="187" y="971"/>
      <point x="90" y="893" type="curve"/>
      <point x="121" y="841" type="line"/>
      <point x="245" y="931"/>
      <point x="318" y="1047"/>
    </contour>
    <contour>
      <point x="688" y="1184" type="curve"/>
      <point x="688" y="1355" type="line"/>
      <point x="470" y="1355" type="line"/>
      <point x="470" y="1147" type="line"/>
      <point x="579" y="1147" type="line"/>
      <point x="594" y="1127" type="line"/>
      <point x="594" y="1043"/>
      <point x="557" y="971"/>
      <point x="460" y="893" type="curve"/>
      <point x="491" y="841" type="line"/>
      <point x="615" y="931"/>
      <point x="688" y="1047"/>
    </contour>
  </outline>
</glyph>
<glyph name="quotedblbase" format="1">
  <advance width="878"/>
  <unicode hex="201E"/>
  <outline>
    <contour>
      <point x="318" y="37" type="curve"/>
      <point x="318" y="208" type="line"/>
      <point x="100" y="208" type="line"/>
      <point x="100" y="0" type="line"/>
      <point x="209" y="0" type="line"/>
      <point x="224" y="-20" type="line"/>
      <point x="224" y="-104"/>
      <point x="187" y="-176"/>
      <point x="90" y="-254" type="curve"/>
      <point x="121" y="-306" type="line"/>
      <point x="245" y="-216"/>
      <point x="318" y="-100"/>
    </contour>
    <contour>
      <point x="688" y="37" type="curve"/>
      <point x="688" y="208" type="line"/>
      <point x="470" y="208" type="line"/>
      <point x="470" y="0" type="line"/>
      <point x="579" y="0" type="line"/>
      <point x="594" y="-20" type="line"/>
      <point x="594" y="-104"/>
      <point x="557" y="-176"/>
      <point x="460" y="-254" type="curve"/>
      <point x="491" y="-306" type="line"/>
      <point x="615" y="-216"/>
      <point x="688" y="-100"/>
    </contour>
  </outline>
</glyph>
<glyph name="dagger" format="1">
  <advance width="1040"/>
  <unicode hex="2020"/>
  <outline>
    <contour>
      <point x="980" y="931" type="line"/>
      <point x="575" y="931" type="line"/>
      <point x="555" y="951" type="line"/>
      <point x="585" y="1355" type="line"/>
      <point x="455" y="1355" type="line"/>
      <point x="485" y="951" type="line" smooth="yes"/>
      <point x="465" y="931" type="line"/>
      <point x="60" y="931" type="line"/>
      <point x="60" y="861" type="line"/>
      <point x="465" y="861" type="line" smooth="yes"/>
      <point x="485" y="841" type="line"/>
      <point x="455" y="0" type="line"/>
      <point x="585" y="0" type="line"/>
      <point x="555" y="841" type="line" smooth="yes"/>
      <point x="575" y="861" type="line"/>
      <point x="980" y="861" type="line"/>
    </contour>
  </outline>
</glyph>
<glyph name="ellipsis" format="1">
  <advance width="1308"/>
  <unicode hex="2026"/>
  <outline>
    <contour>
      <point x="100" y="0" type="line"/>
      <point x="308" y="0" type="line"/>
      <point x="308" y="20" type="line"/>
      <point x="308" y="188" type="line"/>
      <point x="308" y="208" type="line"/>
      <point x="100" y="208" type="line"/>
      <point x="100" y="188" type="line"/>
      <point x="100" y="20" type="line"/>
    </contour>
    <contour>
      <point x="500" y="0" type="line"/>
      <point x="708" y="0" type="line"/>
      <point x="708" y="20" type="line"/>
      <point x="708" y="178" type="line"/>
      <point x="708" y="198" type="line"/>
      <point x="500" y="198" type="line"/>
      <point x="500" y="178" type="line"/>
      <point x="500" y="20" type="line"/>
    </contour>
    <contour>
      <point x="900" y="0" type="line"/>
      <point x="1108" y="0" type="line"/>
      <point x="1108" y="20" type="line"/>
      <point x="1108" y="168" type="line"/>
      <point x="1108" y="188" type="line"/>
      <point x="900" y="188" type="line"/>
      <point x="900" y="168" type="line"/>
      <point x="900" y="20" type="line"/>
    </contour>
  </outline>
</glyph>
<glyph name="guilsinglleft" format="2">
  <advance width="653"/>
  <unicode hex="2039"/>
  <outline>
    <contour>
      <point x="228" y="459" type="line"/>
      <point x="228" y="469" type="line"/>
      <point x="603" y="919" type="line"/>
      <point x="533" y="919" type="line"/>
      <point x="20" y="469" type="line"/>
      <point x="20" y="459" type="line"/>
    </contour>
    <contour>
      <point x="228" y="459" type="line"/>
      <point x="20" y="459" type="line"/>
      <point x="20" y="449" type="line"/>
      <point x="533" y="0" type="line"/>
      <point x="603" y="0" type="line"/>
      <point x="228" y="449" type="line"/>
    </contour>
  </outline>
</glyph>
<glyph name="guilsinglright" format="2">
  <advance width="653"/>
  <unicode hex="203A"/>
  <outline>
    <contour>
      <point x="425" y="459" type="line"/>
      <point x="633" y="459" type="line"/>
      <point x="633" y="469" type="line"/>
      <point x="120" y="919" type="line"/>
      <point x="50" y="919" type="line"/>
      <point x="425" y="469" type="line"/>
    </contour>
    <contour>
      <point x="425" y="459" type="line"/>
      <point x="425" y="449" type="line"/>
      <point x="50" y="0" type="line"/>
      <point x="120" y="0" type="line"/>
      <point x="633" y="449" type="line"/>
      <point x="633" y="459" type="line"/>
    </contour>
  </outline>
</glyph>
<glyph name="Euro" format="2">
  <advance width="1477"/>
  <unicode hex="20AC"/>
  <guideline x="1145" y="1166" angle="90" identifier="fM2iU8dYEw"/>
  <anchor x="825" y="1395" name="top"/>
  <anchor x="825" y="-20" name="bottom"/>
  <outline>
    <contour>
      <point x="1337" y="138" type="curve"/>
      <point x="1337" y="248" type="line"/>
      <point x="1222" y="137"/>
      <point x="1096" y="70"/>
      <point x="884" y="70" type="curve" smooth="yes"/>
      <point x="612" y="70"/>
      <point x="375" y="236"/>
      <point x="303" y="488" type="curve"/>
      <point x="303" y="508" type="line"/>
      <point x="1124" y="508" type="line"/>
      <point x="1154" y="578" type="line"/>
      <point x="283" y="578" type="line"/>
      <point x="278" y="610"/>
      <point x="276" y="643"/>
      <point x="276" y="677" type="curve" smooth="yes"/>
      <point x="276" y="712"/>
      <point x="278" y="746"/>
      <point x="283" y="778" type="curve"/>
      <point x="1200" y="778" type="line"/>
      <point x="1230" y="848" type="line"/>
      <point x="303" y="848" type="line"/>
      <point x="303" y="868" type="line"/>
      <point x="378" y="1119"/>
      <point x="611" y="1285"/>
      <point x="884" y="1285" type="curve" smooth="yes"/>
      <point x="1098" y="1285"/>
      <point x="1222" y="1218"/>
      <point x="1328" y="1130" type="curve"/>
      <point x="1328" y="1240" type="line"/>
      <point x="1236" y="1310"/>
      <point x="1110" y="1375"/>
      <point x="894" y="1375" type="curve"/>
      <point x="551" y="1375"/>
      <point x="281" y="1157"/>
      <point x="208" y="848" type="curve"/>
      <point x="50" y="848" type="line"/>
      <point x="20" y="778" type="line"/>
      <point x="193" y="778" type="line"/>
      <point x="193" y="758" type="line"/>
      <point x="190" y="735"/>
      <point x="188" y="711"/>
      <point x="188" y="677" type="curve" smooth="yes"/>
      <point x="188" y="643"/>
      <point x="190" y="620"/>
      <point x="192" y="598" type="curve"/>
      <point x="192" y="578" type="line"/>
      <point x="50" y="578" type="line"/>
      <point x="20" y="508" type="line"/>
      <point x="207" y="508" type="line"/>
      <point x="277" y="198"/>
      <point x="540" y="-20"/>
      <point x="884" y="-20" type="curve" smooth="yes"/>
      <point x="1063" y="-20"/>
      <point x="1226" y="40"/>
    </contour>
  </outline>
</glyph>
<glyph name="Euro" format="1">
  <advance width="1477"/>
  <unicode hex="20AC"/>
  <outline>
    <contour>
      <point x="1337.0" y="138.0" type="curve"/>
      <point x="1337.0" y="248.0" type="line"/>
      <point x="1222.0" y="137.0"/>
      <point x="1096.0" y="70.0"/>
      <point x="884.0" y="70.0" type="curve" smooth="yes"/>
      <point x="612.0" y="70.0"/>
      <point x="375" y="236"/>
      <point x="303" y="488" type="curve"/>
      <point x="303" y="508" type="line"/>
      <point x="1124.0" y="508.0" type="line"/>
      <point x="1154.0" y="578.0" type="line"/>
      <point x="283.0" y="578.0" type="line"/>
      <point x="278.0" y="610.0"/>
      <point x="276.0" y="643.0"/>
      <point x="276.0" y="677.0" type="curve" smooth="yes"/>
      <point x="276.0" y="712.0"/>
      <point x="278.0" y="746.0"/>
      <point x="283.0" y="778.0" type="curve"/>
      <point x="1200.0" y="778.0" type="line"/>
      <point x="1230.0" y="848.0" type="line"/>
      <point x="303" y="848" type="line"/>
      <point x="303" y="868" type="line"/>
      <point x="378" y="1119"/>
      <point x="611.0" y="1285.0"/>
      <point x="884.0" y="1285.0" type="curve" smooth="yes"/>
      <point x="1098.0" y="1285.0"/>
      <point x="1222.0" y="1218.0"/>
      <point x="1328.0" y="1130.0" type="curve"/>
      <point x="1328.0" y="1240.0" type="line"/>
      <point x="1236.0" y="1310.0"/>
      <point x="1110.0" y="1375.0"/>
      <point x="894.0" y="1375.0" type="curve"/>
      <point x="551.0" y="1375.0"/>
      <point x="281.0" y="1157.0"/>
      <point x="208.0" y="848.0" type="curve"/>
      <point x="50.0" y="848.0" type="line"/>
      <point x="20.0" y="778.0" type="line"/>
      <point x="193" y="778" type="line"/>
      <point x="193" y="758" type="line"/>
      <point x="190" y="735"/>
      <point x="188.0" y="711.0"/>
      <point x="188.0" y="677.0" type="curve" smooth="yes"/>
      <point x="188.0" y="643.0"/>
      <point x="190" y="620"/>
      <point x="192" y="598" type="curve"/>
      <point x="192" y="578" type="line"/>
      <point x="50.0" y="578.0" type="line"/>
      <point x="20.0" y="508.0" type="line"/>
      <point x="207.0" y="508.0" type="line"/>
      <point x="277.0" y="198.0"/>
      <point x="540.0" y="-20.0"/>
      <point x="884.0" y="-20.0" type="curve" smooth="yes"/>
      <point x="1063.0" y="-20.0"/>
      <point x="1226.0" y="40.0"/>
    </contour>
    <contour>
      <point x="825.0" y="1395.0" type="move" name="top"/>
    </contour>
    <contour>
      <point x="825.0" y="-20.0" type="move" name="bottom"/>
    </contour>
  </outline>
</glyph>
<glyph name="numero" format="2">
  <advance width="2211"/>
  <unicode hex="2116"/>
  <guideline x="1508" y="780" angle="90" identifier="KcsFtPdTl9"/>
  <guideline x="2151" y="751" angle="90" identifier="UFG0N3AZAb"/>
  <outline>
    <contour>
      <point x="2151" y="70" type="line"/>
      <point x="1508" y="70" type="line"/>
      <point x="1508" y="0" type="line"/>
      <point x="2151" y="0" type="line"/>
    </contour>
    <component base="N"/>
    <component base="ordmasculine" xOffset="1478" yOffset="-241"/>
  </outline>
</glyph>
<glyph name="minus" format="1">
  <advance width="1041"/>
  <unicode hex="2212"/>
  <outline>
    <contour>
      <point x="981" y="712" type="line"/>
      <point x="60" y="712" type="line"/>
      <point x="60" y="642" type="line"/>
      <point x="981" y="642" type="line"/>
    </contour>
  </outline>
</glyph>
<glyph name="circleddigitone" format="1">
  <advance width="1516"/>
  <unicode hex="2460"/>
  <outline>
    <contour>
      <point x="605" y="952" type="line"/>
      <point x="701" y="999" type="line"/>
      <point x="713" y="987" type="line"/>
      <point x="713" y="270" type="line"/>
      <point x="818" y="270" type="line"/>
      <point x="818" y="1083" type="line"/>
      <point x="806" y="1095" type="line"/>
      <point x="589" y="985" type="line"/>
    </contour>
    <contour>
      <point x="713" y="318" type="line"/>
      <point x="701" y="306" type="line"/>
      <point x="603" y="306" type="line"/>
      <point x="603" y="270" type="line"/>
      <point x="928" y="270" type="line"/>
      <point x="928" y="306" type="line"/>
      <point x="830" y="306" type="line"/>
      <point x="818" y="318" type="line"/>
    </contour>
    <contour>
      <point x="60" y="678" type="curve" smooth="yes"/>
      <point x="60" y="271"/>
      <point x="352" y="-20"/>
      <point x="758" y="-20" type="curve" smooth="yes"/>
      <point x="1162" y="-20"/>
      <point x="1456" y="271"/>
      <point x="1456" y="678" type="curve" smooth="yes"/>
      <point x="1456" y="1081"/>
      <point x="1162" y="1375"/>
      <point x="758" y="1375" type="curve" smooth="yes"/>
      <point x="352" y="1375"/>
      <point x="60" y="1081"/>
    </contour>
    <contour>
      <point x="140" y="678" type="curve" smooth="yes"/>
      <point x="140" y="1044"/>
      <point x="392" y="1305"/>
      <point x="758" y="1305" type="curve" smooth="yes"/>
      <point x="1113" y="1305"/>
      <point x="1376" y="1044"/>
      <point x="1376" y="678" type="curve" smooth="yes"/>
      <point x="1376" y="313"/>
      <point x="1123" y="50"/>
      <point x="758" y="50" type="curve" smooth="yes"/>
      <point x="392" y="50"/>
      <point x="140" y="313"/>
    </contour>
  </outline>
</glyph>
<glyph name="circleddigittwo" format="2">
  <advance width="1516"/>
  <unicode hex="2461"/>
  <anchor x="763" y="508" name="top"/>
  <anchor x="763" y="1096" name="bottom"/>
  <outline>
    <contour>
      <point x="565" y="282" type="line"/>
      <point x="722" y="434"/>
      <point x="994" y="651"/>
      <point x="994" y="878" type="curve"/>
      <point x="994" y="992"/>
      <point x="924" y="1096"/>
      <point x="782" y="1096" type="curve"/>
      <point x="601" y="1096"/>
      <point x="533" y="932"/>
      <point x="525" y="864" type="curve"/>
      <point x="550" y="846" type="line"/>
      <point x="571" y="910"/>
      <point x="626" y="994"/>
      <point x="745" y="994" type="curve"/>
      <point x="849" y="994"/>
      <point x="907" y="926"/>
      <point x="907" y="823" type="curve"/>
      <point x="907" y="661"/>
      <point x="745" y="514"/>
      <point x="518" y="282" type="curve"/>
    </contour>
    <contour>
      <point x="518" y="270" type="line"/>
      <point x="998" y="270" type="line"/>
      <point x="998" y="362" type="line"/>
      <point x="676" y="362" type="line"/>
      <point x="664" y="374" type="line"/>
      <point x="638" y="374" type="line"/>
      <point x="518" y="282" type="line"/>
    </contour>
    <contour>
      <point x="848" y="362" type="curve"/>
      <point x="998" y="362" type="line"/>
      <point x="998" y="500" type="line"/>
      <point x="962" y="500" type="line"/>
      <point x="962" y="479" type="line"/>
      <point x="962" y="383"/>
      <point x="932" y="362"/>
    </contour>
    <contour>
      <point x="60" y="678" type="curve" smooth="yes"/>
      <point x="60" y="271"/>
      <point x="352" y="-20"/>
      <point x="758" y="-20" type="curve" smooth="yes"/>
      <point x="1162" y="-20"/>
      <point x="1456" y="271"/>
      <point x="1456" y="678" type="curve" smooth="yes"/>
      <point x="1456" y="1081"/>
      <point x="1162" y="1375"/>
      <point x="758" y="1375" type="curve" smooth="yes"/>
      <point x="352" y="1375"/>
      <point x="60" y="1081"/>
    </contour>
    <contour>
      <point x="140" y="678" type="curve" smooth="yes"/>
      <point x="140" y="1044"/>
      <point x="392" y="1305"/>
      <point x="758" y="1305" type="curve" smooth="yes"/>
      <point x="1113" y="1305"/>
      <point x="1376" y="1044"/>
      <point x="1376" y="678" type="curve" smooth="yes"/>
      <point x="1376" y="313"/>
      <point x="1123" y="50"/>
      <point x="758" y="50" type="curve" smooth="yes"/>
      <point x="392" y="50"/>
      <point x="140" y="313"/>
    </contour>
  </outline>
</glyph>
<glyph name="circleddigitthree" format="2">
  <advance width="1516"/>
  <unicode hex="2462"/>
  <anchor x="752" y="508" name="top"/>
  <anchor x="752" y="1096" name="bottom"/>
  <outline>
    <contour>
      <point x="672" y="666" type="line"/>
      <point x="842" y="744" type="line"/>
      <point x="842" y="756" type="line"/>
      <point x="896" y="796"/>
      <point x="960" y="847"/>
      <point x="960" y="932" type="curve"/>
      <point x="960" y="1034"/>
      <point x="890" y="1095"/>
      <point x="783" y="1095" type="curve"/>
      <point x="624" y="1095"/>
      <point x="555" y="956"/>
      <point x="538" y="888" type="curve"/>
      <point x="563" y="870" type="line"/>
      <point x="587" y="932"/>
      <point x="633" y="1005"/>
      <point x="731" y="1005" type="curve"/>
      <point x="821" y="1005"/>
      <point x="861" y="949"/>
      <point x="861" y="878" type="curve"/>
      <point x="861" y="766"/>
      <point x="722" y="713"/>
      <point x="672" y="702" type="curve"/>
    </contour>
    <contour>
      <point x="1001" y="526" type="curve"/>
      <point x="1001" y="682"/>
      <point x="891" y="728"/>
      <point x="842" y="744" type="curve"/>
      <point x="672" y="666" type="line"/>
      <point x="780" y="660"/>
      <point x="912" y="617"/>
      <point x="912" y="469" type="curve"/>
      <point x="912" y="368"/>
      <point x="842" y="305"/>
      <point x="760" y="305" type="curve"/>
      <point x="707" y="305"/>
      <point x="681" y="335"/>
      <point x="639" y="376" type="curve" smooth="yes"/>
      <point x="588" y="425" type="line"/>
      <point x="515" y="353" type="line"/>
      <point x="515" y="335" type="line"/>
      <point x="549" y="301"/>
      <point x="599" y="258"/>
      <point x="718" y="258" type="curve"/>
      <point x="878" y="258"/>
      <point x="1001" y="362"/>
    </contour>
    <contour>
      <point x="60" y="678" type="curve" smooth="yes"/>
      <point x="60" y="271"/>
      <point x="352" y="-20"/>
      <point x="758" y="-20" type="curve" smooth="yes"/>
      <point x="1162" y="-20"/>
      <point x="1456" y="271"/>
      <point x="1456" y="678" type="curve" smooth="yes"/>
      <point x="1456" y="1081"/>
      <point x="1162" y="1375"/>
      <point x="758" y="1375" type="curve" smooth="yes"/>
      <point x="352" y="1375"/>
      <point x="60" y="1081"/>
    </contour>
    <contour>
      <point x="140" y="678" type="curve" smooth="yes"/>
      <point x="140" y="1044"/>
      <point x="392" y="1305"/>
      <point x="758" y="1305" type="curve" smooth="yes"/>
      <point x="1113" y="1305"/>
      <point x="1376" y="1044"/>
      <point x="1376" y="678" type="curve" smooth="yes"/>
      <point x="1376" y="313"/>
      <point x="1123" y="50"/>
      <point x="758" y="50" type="curve" smooth="yes"/>
      <point x="392" y="50"/>
      <point x="140" y="313"/>
    </contour>
  </outline>
</glyph>
<glyph name="circleddigitfour" format="2">
  <advance width="1516"/>
  <unicode hex="2463"/>
  <outline>
    <contour>
      <point x="513" y="551" type="line"/>
      <point x="513" y="563" type="line"/>
      <point x="767" y="895" type="line" smooth="yes"/>
      <point x="779" y="895" type="line"/>
      <point x="779" y="270" type="line"/>
      <point x="878" y="270" type="line"/>
      <point x="878" y="1083" type="line"/>
      <point x="866" y="1095" type="line"/>
      <point x="441" y="551" type="line"/>
    </contour>
    <contour>
      <point x="441" y="467" type="line"/>
      <point x="1015" y="467" type="line"/>
      <point x="1015" y="551" type="line"/>
      <point x="441" y="551" type="line"/>
    </contour>
    <contour>
      <point x="60" y="678" type="curve" smooth="yes"/>
      <point x="60" y="271"/>
      <point x="352" y="-20"/>
      <point x="758" y="-20" type="curve" smooth="yes"/>
      <point x="1162" y="-20"/>
      <point x="1456" y="271"/>
      <point x="1456" y="678" type="curve" smooth="yes"/>
      <point x="1456" y="1081"/>
      <point x="1162" y="1375"/>
      <point x="758" y="1375" type="curve" smooth="yes"/>
      <point x="352" y="1375"/>
      <point x="60" y="1081"/>
    </contour>
    <contour>
      <point x="140" y="678" type="curve" smooth="yes"/>
      <point x="140" y="1044"/>
      <point x="392" y="1305"/>
      <point x="758" y="1305" type="curve" smooth="yes"/>
      <point x="1113" y="1305"/>
      <point x="1376" y="1044"/>
      <point x="1376" y="678" type="curve" smooth="yes"/>
      <point x="1376" y="313"/>
      <point x="1123" y="50"/>
      <point x="758" y="50" type="curve" smooth="yes"/>
      <point x="392" y="50"/>
      <point x="140" y="313"/>
    </contour>
  </outline>
</glyph>
